<?xml version="1.0" standalone="no"?>
<!DOCTYPE svg PUBLIC "-//W3C//DTD SVG 1.1//EN" "http://www.w3.org/Graphics/SVG/1.1/DTD/svg11.dtd" >
<svg xmlns="http://www.w3.org/2000/svg" xmlns:xlink="http://www.w3.org/1999/xlink" version="1.1">
<metadata></metadata>
<defs>
<font id="times_new_roman_psregular" horiz-adv-x="1024" >
<font-face units-per-em="2048" ascent="1638" descent="-410" />
<missing-glyph horiz-adv-x="512" />
<glyph horiz-adv-x="0" />
<glyph horiz-adv-x="682" />
<glyph unicode=" "  horiz-adv-x="512" />
<glyph unicode="&#x09;" horiz-adv-x="512" />
<glyph unicode="&#xa0;" horiz-adv-x="512" />
<glyph unicode="!" horiz-adv-x="681" d="M360 358h-41q-11 105 -36.5 334.5t-41.5 378.5t-16 172q0 58 29.5 100.5t85.5 42.5t85.5 -42.5t29.5 -100.5q0 -22 -16.5 -172.5t-42 -377t-36.5 -335.5zM340 -29q-46 0 -78.5 32.5t-32.5 78.5t32.5 78.5t78.5 32.5t78.5 -32.5t32.5 -78.5t-32.5 -78.5t-78.5 -32.5z" />
<glyph unicode="&#x22;" horiz-adv-x="835" d="M260 803h-49q-17 106 -38 221.5t-29.5 167t-8.5 84.5q0 47 27.5 78.5t73.5 31.5t73 -31.5t27 -78.5q0 -33 -8.5 -84.5t-29.5 -167t-38 -221.5zM627 803h-49q-17 106 -38 221.5t-29.5 167t-8.5 84.5q0 47 27 78.5t73 31.5t73 -31.5t27 -78.5q0 -33 -8 -84t-29 -168 t-38 -221z" />
<glyph unicode="#" d="M111 -31l94 459h-168v82h184l70 336h-254v82h270l94 458h84l-94 -458h344l94 458h84l-94 -458h168v-82h-184l-70 -336h254v-82h-270l-94 -459h-84l94 459h-344l-94 -459h-84zM305 510h344l70 336h-344z" />
<glyph unicode="$" d="M524 1313v-514q91 -65 145.5 -105t104 -82t73.5 -70.5t42.5 -63.5t23.5 -67t5 -77q0 -101 -57.5 -185t-147.5 -130t-189 -48v-127h-63v127q-180 6 -355 80v283h44q6 -129 93.5 -211.5t217.5 -85.5v584q-110 61 -184 121.5t-109.5 115.5t-48.5 99.5t-13 93.5 q0 140 104.5 228t250.5 99v92h63v-92q73 -1 148.5 -23t181.5 -65v-299h-39q-9 136 -83.5 222.5t-207.5 99.5zM524 580v-543q99 11 167.5 81.5t68.5 168.5q0 19 -4 38t-8.5 34t-16.5 32.5t-19.5 29.5t-25.5 29t-27 26t-32 27t-32 25t-36 26.5t-35 25.5zM461 840v473 q-86 -8 -141.5 -62.5t-55.5 -140.5q0 -43 16.5 -82.5t48 -74t61 -59t71.5 -54.5z" />
<glyph unicode="%" horiz-adv-x="1705" d="M358 1384q91 0 158.5 -55t99 -136.5t31.5 -174.5t-31.5 -175t-99 -137t-158.5 -55t-158 55t-98.5 137t-31.5 175t31.5 174.5t98.5 136.5t158 55zM360 1331q-24 0 -43.5 -9t-33 -28.5t-23.5 -38.5t-15.5 -49.5t-9 -50.5t-5 -53t-1.5 -46.5v-39.5q0 -311 127 -311 q24 0 43.5 9t33 28.5t23.5 38.5t15.5 49.5t9 50.5t5 53t1.5 46.5v39.5q0 311 -127 311zM1348 705q91 0 158 -55t98.5 -137t31.5 -175t-31.5 -175t-98.5 -137t-158 -55t-158.5 55t-99 137t-31.5 175t31.5 175t99 137t158.5 55zM1350 651q-24 0 -43.5 -9t-33 -28.5 t-23.5 -38.5t-15.5 -49.5t-9 -50.5t-5 -53t-1.5 -46.5v-39.5q0 -311 127 -311q24 0 43.5 9t33 28.5t23.5 38.5t15.5 49.5t9 50.5t5 53t1.5 46.5v39.5q0 311 -127 311zM1389 1386l-969 -1417h-90l968 1417h91z" />
<glyph unicode="&#x26;" horiz-adv-x="1593" d="M1491 270l37 -26q-27 -124 -109.5 -199.5t-206.5 -75.5q-167 0 -346 195q-110 -98 -210.5 -146.5t-229.5 -48.5q-91 0 -170 33t-131.5 102.5t-52.5 161.5q0 69 25.5 134t64.5 114t97 97t110 80.5t116 66.5q-79 176 -79 301q0 144 99.5 235.5t244.5 91.5q115 0 193.5 -66 t78.5 -179q0 -53 -21.5 -102t-51.5 -83.5t-79.5 -70t-86.5 -56t-91 -47.5q125 -242 266 -413q70 82 123.5 177.5t53.5 174.5q0 41 -27 78t-66 37v36h418v-36q-21 0 -39 -2t-34 -8.5t-27 -10.5t-24.5 -16.5t-20 -18t-19.5 -24.5t-17 -25t-19 -30t-19 -31q-146 -238 -235 -361 q73 -86 144 -136t159 -50q68 0 117.5 40t64.5 107zM659 848q106 47 176 123t70 178q0 67 -42 115.5t-107 48.5q-76 0 -128.5 -53t-52.5 -130q0 -117 84 -282zM815 221q-56 64 -113 151.5t-90 147t-92 170.5q-105 -54 -173 -140t-68 -192q0 -110 71 -189t178 -79q23 0 45 3.5 t38.5 6.5t38.5 13.5t32.5 15t34.5 21t30.5 21t34.5 25.5t33 25z" />
<glyph unicode="'" horiz-adv-x="368" d="M209 803h-49q-17 106 -38 221.5t-29.5 167t-8.5 84.5q0 47 27 78.5t73 31.5t73.5 -31.5t27.5 -78.5q0 -33 -8.5 -84.5t-29.5 -167t-38 -221.5z" />
<glyph unicode="(" horiz-adv-x="681" d="M637 1421v-43q-361 -197 -361 -889q0 -691 361 -888v-43q-266 142 -409.5 385.5t-143.5 545.5t143.5 546t409.5 386z" />
<glyph unicode=")" horiz-adv-x="681" d="M45 -442v43q361 197 361 888q0 692 -361 889v43q266 -142 409.5 -386t143.5 -546t-143.5 -545.5t-409.5 -385.5z" />
<glyph unicode="*" d="M473 1008q-25 18 -85 31.5t-111 23t-91.5 38.5t-40.5 75q0 30 23 50.5t53 20.5q32 0 62.5 -16.5t56 -42.5t49.5 -53.5t51.5 -53t53.5 -37.5q0 54 -32 143.5t-32 125.5q0 44 21 76t61 32t61 -32t21 -76q0 -36 -32 -125.5t-32 -143.5q26 12 53.5 37.5t51.5 53t49.5 53.5 t56 42.5t62.5 16.5q30 0 53 -20.5t23 -50.5q0 -46 -40.5 -75t-91.5 -38.5t-111 -23t-85 -31.5q25 -18 85 -31.5t111 -23t91.5 -38.5t40.5 -75q0 -30 -23 -51t-53 -21q-32 0 -62.5 16.5t-56 42.5t-49.5 53.5t-51.5 53t-53.5 37.5q0 -54 32 -143.5t32 -125.5q0 -44 -21 -76 t-61 -32t-61 32t-21 76q0 36 32 125.5t32 143.5q-26 -12 -53.5 -37.5t-51.5 -53t-49.5 -53.5t-56 -42.5t-62.5 -16.5q-30 0 -53 21t-23 51q0 46 40.5 75t91.5 38.5t111 23t85 31.5z" />
<glyph unicode="+" horiz-adv-x="1155" d="M537 141v498h-496v82h496v498h81v-498h498v-82h-498v-498h-81z" />
<glyph unicode="," horiz-adv-x="512" d="M111 -340v43q87 24 151 96.5t64 159.5q0 41 -27 41q-6 0 -33 -14.5t-53 -14.5q-46 0 -74 31t-28 78q0 52 38 86.5t91 34.5q78 0 123 -66t45 -147q0 -120 -86 -206.5t-211 -121.5z" />
<glyph unicode="-" horiz-adv-x="681" d="M82 539h518v-158h-518v158z" />
<glyph unicode="." horiz-adv-x="512" d="M256 -29q-46 0 -78.5 32.5t-32.5 78.5t32.5 78.5t78.5 32.5t78.5 -32.5t32.5 -78.5t-32.5 -78.5t-78.5 -32.5z" />
<glyph unicode="/" horiz-adv-x="569" d="M569 1421l-489 -1450h-80l492 1450h77z" />
<glyph unicode="0" d="M512 1384q60 0 120 -26t117.5 -82.5t102 -137t71.5 -200t27 -260.5t-27 -260.5t-71.5 -200t-102 -137.5t-117.5 -83t-120 -26t-120 26t-117.5 83t-102 137.5t-71.5 200t-27 260.5t27 260.5t71.5 200t102 137t117.5 82.5t120 26zM512 1323q-119 0 -180.5 -182.5 t-61.5 -528.5q0 -46 3.5 -97.5t12 -121t26 -130t43 -114t66 -85t91.5 -31.5q119 0 180.5 183t61.5 529q0 60 -3.5 121t-18.5 148.5t-39 151.5t-71 110.5t-110 46.5z" />
<glyph unicode="1" d="M240 1223l329 161h35v-1116q0 -77 2.5 -108.5t18.5 -66.5t51 -45.5t98 -10.5v-37h-510v37q42 1 68 3.5t47 10.5t31.5 18.5t17.5 32.5t8.5 46.5t1.5 66.5v815q0 108 -17 150.5t-63 42.5q-36 0 -104 -31z" />
<glyph unicode="2" d="M938 260l-94 -260h-801v37q268 264 400 416.5t185.5 261t53.5 221.5q0 124 -72.5 210.5t-187.5 86.5q-107 0 -190 -64.5t-111 -167.5h-37q27 173 123 278t264 105q100 0 187.5 -44.5t142.5 -127.5t55 -184q0 -238 -297 -557l-301 -319h422q170 0 221 108h37z" />
<glyph unicode="3" d="M311 672v30q132 20 221 103t89 211q0 102 -63.5 166.5t-166.5 64.5q-78 0 -146 -47t-110 -119l-31 17q47 129 140 207.5t223 78.5q71 0 128.5 -21t92 -52t57.5 -70t32 -72.5t9 -62.5q0 -79 -55 -160t-131 -143q122 -46 188 -138t66 -221q0 -70 -19 -136t-61.5 -127.5 t-104.5 -108t-154 -74t-204 -27.5q-32 0 -65 4t-73 14t-65.5 33.5t-25.5 57.5q0 33 24.5 54.5t59.5 21.5q34 0 68.5 -14.5t61 -32t69.5 -32t90 -14.5q109 0 179.5 83.5t70.5 193.5q0 11 -1 24.5t-8.5 48.5t-21.5 65.5t-43.5 68t-69.5 63.5t-105 44t-145 18z" />
<glyph unicode="4" d="M952 500v-144h-182v-356h-166v356h-573v129l631 899h108v-884h182zM604 500v667h-4l-471 -667h475z" />
<glyph unicode="5" d="M889 1356l-74 -164h-407l-95 -188q105 -13 202.5 -53.5t176.5 -105t126.5 -159t47.5 -203.5q0 -105 -45 -200.5t-119 -163.5t-172.5 -108t-201.5 -40q-33 0 -69.5 6.5t-74 21t-62 42.5t-24.5 65q0 32 23.5 53t56.5 21q31 0 62 -16t54 -35t61.5 -35t82.5 -16q123 0 211 89 t88 212q0 195 -164.5 321.5t-429.5 126.5l260 529h486z" />
<glyph unicode="6" d="M918 1384v-36q-115 -4 -219 -56t-179.5 -136t-128.5 -186.5t-78 -213.5q134 100 287 100q79 0 145.5 -34.5t109 -91.5t66 -129t23.5 -148q0 -120 -52 -229.5t-151 -181t-221 -71.5q-85 0 -157.5 35t-122 92.5t-85 131.5t-51.5 151.5t-16 153.5q0 160 63.5 315 t168.5 272.5t251.5 189.5t302.5 72h44zM766 352q0 65 -13.5 133t-41.5 134.5t-81.5 108.5t-123.5 42q-81 0 -207 -86q-18 -126 -18 -207q0 -47 8 -102.5t27.5 -117t48 -110.5t73.5 -81.5t99 -32.5q61 0 107 29.5t71.5 78t38 102t12.5 109.5z" />
<glyph unicode="7" d="M205 1356h727v-37l-451 -1348h-112l405 1221h-385q-104 0 -167 -37t-118 -131l-28 10z" />
<glyph unicode="8" d="M393 684q-112 93 -152 138q-100 112 -100 243q0 97 53.5 171t135.5 111t176 37q170 0 270.5 -89t100.5 -205q0 -45 -18.5 -89t-44.5 -76.5t-68 -67.5t-73.5 -56t-76.5 -49q125 -100 165 -139q144 -140 144 -289q0 -106 -55.5 -188t-144 -123.5t-193.5 -41.5 q-88 0 -158.5 26.5t-112.5 65t-70 86t-38 86t-10 68.5q0 60 23 116.5t65.5 105t84.5 84.5t97 75zM549 788q42 38 60.5 55.5t48 51.5t42 60.5t23 65.5t10.5 83q0 104 -59 161.5t-164 57.5q-88 0 -156.5 -54t-68.5 -139q0 -46 16 -87t48.5 -77t60.5 -61.5t73 -61.5t66 -55z M438 645q-75 -59 -118.5 -147t-43.5 -183q0 -122 66.5 -202t185.5 -80q96 0 165 55t69 148q0 85 -70 173t-254 236z" />
<glyph unicode="9" d="M109 -29v37q94 0 179.5 33.5t151.5 89.5t120.5 132t91 159t59.5 172q-153 -100 -287 -100q-106 0 -186 60t-119 151t-39 194q0 90 30.5 177t84 155.5t134.5 110.5t175 42q84 0 156 -35t122 -92t85.5 -131.5t52 -153t16.5 -155.5q0 -115 -36 -235t-107 -228.5 t-165.5 -194.5t-221.5 -137t-265 -51h-32zM727 670q18 122 18 202q0 62 -14 134.5t-42 146t-81 122t-121 48.5q-62 0 -108.5 -30t-71.5 -79.5t-37 -104t-12 -112.5q0 -63 12.5 -129t38.5 -132.5t77.5 -109t119.5 -42.5q53 0 117.5 25t103.5 61z" />
<glyph unicode=":" horiz-adv-x="569" d="M285 723q-46 0 -78.5 32.5t-32.5 78.5t32.5 78t78.5 32t78 -32t32 -78t-32 -78.5t-78 -32.5zM285 -29q-46 0 -78.5 32.5t-32.5 78.5t32.5 78.5t78.5 32.5t78 -32.5t32 -78.5t-32 -78.5t-78 -32.5z" />
<glyph unicode=";" horiz-adv-x="569" d="M139 -340v43q87 24 151 96.5t64 159.5q0 41 -26 41q-6 0 -33 -14.5t-53 -14.5q-46 0 -74.5 31t-28.5 78q0 52 38 86.5t91 34.5q78 0 123 -66t45 -147q0 -120 -86 -206.5t-211 -121.5zM285 723q-46 0 -78.5 32.5t-32.5 78.5t32.5 78t78.5 32t78 -32t32 -78t-32 -78.5 t-78 -32.5z" />
<glyph unicode="&#x3c;" horiz-adv-x="1155" d="M41 705l1075 469v-89l-926 -405l926 -406v-88l-1075 469v50z" />
<glyph unicode="=" horiz-adv-x="1155" d="M41 883h1075v-82h-1075v82zM41 559h1075v-82h-1075v82z" />
<glyph unicode="&#x3e;" horiz-adv-x="1155" d="M1116 655l-1075 -469v88l926 406l-926 405v89l1075 -469v-50z" />
<glyph unicode="?" horiz-adv-x="909" d="M449 319h-41q0 90 23.5 175.5t57 152t67.5 130t57.5 134.5t23.5 140q0 72 -24.5 134.5t-78 104t-126.5 41.5q-68 0 -129.5 -33.5t-61.5 -95.5q0 -37 31 -91t31 -81q0 -35 -23 -60.5t-57 -25.5q-52 0 -81.5 49.5t-29.5 104.5q0 50 20.5 98.5t61.5 92t115 70.5t170 27 q90 0 160 -25.5t108 -62t62 -83t31 -81.5t7 -65q0 -61 -20.5 -118t-53.5 -104t-73 -93t-80 -94t-73 -97.5t-53.5 -112.5t-20.5 -131zM430 -29q-46 0 -78.5 32.5t-32.5 78.5t32.5 78.5t78.5 32.5t78.5 -32.5t32.5 -78.5t-32.5 -78.5t-78.5 -32.5z" />
<glyph unicode="@" horiz-adv-x="1886" d="M1411 956l-170 -589q-3 -12 -11.5 -43t-13.5 -50t-9.5 -46t-4.5 -48q0 -32 22 -54t56 -22q55 0 115 33t113.5 93.5t97 139.5t69 178.5t25.5 201.5q0 184 -84 326t-230 218t-329 76q-153 0 -289.5 -51.5t-240 -143t-179 -211.5t-114.5 -261t-39 -289q0 -169 57 -316 t158 -252.5t246.5 -166t316.5 -60.5q277 0 489.5 147t319.5 406h57q-55 -183 -187 -323.5t-308 -215.5t-367 -75q-250 0 -451 115t-313.5 316.5t-112.5 450.5q0 197 71.5 377t195.5 313t300.5 212t376.5 79q207 0 369 -82t255 -239t93 -365q0 -95 -23 -193.5t-69.5 -190 t-111 -163t-155 -114.5t-192.5 -43q-72 0 -112.5 33.5t-40.5 103.5q0 59 16 137l-4 4q-43 -52 -77 -89t-88 -86t-110.5 -76t-109.5 -27q-85 0 -134.5 69.5t-49.5 157.5q0 119 53.5 248t133.5 228.5t179.5 164t186.5 64.5q64 0 112.5 -36.5t55.5 -95.5h4l30 105zM1186 772 q0 61 -33 103.5t-92 42.5q-56 0 -116.5 -48.5t-110 -123t-90 -159.5t-63 -163.5t-22.5 -128.5q0 -57 30.5 -100t84.5 -43q47 0 104 34t110.5 95.5t98.5 138t72 170t27 182.5z" />
<glyph unicode="A" horiz-adv-x="1478" d="M940 455h-524l-82 -191q-45 -98 -45 -137q0 -22 10 -38t23 -25t37 -15t41 -8t46 -4v-37h-426v37q77 7 120.5 51.5t90.5 155.5l488 1142h37l461 -1105q46 -111 68 -145q60 -93 170 -99h3v-37h-534v37q72 3 105.5 22t33.5 70q0 16 -6 39.5t-11.5 38.5t-17.5 44.5t-14 33.5z M913 528l-231 547l-236 -547h467z" />
<glyph unicode="B" horiz-adv-x="1366" d="M231 260v836q0 117 -12 151q-16 50 -79 64q-38 8 -101 8v37h627q139 0 243 -30t164.5 -82t89.5 -115.5t29 -137.5q0 -108 -67.5 -187t-172.5 -110v-4q125 -16 214 -102t89 -211q0 -29 -5 -59t-19.5 -68.5t-37.5 -72t-63.5 -67t-93.5 -57t-131 -38.5t-172 -15h-694v37 q58 0 93.5 8t56.5 19t30 44t10.5 59.5t1.5 89.5v3zM424 1266v-521q71 -14 225 -14q84 0 147.5 20.5t98 50t55.5 69t27 69.5t6 59q0 76 -33.5 133.5t-90 90.5t-122 49t-137.5 16q-98 0 -176 -22zM424 653v-553q107 -26 231 -26q69 0 132 16t118 47.5t88 87.5t33 129 q0 69 -25.5 124t-67 89t-98.5 56.5t-116 31.5t-123 9q-112 0 -172 -11z" />
<glyph unicode="C" horiz-adv-x="1366" d="M1233 1386l31 -460h-31q-106 389 -455 389q-103 0 -188.5 -40.5t-149.5 -120.5t-99.5 -208t-35.5 -293q0 -131 30.5 -236t80 -171t117 -109.5t136 -61.5t142.5 -18q105 0 187.5 35t140.5 92t125 154l30 -21q-96 -176 -230 -262t-331 -86q-191 0 -342 90.5t-233 245.5 t-82 346q0 149 50.5 283.5t140 233.5t220.5 157.5t283 58.5q144 0 289 -71q42 -21 59 -21q31 0 52 28.5t28 65.5h35z" />
<glyph unicode="D" horiz-adv-x="1478" d="M231 260v836q0 117 -12 151q-16 50 -79 64q-38 8 -101 8v37h524q86 0 148 -3t142 -13.5t150 -34.5t127 -62q135 -91 204 -239.5t69 -319.5q0 -141 -46 -263.5t-135 -217t-231 -149t-321 -54.5h-631v37q58 0 93.5 8t56.5 19t30 44t10.5 59.5t1.5 89.5v3zM424 1253v-1153 q114 -26 213 -26q128 0 231 48t169 131t101.5 192t35.5 233q0 171 -61 306t-186 216.5t-298 81.5q-99 0 -205 -29z" />
<glyph unicode="E" horiz-adv-x="1251" d="M424 1282v-537h272q45 0 73.5 2t57 9t45 20t31 35.5t21.5 54.5t10 78h37v-473h-37q-6 68 -19.5 107.5t-44 60.5t-68.5 27t-106 6h-272v-496q0 -62 22.5 -82t88.5 -20h278q67 0 115 14.5t89.5 51.5t72 80t75.5 120h39l-114 -340h-1051v37q58 0 93.5 8t56.5 19t30 44 t10.5 59.5t1.5 89.5v3v836q0 117 -12 151q-16 50 -79 64q-38 8 -101 8v37h1040l19 -297h-41q-10 53 -21 88.5t-28.5 61t-35.5 39.5t-51 22t-65 10t-86 2h-346z" />
<glyph unicode="F" horiz-adv-x="1138" d="M424 1282v-534h221q114 0 158 38t45 150h37v-459h-37q-1 112 -45 150.5t-158 38.5h-221v-406q0 -117 12 -151q16 -50 79 -64q37 -8 101 -8v-37h-577v37q58 0 93.5 8t56.5 19t30 44t10.5 59.5t1.5 89.5v3v836q0 117 -12 151q-16 50 -79 64q-38 8 -101 8v37h1008l12 -297 h-35q-17 61 -38.5 101t-45.5 65t-62.5 37t-77.5 16t-102 4h-274z" />
<glyph unicode="G" horiz-adv-x="1478" d="M1298 512v-424q-215 -119 -467 -119q-124 0 -230.5 25.5t-182 68t-136 100.5t-98.5 120t-63 130t-35 127.5t-10 114.5q0 97 27.5 197t86 196.5t141 171t202.5 120.5t260 46q124 0 251 -45q9 -3 38.5 -14.5t53 -19t35.5 -7.5q21 0 33 15.5t15 31t4 39.5h37l34 -428h-37 q-108 359 -452 359q-100 0 -183.5 -35t-141.5 -94t-98 -138.5t-58.5 -167.5t-18.5 -182q0 -293 147 -477t379 -184q69 0 143.5 19t131.5 55v366v48.5t-1.5 40.5t-4 35.5t-7 28t-11.5 24t-17.5 17t-24.5 14t-33 8.5t-42 6t-52 1v37h539v-37q-95 0 -124.5 -39.5t-29.5 -150.5z " />
<glyph unicode="H" horiz-adv-x="1478" d="M424 727h631v369v48.5t-1.5 40.5t-4 35.5t-7 28t-11.5 24t-17.5 17t-24.5 14t-33 8.5t-42 6t-52 1v37h578v-37q-29 0 -52 -1t-42 -6t-33 -8.5t-24.5 -14t-17.5 -17t-11.5 -24t-7 -28t-4 -35.5t-1.5 -40.5v-48.5v-836v-48.5t1.5 -40.5t4 -35.5t7 -28t11.5 -24t17.5 -17 t24.5 -14t33 -8.5t42 -6t52 -1v-37h-578v37q29 0 52 1t42 6t33 8.5t24.5 14t17.5 17t11.5 24t7 28t4 35.5t1.5 40.5v48.5v393h-631v-393q0 -117 12 -151q16 -50 79 -64q37 -8 101 -8v-37h-577v37q58 0 93.5 8t56.5 19t30 44t10.5 59.5t1.5 89.5v3v836q0 117 -12 151 q-16 50 -79 64q-38 8 -101 8v37h577v-37q-58 0 -93.5 -8t-56.5 -19t-30 -44t-10.5 -59.5t-1.5 -89.5v-3v-369z" />
<glyph unicode="I" horiz-adv-x="681" d="M436 1096v-836v-48.5t1.5 -40.5t4 -35.5t7 -28t11.5 -24t17.5 -17t24.5 -14t33 -8.5t42 -6t52 -1v-37h-578v37q29 0 52 1t42 6t33 8.5t24.5 14t17.5 17t11.5 24t7 28t4 35.5t1.5 40.5v48.5v836v48.5t-1.5 40.5t-4 35.5t-7 28t-11.5 24t-17.5 17t-24.5 14t-33 8.5t-42 6 t-52 1v37h578v-37q-29 0 -52 -1t-42 -6t-33 -8.5t-24.5 -14t-17.5 -17t-11.5 -24t-7 -28t-4 -35.5t-1.5 -40.5v-48.5z" />
<glyph unicode="J" horiz-adv-x="796" d="M401 215v881q0 117 -12 151q-16 50 -79 64q-38 8 -101 8v37h577v-37q-58 0 -93.5 -8t-56.5 -19t-30 -44t-10.5 -59.5t-1.5 -89.5v-3v-668q0 -105 -23 -187.5t-58.5 -132t-83 -82.5t-91 -45t-86.5 -12q-78 0 -142.5 39.5t-64.5 112.5q0 47 28 76.5t74 29.5 q40 0 66.5 -29.5t38 -64.5t32 -64.5t50.5 -29.5q67 0 67 176z" />
<glyph unicode="K" horiz-adv-x="1478" d="M614 752l484 -480q53 -52 89 -83.5t90 -70.5t110 -59t114 -22v-37h-645v37q37 -2 73 14t36 49q0 19 -11.5 40.5t-19 31t-33.5 34t-27 25.5l-450 445v-416q0 -117 12 -151q16 -50 79 -64q37 -8 101 -8v-37h-577v37q58 0 93.5 8t56.5 19t30 44t10.5 59.5t1.5 89.5v3v836 q0 117 -12 151q-16 50 -79 64q-38 8 -101 8v37h577v-37q-58 0 -93.5 -8t-56.5 -19t-30 -44t-10.5 -59.5t-1.5 -89.5v-3v-396l336 312q57 51 122.5 130.5t65.5 114.5q0 21 -9 34.5t-28 19t-37 7t-49 1.5v37h498v-37q-48 1 -97.5 -18t-99.5 -56.5t-82 -66.5t-77 -74z" />
<glyph unicode="L" horiz-adv-x="1251" d="M424 1075v-809q0 -33 0.5 -49t3 -41.5t8 -37.5t15.5 -25.5t26.5 -19t38.5 -5.5h303q127 0 208 63.5t144 223.5l33 -6l-117 -369h-1048v37q58 0 93.5 8t56.5 19t30 44t10.5 59.5t1.5 89.5v3v836q0 117 -12 151q-16 50 -79 64q-38 8 -101 8v37h612v-37q-69 0 -111 -9.5 t-66.5 -22t-35 -49t-12.5 -65.5t-2 -98z" />
<glyph unicode="M" horiz-adv-x="1820" d="M842 0l-520 1135h-5v-875v-48.5t1.5 -40.5t4 -35.5t7 -28t11.5 -24t17.5 -17t24.5 -14t33 -8.5t42 -6t52 -1v-37h-473v37q58 0 93.5 8t56.5 19t30 44t10.5 59.5t1.5 89.5v3v838q0 54 -3.5 86.5t-14.5 61.5t-32.5 43t-55.5 22t-86 8v37h385l491 -1061l486 1061h383v-37 q-29 0 -52 -1t-42 -6t-33 -8.5t-24.5 -14t-17.5 -17t-11.5 -24t-7 -28t-4 -35.5t-1.5 -40.5v-48.5v-836v-48.5t1.5 -40.5t4 -35.5t7 -28t11.5 -24t17.5 -17t24.5 -14t33 -8.5t42 -6t52 -1v-37h-578v37q29 0 52 1t42 6t33 8.5t24.5 14t17.5 17t11.5 24t7 28t4 35.5t1.5 40.5 v48.5v875h-4l-519 -1135h-32z" />
<glyph unicode="N" horiz-adv-x="1478" d="M332 1067v-807q0 -117 12 -151q16 -50 79 -64q37 -8 101 -8v-37h-473v37q29 0 52 1t42 6t33 8.5t24.5 14t17.5 17t11.5 24t7 28t4 35.5t1.5 40.5v48.5v918q-61 76 -117 108.5t-152 32.5v37h369l825 -1014h5v754v48.5t-1.5 40.5t-4 35.5t-7 28t-11.5 24t-17.5 17t-24.5 14 t-33 8.5t-42 6t-52 1v37h473v-37q-58 0 -93.5 -8t-56.5 -19t-30 -44t-10.5 -59.5t-1.5 -89.5v-3v-1119h-37l-889 1090h-4z" />
<glyph unicode="O" horiz-adv-x="1478" d="M739 -31q-196 0 -349 98.5t-233.5 259.5t-80.5 351t80.5 350.5t233.5 259t349 98.5q147 0 273 -57.5t211 -154.5t132.5 -225.5t47.5 -270.5t-47.5 -270.5t-132.5 -226t-211 -155t-273 -57.5zM739 43q82 0 149 25.5t113.5 71.5t81 105.5t54 132.5t28.5 146.5t9 153.5 t-9 153.5t-28.5 146.5t-54 132.5t-81 105.5t-113.5 71.5t-149 25.5q-97 0 -173.5 -37t-124.5 -98t-79.5 -145t-44 -171t-12.5 -184t12.5 -184t44 -171t79.5 -145t124.5 -98t173.5 -37z" />
<glyph unicode="P" horiz-adv-x="1138" d="M424 635v-375q0 -117 12 -151q16 -50 79 -64q37 -8 101 -8v-37h-577v37q58 0 93.5 8t56.5 19t30 44t10.5 59.5t1.5 89.5v3v836q0 117 -12 151q-16 50 -79 64q-38 8 -101 8v37h553q228 0 354.5 -109.5t126.5 -269.5q0 -31 -6.5 -65t-22 -78.5t-47 -83.5t-75.5 -72.5 t-114.5 -53.5t-156.5 -20q-80 0 -227 31zM424 1255v-561q95 -20 194 -20q96 0 161 89t65 204q0 130 -76.5 218.5t-204.5 88.5q-68 0 -139 -19z" />
<glyph unicode="Q" horiz-adv-x="1478" d="M1395 -369v-37q-229 10 -445.5 115t-388.5 277q-236 85 -360.5 263t-124.5 429q0 190 80.5 350.5t233.5 259t349 98.5q147 0 273 -57.5t211 -154.5t132.5 -225.5t47.5 -270.5q0 -160 -59 -300.5t-172.5 -244t-266.5 -147.5q83 -153 207 -250t283 -105zM739 37 q81 0 148.5 26.5t114 73.5t81 108t54 134.5t28.5 147t9 151.5q0 80 -9 153.5t-28.5 146.5t-54 132.5t-81 105.5t-113.5 71.5t-149 25.5q-97 0 -173.5 -37t-124.5 -98t-79.5 -145t-44 -171t-12.5 -184q0 -95 12.5 -182t44 -172.5t79.5 -147.5t124.5 -100.5t173.5 -38.5z" />
<glyph unicode="R" horiz-adv-x="1366" d="M1386 0h-362l-461 633h-139v-373q0 -117 12 -151q16 -50 79 -64q37 -8 101 -8v-37h-577v37q58 0 93.5 8t56.5 19t30 44t10.5 59.5t1.5 89.5v3v836q0 117 -12 151q-16 50 -79 64q-38 8 -101 8v37h588q114 0 201.5 -25.5t137 -63.5t81 -88t41.5 -92t10 -83q0 -71 -27 -131 t-74.5 -102t-106.5 -70t-128 -42l264 -368q32 -44 49.5 -67t46.5 -56.5t52.5 -51t56.5 -37t71.5 -29.5t83.5 -13v-37zM424 1264v-566h45q61 0 116.5 9t108 30.5t90.5 54.5t61 85t23 118q0 125 -76.5 206t-199.5 81q-44 0 -168 -18z" />
<glyph unicode="S" horiz-adv-x="1138" d="M942 1386v-468h-37q-11 167 -113 278t-266 111q-91 0 -163 -61t-72 -150q0 -51 32 -97t84 -81.5t118.5 -74t136 -72t136 -77.5t118.5 -90t84 -109t32 -135q0 -164 -119 -277.5t-309 -113.5q-112 0 -215 39q-11 4 -37.5 13t-38.5 12.5t-32 7.5t-37 4q-32 0 -45 -20 t-17 -56h-37v465h37q9 -94 42.5 -165.5t77 -112t98 -66t98.5 -33.5t86 -8q112 0 191 57.5t79 163.5q0 63 -40 118t-103.5 97t-140 83.5t-153.5 86.5t-140.5 95.5t-103.5 121t-40 152.5q0 154 119.5 258t282.5 104q91 0 184 -38q17 -6 44.5 -17.5t44 -16.5t28.5 -5 q33 0 47.5 20t21.5 57h37z" />
<glyph unicode="T" horiz-adv-x="1251" d="M721 1268v-1008q0 -117 12 -151q16 -50 79 -64q37 -8 101 -8v-37h-577v37q58 0 93.5 8t56.5 19t30 44t10.5 59.5t1.5 89.5v3v1008h-202q-62 0 -106.5 -17.5t-70 -50.5t-38.5 -72t-17 -90h-37l15 318h1106l14 -318h-37q-8 107 -60.5 168.5t-170.5 61.5h-203z" />
<glyph unicode="U" horiz-adv-x="1478" d="M211 485v611v48.5t-1.5 40.5t-4 35.5t-7 28t-11.5 24t-17.5 17t-24.5 14t-33 8.5t-42 6t-52 1v37h578v-37q-29 0 -52 -1t-42 -6t-33 -8.5t-24.5 -14t-17.5 -17t-11.5 -24t-7 -28t-4 -35.5t-1.5 -40.5v-48.5v-541q0 -206 33 -301q34 -96 122 -146.5t196 -50.5 q107 0 204.5 42t153.5 124q30 45 46 119t18 122.5t2 127.5v504v48.5t-1.5 40.5t-4 35.5t-7 28t-11.5 24t-17.5 17t-24.5 14t-33 8.5t-42 6t-52 1v37h473v-37q-58 0 -93.5 -8t-56.5 -19t-30 -44t-10.5 -59.5t-1.5 -89.5v-3v-604q0 -80 -13 -149.5t-49 -140t-92.5 -120.5 t-151 -81.5t-217.5 -31.5q-126 0 -221.5 28.5t-153.5 75.5t-94 115.5t-49.5 139.5t-13.5 157z" />
<glyph unicode="V" horiz-adv-x="1478" d="M815 276l311 764q56 136 56 177q0 87 -144 102v37h418v-37q-36 -3 -66.5 -18t-50 -33t-39.5 -50.5t-30.5 -55t-26.5 -62.5l-463 -1131h-37l-497 1145q-42 100 -61 127q-43 61 -130 74q-17 3 -35 4v37h555v-37q-4 -1 -21.5 -2.5t-23.5 -3t-21.5 -4t-22.5 -5.5t-19 -8 t-18 -11.5t-13 -15.5t-9.5 -20.5t-2.5 -25.5q0 -15 3.5 -32.5t11.5 -39t13 -35t16 -37.5t13 -30z" />
<glyph unicode="W" horiz-adv-x="1933" d="M1358 328l250 710q49 144 49 185q0 55 -37.5 75.5t-112.5 20.5v37h406v-37q-45 0 -78 -16t-54.5 -48t-34 -61.5t-28.5 -76.5q-1 -4 -2 -6.5t-2 -6t-2 -6.5l-389 -1129h-39l-307 860h-4l-301 -860h-41l-418 1170q-16 47 -25.5 69.5t-24.5 48.5t-32 36.5t-43 18t-63 7.5v37 h501v-37q-63 0 -98 -18.5t-35 -67.5q0 -12 4 -29t7.5 -29t10.5 -33t9 -26l276 -788h5l225 633l-56 151q-14 38 -18 48.5t-18 41.5t-22 41t-24.5 29.5t-33 26.5t-40.5 13.5t-52 6.5v37h530v-37q-76 0 -110.5 -16.5t-34.5 -75.5q0 -53 53 -199l250 -700h4z" />
<glyph unicode="X" horiz-adv-x="1478" d="M715 596l-266 -344q0 -1 -12.5 -15.5t-16 -19t-14 -18.5t-15 -22t-11 -20t-9 -22.5t-2.5 -19.5q0 -73 131 -78v-37h-482v37q54 5 104.5 27t95.5 60t78 73.5t73 85.5l303 385l-252 368q-84 124 -127 168q-107 114 -248 115v37h627v-37q-23 0 -44 -3t-44.5 -11t-37.5 -25 t-14 -41q0 -14 8 -34t14.5 -31t22.5 -34.5t17 -25.5l194 -291l226 285q1 1 14.5 17.5t18.5 22.5t16 21.5t15.5 25t9 22.5t4.5 24q0 32 -21.5 50t-50.5 23t-74 5v37h481v-37q-123 0 -238 -126q-28 -31 -95 -118l-254 -323l358 -535q24 -35 47 -62.5t40.5 -45.5t39.5 -31 t34.5 -19.5t35 -11.5t31 -6t32.5 -4v-37h-581v37q133 0 133 78q0 15 -4.5 30.5t-16 35.5t-17.5 30t-22.5 32.5t-17.5 24.5z" />
<glyph unicode="Y" horiz-adv-x="1478" d="M795 664l252 397q73 114 73 160q0 98 -137 98v37h473v-37q-90 0 -152 -51.5t-124 -149.5l-344 -543v-315q0 -117 12 -151q16 -50 79 -64q37 -8 101 -8v-37h-577v37q58 0 93.5 8t56.5 19t30 44t10.5 59.5t1.5 89.5v3v297l-420 639q-36 57 -89.5 90t-106.5 33v37h579v-37 q-157 0 -157 -90q0 -9 3 -19.5t9 -23t10 -20t12.5 -21.5t10.5 -17z" />
<glyph unicode="Z" horiz-adv-x="1251" d="M283 82h561q48 0 84.5 6.5t65.5 22.5t49.5 35t40.5 54.5t34.5 69t34.5 88.5h37l-64 -358h-1103v37l868 1237h-408q-85 0 -133.5 -9t-84.5 -37.5t-53.5 -77.5t-29.5 -134h-39l29 340h1004z" />
<glyph unicode="[" horiz-adv-x="681" d="M608 -406h-440v1792h440v-88h-280v-1615h280v-89z" />
<glyph unicode="\" horiz-adv-x="569" d="M80 1421l489 -1450h-80l-489 1450h80z" />
<glyph unicode="]" horiz-adv-x="681" d="M74 1386h440v-1792h-440v89h280v1615h-280v88z" />
<glyph unicode="^" horiz-adv-x="960" d="M500 1384l424 -720h-95l-348 591l-350 -591h-94l426 720h37z" />
<glyph unicode="_" d="M1040 -256h-1056v102h1056v-102z" />
<glyph unicode="`" horiz-adv-x="681" d="M119 1464h223l104 -346h-34z" />
<glyph unicode="a" horiz-adv-x="909" d="M743 696v-440q0 -43 1 -65t5.5 -47t16 -35.5t29.5 -10.5q9 0 20 5t24.5 16.5t21 18t23.5 23t17 17.5v-57q-116 -150 -213 -150q-110 0 -110 150q-18 -13 -52 -40.5t-55 -42.5t-51.5 -33t-62.5 -26t-68 -8q-103 0 -161 67.5t-58 172.5q0 55 27.5 103.5t66 81.5t99 66 t108 52t113 44t94.5 38q0 55 -2 90t-11.5 76.5t-27 65t-49.5 39.5t-78 16q-56 0 -97 -31.5t-41 -89.5q0 -76 -19 -111t-65 -35q-41 0 -62.5 28.5t-21.5 70.5q0 20 8 45.5t31.5 59t58.5 60t98 45.5t142 19q62 0 111.5 -11.5t80 -27.5t53 -41.5t33 -45.5t16.5 -48.5t6.5 -41.5 t0.5 -32zM578 186v351q-146 -58 -198 -89q-144 -83 -144 -194q0 -66 40.5 -117t104.5 -51q76 0 197 100z" />
<glyph unicode="b" d="M315 1421v-663h4q123 186 287 186q61 0 120.5 -27.5t111.5 -79.5t84 -140.5t32 -198.5t-33 -202t-83.5 -150.5t-115 -99.5t-124.5 -58t-113 -17q-171 0 -335 117v1063q0 49 -6.5 80t-19.5 42.5t-22 14t-24 2.5q-30 0 -70 -16l-14 35l276 112h45zM315 694v-549 q43 -45 100 -72.5t115 -27.5q101 0 175.5 106t74.5 289q0 149 -70.5 255t-189.5 106q-106 0 -205 -107z" />
<glyph unicode="c" horiz-adv-x="909" d="M813 362l29 -14q-18 -98 -67 -182t-132 -139.5t-182 -55.5q-172 0 -281.5 139t-109.5 351q0 107 36 199t97 153.5t140 96t165 34.5q64 0 133 -25t121.5 -77.5t52.5 -118.5q0 -39 -25.5 -61.5t-64.5 -22.5q-59 0 -83.5 28.5t-31.5 88.5q-9 118 -135 118q-63 0 -112 -29.5 t-77.5 -78.5t-42.5 -105t-14 -116q0 -69 18 -140t52.5 -134.5t94 -103.5t134.5 -40q103 0 174.5 65t110.5 170z" />
<glyph unicode="d" d="M713 866v285q0 49 -6.5 80t-19.5 42.5t-22 14t-24 2.5q-30 0 -70 -16l-14 35l277 112h45v-1179q0 -40 5 -68t11.5 -41.5t17.5 -21t18 -8.5t19 -1q28 0 70 17l14 -35l-276 -113h-45v131q-63 -65 -127 -98t-146 -33q-87 0 -158.5 40.5t-117 106t-70 145t-24.5 161.5 q0 92 32 184.5t87.5 167t140 121.5t180.5 47q128 0 203 -78zM713 174v447q0 101 -57.5 181.5t-155.5 80.5q-25 0 -54 -9t-63.5 -36t-62 -67.5t-46 -112t-18.5 -162.5q0 -184 81 -299t200 -115q91 0 176 92z" />
<glyph unicode="e" horiz-adv-x="909" d="M844 569h-635q0 -79 21 -154.5t60 -139t104 -102t145 -38.5q197 0 274 219l31 -20q-18 -97 -65.5 -177.5t-129 -133t-180.5 -52.5q-170 0 -284.5 131.5t-114.5 339.5q0 101 26 190t76.5 159.5t133 111.5t188.5 41q157 0 253.5 -104t96.5 -271zM211 631h424q0 103 -53 171 t-156 68q-87 0 -148 -72.5t-67 -166.5z" />
<glyph unicode="f" horiz-adv-x="681" d="M422 842v-574q0 -77 2.5 -108.5t18.5 -66.5t51 -45.5t98 -10.5v-37h-510v37q44 0 73.5 4.5t49 19.5t30 28t15 46.5t5.5 56.5t1 76v574h-178v73h178v84q0 183 101.5 302.5t283.5 119.5q48 0 104 -19.5t100 -60.5t44 -90q0 -30 -26 -56t-56 -26t-54 18.5t-41.5 44.5 t-36 52.5t-48 45t-68.5 18.5q-28 0 -50.5 -10t-36.5 -24t-24 -38.5t-15 -44t-7.5 -52t-3 -50t-0.5 -48.5v-166h235v-73h-235z" />
<glyph unicode="g" d="M723 879h221q27 0 35 -8.5t8 -34.5q0 -27 -8 -36t-35 -9h-141q23 -31 36 -85.5t13 -99.5q0 -126 -95.5 -218.5t-271.5 -92.5q-59 0 -131 20q-75 -61 -75 -116q0 -20 11.5 -31t50.5 -19.5t109 -11.5t191 -4q175 -1 252.5 -58t77.5 -173q0 -49 -34 -107t-95 -111.5 t-162 -89.5t-219 -36q-57 0 -123 11.5t-131 33t-107.5 61t-42.5 88.5q0 67 136 209l51 53q-101 42 -101 103q0 18 5 36t17.5 37t21.5 32t29.5 33t28.5 27.5t32.5 28.5t27.5 23q-82 36 -128 110.5t-46 165.5q0 55 21 110.5t63 107t117 84t170 32.5q134 0 221 -65zM475 895 q-26 0 -51.5 -9.5t-54 -33.5t-46.5 -75t-18 -122q0 -53 9.5 -103t31 -99t63 -79t97.5 -30q41 0 72.5 14t49 39.5t29 50t15.5 57t5 47.5t1 34q0 51 -10.5 101.5t-32 99t-63.5 78.5t-97 30zM293 0q-29 -37 -41.5 -54t-29.5 -54t-17 -68q0 -63 95 -104.5t241 -41.5 q175 0 265.5 60.5t90.5 138.5q0 24 -11.5 42t-34.5 28.5t-45 17t-57 9t-54.5 3t-53.5 0.5q-74 0 -186 5.5t-162 17.5z" />
<glyph unicode="h" d="M874 635v-461q0 -45 8.5 -72t28 -41t43 -18.5t62.5 -5.5v-37h-449v37q39 1 62.5 5.5t43 18.5t28 41t8.5 72v424q0 72 -13.5 120t-37.5 68.5t-45.5 27.5t-49.5 7q-64 0 -116.5 -33.5t-114.5 -97.5v-516q0 -45 8 -72t28 -41t43 -18.5t62 -5.5v-37h-448v37q39 1 62 5.5 t43 18.5t28 41t8 72v977q0 49 -6.5 80t-19.5 42.5t-22 14t-24 2.5q-29 0 -69 -16l-15 35l277 112h45v-669q94 103 161 147.5t150 44.5q79 0 133 -46.5t76 -113.5t22 -149z" />
<glyph unicode="i" horiz-adv-x="569" d="M377 944v-770q0 -45 8 -72t28 -41t43 -18.5t62 -5.5v-37h-448v37q39 1 62 5.5t43 18.5t28 41t8 72v500q0 49 -6.5 80t-19.5 42.5t-22 14t-24 2.5q-29 0 -69 -16l-15 34l277 113h45zM193 1321q0 41 29.5 70.5t70.5 29.5t70.5 -29.5t29.5 -70.5t-29.5 -70.5t-70.5 -29.5 t-70.5 29.5t-29.5 70.5z" />
<glyph unicode="j" horiz-adv-x="569" d="M377 944v-930q0 -122 -28.5 -212.5t-80 -142.5t-115 -76.5t-141.5 -24.5q-24 0 -51.5 5t-56.5 16t-47.5 31.5t-18.5 47.5q0 35 23.5 60.5t58.5 25.5q37 0 72.5 -26.5t67.5 -53t61 -26.5q14 0 27.5 7t28.5 23.5t24.5 53t9.5 88.5v864q0 49 -6.5 80t-19.5 42.5t-22 14 t-24 2.5q-29 0 -69 -16l-15 34l277 113h45zM193 1321q0 41 29.5 70.5t70.5 29.5t70.5 -29.5t29.5 -70.5t-29.5 -70.5t-70.5 -29.5t-70.5 29.5t-29.5 70.5z" />
<glyph unicode="k" d="M627 137l-293 373l262 238q1 1 9.5 8.5t12.5 11t12 11.5t12.5 14t9.5 13.5t7.5 14.5t2.5 13q0 45 -74 45v36h401v-36q-66 0 -112 -13t-78.5 -35.5t-85.5 -70.5l-215 -199l278 -350q42 -52 73 -85t52.5 -51.5t46 -26.5t40 -9.5t48.5 -1.5v-37h-444v37q63 0 63 39 q0 29 -28 61zM332 1421v-1247q0 -45 8 -72t28 -41t43 -18.5t62 -5.5v-37h-448v37q39 1 62 5.5t43 18.5t28 41t8 72v977q0 49 -6.5 80t-19.5 42.5t-22 14t-24 2.5q-29 0 -69 -16l-15 35l277 112h45z" />
<glyph unicode="l" horiz-adv-x="569" d="M377 1421v-1247q0 -45 8 -72t28 -41t43 -18.5t62 -5.5v-37h-448v37q39 1 62 5.5t43 18.5t28 41t8 72v977q0 49 -6.5 80t-19.5 42.5t-22 14t-24 2.5q-29 0 -69 -16l-15 35l277 112h45z" />
<glyph unicode="m" horiz-adv-x="1593" d="M332 944v-194q3 3 26.5 27t28.5 29t26.5 26t29.5 26.5t28.5 22t32.5 22t32.5 16.5t36.5 14.5t36.5 7t41.5 3.5q87 0 153.5 -56.5t76.5 -142.5q42 49 69 77t68 60.5t85.5 47t96.5 14.5q63 0 111.5 -26t76 -71t41 -98.5t13.5 -113.5v-461q0 -45 8 -72t28 -41t43 -18.5 t62 -5.5v-37h-448v37q39 1 62 5.5t43 18.5t28 41t8 72v406q0 43 -1.5 70t-10 63.5t-23.5 57t-45 35.5t-72 15q-66 0 -119.5 -31.5t-117.5 -91.5v-524q0 -45 8 -72t28 -41t43 -18.5t62 -5.5v-37h-448v37q39 1 62 5.5t43 18.5t28 41t8 72v406q0 43 -1.5 70t-10 63.5t-23.5 57 t-45 35.5t-72 15q-66 0 -119.5 -31.5t-117.5 -91.5v-524q0 -45 8 -72t28 -41t43 -18.5t62 -5.5v-37h-448v37q39 1 62 5.5t43 18.5t28 41t8 72v500q0 49 -6.5 80t-19.5 42.5t-22 14t-24 2.5q-29 0 -69 -16l-15 34l277 113h45z" />
<glyph unicode="n" d="M332 944v-192q94 103 161 147.5t150 44.5q79 0 133 -46.5t76 -113.5t22 -149v-461q0 -45 8.5 -72t28 -41t43 -18.5t62.5 -5.5v-37h-449v37q39 1 62.5 5.5t43 18.5t28 41t8.5 72v424q0 72 -13.5 120t-37.5 68.5t-45.5 27.5t-49.5 7q-64 0 -116.5 -33.5t-114.5 -97.5v-516 q0 -45 8 -72t28 -41t43 -18.5t62 -5.5v-37h-448v37q39 1 62 5.5t43 18.5t28 41t8 72v500q0 49 -6.5 80t-19.5 42.5t-22 14t-24 2.5q-29 0 -69 -16l-15 34l277 113h45z" />
<glyph unicode="o" d="M514 944q125 0 226.5 -64t157.5 -170.5t56 -230.5q0 -66 -15.5 -134t-51.5 -136t-87 -120.5t-129 -85t-171 -32.5q-95 0 -176.5 40t-136.5 106.5t-86 153t-31 178.5q0 127 54 239.5t157.5 184t232.5 71.5zM479 874q-41 0 -77.5 -16.5t-70.5 -53t-54.5 -105t-20.5 -162.5 q0 -58 8 -120t29.5 -130.5t53 -122t83.5 -88.5t117 -35q53 0 94 23.5t64.5 59t38 84.5t19.5 93t5 92q0 58 -8 118.5t-29 127t-52 117.5t-83 84.5t-117 33.5z" />
<glyph unicode="p" d="M150 -262v936q0 49 -6.5 80t-19.5 42.5t-22 14t-24 2.5q-30 0 -70 -16l-14 34l276 113h45v-211h4q122 211 287 211q69 0 127 -27t97.5 -71.5t67 -103.5t40 -121.5t12.5 -126.5q0 -78 -16 -152t-50.5 -141.5t-83.5 -118.5t-119 -81t-153 -30q-134 0 -213 82v-315 q0 -46 7 -72.5t27.5 -41t47 -18.5t76.5 -5v-37h-481v37q50 1 76.5 5t47 18.5t27.5 41t7 72.5zM315 666v-381q0 -70 11 -114t51 -81q57 -57 155 -57q55 0 98.5 24t70 61.5t44 88t24.5 98.5t7 98q0 47 -7.5 98t-26 105.5t-46 97t-72 70t-98.5 27.5q-34 0 -63.5 -10.5 t-57.5 -33.5t-45 -40.5t-45 -50.5z" />
<glyph unicode="q" d="M879 944v-1206q0 -46 7 -72.5t27 -41t46.5 -18.5t76.5 -5v-37h-481v37q50 1 76.5 5t47 18.5t27.5 41t7 72.5v420q-34 -40 -62 -68t-66 -58t-81 -45.5t-88 -15.5q-82 0 -150 40.5t-109.5 105t-64 141.5t-22.5 154q0 106 32.5 202t92 169.5t150.5 117t200 43.5t188 -67 l111 67h35zM713 221v406q0 51 -2 76t-16 59.5t-44 60.5q-58 47 -143 47q-24 0 -50.5 -5.5t-67 -28.5t-71 -61.5t-53 -114.5t-22.5 -177q0 -86 18.5 -153.5t46.5 -106.5t65.5 -64.5t71 -34.5t66.5 -9q122 0 201 106z" />
<glyph unicode="r" horiz-adv-x="681" d="M332 944v-196h4q23 38 41 63.5t49 60.5t67 53.5t74 18.5q49 0 89 -32t40 -81q0 -36 -26 -64t-62 -28t-80.5 34t-64.5 34q-31 0 -70.5 -54t-60.5 -100v-385q0 -77 2.5 -108.5t18.5 -66.5t51 -45.5t98 -10.5v-37h-477v37q39 1 62 5.5t43 18.5t28 41t8 72v500q0 49 -6.5 80 t-19.5 42.5t-22 14t-24 2.5q-29 0 -69 -16l-15 34l277 113h45z" />
<glyph unicode="s" horiz-adv-x="796" d="M662 944v-313h-37q-13 57 -29.5 98t-44.5 78.5t-71 56.5t-101 19q-61 0 -108.5 -33t-47.5 -92q0 -45 28 -81.5t72.5 -62.5t98.5 -51t108 -53.5t98.5 -62t72.5 -85.5t28 -116q0 -121 -95 -198t-218 -77q-71 0 -185 31q-30 10 -51 10q-30 0 -37 -26h-37v327h37 q14 -113 92 -196.5t189 -83.5q66 0 112 37t46 102q0 48 -26.5 87t-68.5 66t-93 51.5t-102 51t-93 58t-68.5 78.5t-26.5 106q0 124 80 199t205 75q42 0 117 -22q7 -2 23.5 -7t29 -7.5t23.5 -2.5q19 0 27.5 9.5t15.5 29.5h37z" />
<glyph unicode="t" horiz-adv-x="569" d="M326 915h215v-73h-215v-563q0 -34 0.5 -51.5t5.5 -46t14.5 -42.5t28.5 -25.5t47 -11.5q33 0 64 24.5t42 57.5h41q-31 -82 -92.5 -139t-142.5 -57q-28 0 -55.5 10t-55.5 33t-45.5 68.5t-17.5 107.5v635h-144v41q87 36 155 116t124 218h31v-302z" />
<glyph unicode="u" d="M868 915v-673q0 -40 5 -68t11.5 -41.5t18 -21t18.5 -8.5t19 -1q28 0 70 17l14 -35l-276 -113h-46v195q-47 -51 -70 -74t-66 -57.5t-85 -49t-90 -14.5q-111 0 -172 83.5t-61 217.5v447q0 51 -4.5 78t-20.5 47t-45 26.5t-82 8.5v36h318v-636q0 -88 38.5 -136.5t114.5 -48.5 q99 0 225 131v494q0 51 -4 77.5t-20 47t-45 27t-82 8.5v36h317z" />
<glyph unicode="v" d="M573 219l205 502q33 74 33 104q0 24 -15 36.5t-34 15t-55 2.5v36h299v-36q-30 0 -53 -11t-40.5 -35t-27.5 -43t-25 -55l-315 -764h-41l-316 752q-18 43 -28.5 62.5t-29.5 43t-45.5 34.5t-66.5 16v36h431v-36q-57 0 -83 -14t-26 -60q0 -12 3.5 -27.5t7 -24.5t11 -27.5 t9.5 -23.5z" />
<glyph unicode="w" horiz-adv-x="1478" d="M1057 236l184 483q29 78 29 104q0 56 -96 56v36h288v-36q-27 -2 -49 -14.5t-38.5 -35t-26.5 -41.5t-23 -49l-295 -768h-43l-227 586l-268 -586h-37l-285 746q-32 82 -49 105q-33 45 -105 57v36h383v-36q-86 0 -86 -64q0 -29 27 -94l188 -506l195 428l-41 111 q-14 35 -24 54t-27 37.5t-42.5 26t-62.5 7.5v36h437v-36q-121 0 -121 -76q0 -20 16 -66z" />
<glyph unicode="x" d="M416 463l-158 231q-69 101 -98 129q-57 56 -133 56v36h432v-36q-76 0 -76 -52q0 -23 98 -170l35 -57l39 53q2 3 15.5 21t23 30.5t24 33.5t23.5 36t16 30.5t7 24.5q0 27 -21.5 38.5t-50.5 11.5v36h309v-36q-31 0 -58 -11t-55.5 -39t-47.5 -50.5t-54 -69.5l-129 -172 l215 -308q87 -126 124.5 -159t102.5 -33v-37h-432v37q88 0 88 47q0 8 -3 18.5t-8.5 22.5t-11 22.5t-14.5 24l-14 21t-14.5 20.5t-11.5 16l-121 177l-131 -177q0 -1 -11.5 -15t-16 -19.5t-15 -19.5t-15.5 -22.5t-11.5 -21t-9.5 -22.5t-3 -19q0 -27 29 -40t61 -13v-37h-299v37 q22 1 45.5 14t49 40.5t39.5 44t41 53.5t30 40z" />
<glyph unicode="y" d="M504 37l-320 668q-16 35 -29.5 59t-35 51.5t-48.5 43.5t-59 20v36h426v-36q-55 0 -82.5 -14.5t-27.5 -59.5q0 -12 5.5 -31t10.5 -31t15 -35.5t12 -27.5l213 -438l194 481q27 71 27 104q0 32 -22 42t-70 10v36h299v-36q-78 0 -123 -107l-391 -958q-28 -70 -69.5 -122.5 t-84.5 -80t-80 -40.5t-67 -13q-55 0 -96.5 30.5t-41.5 83.5q0 43 30.5 66.5t74.5 23.5q38 0 80 -18t55 -18q35 0 67.5 32.5t45 57.5t32.5 73q4 8 5 11z" />
<glyph unicode="z" horiz-adv-x="909" d="M858 281l-12 -281h-809v37l608 809h-274q-137 0 -178 -27t-54 -157h-37v253h770v-36l-612 -809h309q54 0 82 1.5t60 8.5t46.5 19.5t29.5 36.5t22 58.5t12 86.5h37z" />
<glyph unicode="{" horiz-adv-x="983" d="M213 467v45q95 11 160 66.5t65 148.5q0 62 -18 154q-25 110 -25 157q0 96 52 184.5t139.5 143t183.5 55.5v-37q-98 -9 -166.5 -80.5t-68.5 -168.5q0 -76 20 -158q23 -117 23 -148q0 -123 -79 -212.5t-204 -124.5v-5q125 -35 204 -124.5t79 -212.5q0 -33 -23 -146 q-20 -85 -20 -160q0 -97 68.5 -169t166.5 -81v-36q-96 1 -183.5 55.5t-139.5 143t-52 184.5q0 47 25 157q18 92 18 154q0 93 -65 148.5t-160 66.5z" />
<glyph unicode="|" horiz-adv-x="409" d="M246 1421v-1863h-82v1863h82z" />
<glyph unicode="}" horiz-adv-x="983" d="M770 512v-45q-95 -11 -160 -66.5t-65 -148.5q0 -62 18 -154q25 -110 25 -157q0 -96 -52 -184.5t-139.5 -143t-183.5 -55.5v36q98 9 167 81t69 169q0 72 -21 158q-22 112 -22 148q0 123 78.5 212.5t203.5 124.5v5q-125 35 -203.5 124.5t-78.5 212.5q0 38 22 146 q21 89 21 160q0 97 -69 168.5t-167 80.5v37q96 -1 183.5 -55.5t139.5 -143t52 -184.5q0 -47 -25 -157q-18 -92 -18 -154q0 -93 65 -148.5t160 -66.5z" />
<glyph unicode="~" horiz-adv-x="1107" d="M1016 842h47q-1 -83 -34.5 -156t-99 -120.5t-149.5 -47.5q-42 0 -91.5 15.5t-83.5 32t-87 46.5q-63 35 -87.5 48t-71 30t-80.5 17q-80 0 -128.5 -54t-56.5 -135h-47q1 83 34.5 156t99 120.5t149.5 47.5q42 0 91.5 -15.5t83.5 -32t87 -46.5q63 -35 87.5 -48t71 -30 t80.5 -17q80 0 128.5 54t56.5 135z" />
<glyph unicode="&#xa1;" horiz-adv-x="681" d="M322 586h40q11 -109 36.5 -335.5t42 -377t16.5 -172.5q0 -58 -29.5 -100.5t-85.5 -42.5t-85.5 42.5t-29.5 100.5q0 22 16.5 172.5t42 377t36.5 335.5zM342 752q-46 0 -78.5 32t-32.5 78t32.5 78.5t78.5 32.5t78.5 -32.5t32.5 -78.5t-32.5 -78t-78.5 -32z" />
<glyph unicode="&#xa2;" d="M375 252l221 612q-20 10 -61 10q-63 0 -112 -29.5t-77.5 -78.5t-42.5 -105t-14 -116q0 -75 22 -154t64 -139zM651 819l-227 -624q68 -68 164 -68q103 0 174 65t110 170l29 -14q-18 -98 -67 -182t-132 -139.5t-182 -55.5q-91 0 -162 41l-143 -391h-70l156 428 q-80 62 -126 170t-46 242q0 107 36 199t97 153.5t140 96t165 34.5q26 0 56 -6l139 387h74l-148 -403q79 -25 132.5 -77.5t53.5 -121.5q0 -39 -25.5 -61.5t-64.5 -22.5q-40 0 -66 18.5t-36 45t-15 53t-7.5 45t-8.5 18.5z" />
<glyph unicode="&#xa3;" d="M723 659h-254v-69q0 -177 -66 -357q25 -7 97.5 -32.5t123.5 -37t101 -11.5q172 0 217 159l35 -8q-7 -63 -28.5 -120.5t-56.5 -106t-89.5 -77t-120.5 -28.5q-36 0 -70.5 9t-70 29.5t-58 36t-62.5 46.5t-56 43q-30 -66 -77.5 -115t-107.5 -49q-56 0 -89.5 37t-33.5 94 q0 71 49.5 115.5t122.5 44.5q15 0 43 -3.5t37 -4.5q0 10 2 39t2 45q0 116 -18 321h-197v95h189q-11 162 -11 180q0 89 23 168.5t68 143.5t119 102t167 38q59 0 108 -20.5t78.5 -52t45.5 -66t16 -65.5q0 -30 -23 -57t-53 -27q-39 0 -58 28t-22 91q-3 52 -33.5 80t-84.5 28 q-47 0 -81.5 -18t-54 -45t-31 -67t-15 -76t-3.5 -79q0 -42 2.5 -83.5t5 -67t8 -70t7.5 -65.5h258v-95zM299 172q-44 29 -86 29q-40 0 -67 -23t-27 -63q0 -33 16 -57.5t47 -24.5q46 0 76 43t41 96z" />
<glyph unicode="&#xa4;" d="M152 678q0 -149 105.5 -255t254.5 -106t254.5 106t105.5 255t-105.5 254.5t-254.5 105.5t-254.5 -105.5t-105.5 -254.5zM231 340l-147 -147l-57 57l147 147q-104 117 -104 281q0 161 104 280l-147 148l57 57l147 -147q117 104 281 104q161 0 281 -104l147 147l57 -57 l-147 -148q104 -120 104 -280q0 -161 -104 -281l147 -147l-57 -57l-147 147q-120 -104 -281 -104q-164 0 -281 104z" />
<glyph unicode="&#xa5;" d="M594 584v-369q0 -29 0.5 -42.5t2.5 -35t6.5 -31t12.5 -23.5t21 -20t31.5 -13t43.5 -9t58 -2v-39h-518v39q33 0 58 2t43.5 9t31.5 13t21 20t12.5 23.5t6.5 31t2.5 35t0.5 42.5v348l-57 129h-369v74h338l-88 203h-250v73h219l-45 109q-38 92 -71.5 130t-102.5 38v37h442 v-37q-17 0 -36 -3t-39.5 -10t-33.5 -20.5t-13 -32.5q0 -7 5.5 -22t13.5 -34.5t9 -22.5l53 -132h308l47 117q30 75 30 98q0 33 -32.5 47.5t-79.5 14.5v37h346v-37q-21 0 -38.5 -4t-30.5 -9t-26.5 -19t-21.5 -22.5t-20.5 -32t-18.5 -35.5t-20.5 -44.5t-22.5 -48.5l-28 -62h227 v-73h-254l-92 -203h346v-74h-381zM676 969h-242l121 -291z" />
<glyph unicode="&#xa6;" horiz-adv-x="409" d="M246 180v-622h-82v622h82zM246 1421v-620h-82v620h82z" />
<glyph unicode="&#xa7;" d="M377 848q-125 129 -125 252t82.5 204.5t204.5 81.5q101 0 176.5 -62.5t75.5 -160.5q0 -33 -22.5 -59.5t-55.5 -26.5t-56.5 22.5t-23.5 55.5q0 15 7 46.5t7 49.5q0 44 -32 69.5t-76 25.5q-72 0 -128.5 -50t-56.5 -120q0 -53 28.5 -102.5t73.5 -90.5t100 -82.5t110 -85.5 t100 -92t73.5 -110.5t28.5 -131.5q0 -100 -63.5 -193t-157.5 -145q58 -62 90.5 -120t32.5 -127q0 -125 -80.5 -209t-204.5 -84q-97 0 -173 65t-76 162q0 34 22 60t55 26q36 0 55 -25.5t19 -62.5q0 -20 -8 -55.5t-8 -51.5q0 -37 40.5 -57t82.5 -20q64 0 119 50.5t55 112.5 q0 52 -28 102t-73.5 92t-100 85t-109 89t-100 94t-73.5 109.5t-28 127.5q0 106 61 195.5t160 146.5zM410 817q-152 -87 -152 -225q0 -52 25 -102t68 -93t86 -78.5t96 -77t81 -69.5q64 35 108 92.5t44 122.5q0 68 -40.5 133.5t-90 107t-121 99t-104.5 90.5z" />
<glyph unicode="&#xa8;" horiz-adv-x="681" d="M166 1120q-46 0 -78.5 32.5t-32.5 78.5t32.5 78t78.5 32t78 -32t32 -78t-32 -78.5t-78 -32.5zM516 1120q-46 0 -78 32.5t-32 78.5t32 78t78 32t78.5 -32t32.5 -78t-32.5 -78.5t-78.5 -32.5z" />
<glyph unicode="&#xa9;" horiz-adv-x="1556" d="M1128 1135l21 -281h-39q-28 108 -108.5 172t-190.5 64t-185.5 -56t-108 -141.5t-32.5 -192.5q0 -68 10.5 -126.5t35.5 -111.5t62.5 -91t95 -60t130.5 -22q92 0 175.5 42.5t133.5 119.5l39 -21q-67 -100 -166.5 -151.5t-222.5 -51.5q-121 0 -226 56t-169 157.5t-64 225.5 q0 138 68.5 246t182.5 165.5t251 57.5q35 0 67.5 -5.5t50.5 -11t65 -20.5q24 -8 36 -8q20 0 30.5 11.5t19.5 33.5h38zM1487 678q0 -115 -36 -223.5t-101.5 -195.5t-152.5 -152.5t-195.5 -101.5t-223.5 -36q-144 0 -275 56t-226 151t-151 226.5t-56 275.5t56 275t151 226 t226 151t275 56t275.5 -56t226.5 -151t151 -226t56 -275zM1425 678q0 176 -86.5 325t-235.5 235.5t-325 86.5q-175 0 -324 -86.5t-236 -235.5t-87 -325t87 -325t236 -235.5t324 -86.5q176 0 325 86.5t235.5 235.5t86.5 325z" />
<glyph unicode="&#xaa;" horiz-adv-x="565" d="M485 1196v-276q0 -46 29 -46q12 0 55 31v-47q-37 -27 -52 -37t-43.5 -22.5t-53.5 -12.5q-61 0 -74 93q-122 -93 -213 -93q-52 0 -91.5 37t-39.5 90q0 48 33.5 91.5t92.5 77.5t107.5 55t110.5 43q1 30 0 49.5t-6.5 44t-16.5 38.5t-32 24t-51 10q-48 0 -68 -20t-20 -60 q0 -34 -15 -59t-47 -25q-26 0 -43.5 17t-17.5 42q0 41 22 70.5t59 44.5t75.5 21.5t80.5 6.5q70 0 116.5 -16.5t67.5 -47t28 -59t7 -65.5zM346 926v207q-79 -24 -142 -69.5t-63 -105.5q0 -36 26 -61t62 -25q20 0 39 8t44 24.5t34 21.5z" />
<glyph unicode="&#xab;" d="M512 -8h-61l-388 471l388 471h61l-248 -471zM961 -8h-62l-387 471l387 471h62l-248 -471z" />
<glyph unicode="&#xac;" horiz-adv-x="1155" d="M41 883h1075v-406h-82v324h-993v82z" />
<glyph unicode="&#xad;" horiz-adv-x="681" d="M82 539h518v-158h-518v158z" />
<glyph unicode="&#xae;" horiz-adv-x="1556" d="M506 451v477q0 39 -0.5 56.5t-5.5 41t-14.5 33t-27.5 17t-46 7.5v37h362q92 0 162.5 -21t117 -72t46.5 -128q0 -169 -226 -225l195 -277q47 -68 70.5 -87t72.5 -19v-37h-192l-295 403h-76v-292q0 -21 8 -36t17.5 -22t28.5 -11t31 -4.5t34 -0.5v-37h-367v37q26 0 44 3 t29.5 13t18 19.5t9.5 32t3.5 39.5t0.5 53zM649 702h19q50 0 92.5 7.5t84 26t65.5 56.5t24 91q0 84 -57 138t-142 54q-45 0 -86 -14v-359zM1487 678q0 -115 -36 -223.5t-101.5 -195.5t-152.5 -152.5t-195.5 -101.5t-223.5 -36q-144 0 -275 56t-226 151t-151 226.5t-56 275.5 t56 275t151 226t226 151t275 56t275.5 -56t226.5 -151t151 -226t56 -275zM1425 678q0 176 -86.5 325t-235.5 235.5t-325 86.5q-175 0 -324 -86.5t-236 -235.5t-87 -325t87 -325t236 -235.5t324 -86.5q176 0 325 86.5t235.5 235.5t86.5 325z" />
<glyph unicode="&#xaf;" horiz-adv-x="681" d="M23 1294h636v-129h-636v129z" />
<glyph unicode="&#xb0;" horiz-adv-x="819" d="M719 1081q0 -127 -89 -218t-216 -91q-132 0 -224 90.5t-92 220.5q0 125 92 213t218 88t218.5 -88.5t92.5 -214.5zM631 1081q0 92 -66 157t-159 65q-90 0 -155 -65t-65 -155q0 -96 65.5 -162.5t160.5 -66.5q92 0 155.5 67.5t63.5 159.5z" />
<glyph unicode="&#xb1;" horiz-adv-x="1155" d="M41 141v82h496v416h-496v82h496v498h81v-498h498v-82h-498v-416h498v-82h-1075z" />
<glyph unicode="&#xb2;" horiz-adv-x="614" d="M571 815l-59 -151h-494v36q152 119 213 178q164 157 164 271q0 60 -41.5 100.5t-103.5 40.5q-60 0 -104 -29t-62 -85h-45q15 100 79 154t165 54q88 0 162.5 -51.5t74.5 -136.5q0 -26 -7 -53.5t-23.5 -56t-32 -53t-43 -54.5t-46 -50t-52 -50t-49 -43.5t-49.5 -42 t-42 -35.5h211q108 0 141 57h43z" />
<glyph unicode="&#xb3;" horiz-adv-x="614" d="M90 1212l-37 17q31 73 90.5 114t139.5 41q75 0 137.5 -39t62.5 -110q0 -78 -106 -154q65 -23 104 -69.5t39 -112.5q0 -64 -29.5 -113.5t-78 -78.5t-105.5 -43.5t-117 -14.5q-18 0 -39 2t-48 8t-44.5 20t-17.5 34t18.5 31.5t40.5 11.5q23 0 80 -23.5t94 -23.5q54 0 95 38 t41 91q0 87 -65 127.5t-169 40.5v28q72 3 127 45t55 111q0 53 -33.5 81.5t-88.5 28.5q-42 0 -81 -24.5t-65 -63.5z" />
<glyph unicode="&#xb4;" horiz-adv-x="681" d="M340 1464h223l-293 -346h-34z" />
<glyph unicode="&#xb5;" d="M119 915h166v-559q0 -31 0.5 -48t3 -48.5t7.5 -51t15.5 -43.5t25.5 -38t38 -23.5t53 -9.5q63 0 125.5 39t108.5 96v686h165v-671q0 -164 68 -164q25 0 44 23t26.5 48.5t9.5 51.5h43q-2 -95 -53 -163.5t-144 -68.5q-148 0 -159 191q-155 -191 -316 -191q-94 0 -149 80h-4 q0 -97 23.5 -221.5t23.5 -161.5q0 -43 -27 -76.5t-68 -33.5q-43 0 -65.5 33t-22.5 77q0 42 15.5 109t31 160.5t15.5 201.5v776z" />
<glyph unicode="&#xb6;" horiz-adv-x="927" d="M805 1300v-1742h-74v1742h-186v-1742h-74v1042q-103 0 -187.5 20.5t-151 64t-103.5 118t-37 174.5q0 181 116 280t330 99h498v-56h-131z" />
<glyph unicode="&#xb7;" horiz-adv-x="512" d="M256 567q-46 0 -78.5 32.5t-32.5 78.5t32.5 78t78.5 32t78.5 -32t32.5 -78t-32.5 -78.5t-78.5 -32.5z" />
<glyph unicode="&#xb8;" horiz-adv-x="681" d="M225 -96l133 71q78 0 124 -37t46 -104q0 -58 -40.5 -103t-95.5 -66t-111 -21q-59 0 -125 16l8 39q56 -18 78 -18q47 0 87 31.5t40 76.5q0 54 -43.5 83t-100.5 32z" />
<glyph unicode="&#xb9;" horiz-adv-x="614" d="M133 1296l205 88h39v-606q0 -57 14.5 -67.5t87.5 -10.5v-36h-329v36q74 0 88 10.5t14 67.5v363q0 52 -1 79.5t-5.5 43.5t-10.5 20t-18 4q-17 0 -67 -20z" />
<glyph unicode="&#xba;" horiz-adv-x="634" d="M608 1090q0 -118 -88 -211t-205 -93q-125 0 -206.5 81.5t-81.5 205.5q0 135 83 223t218 88q122 0 201 -85t79 -209zM469 1026q0 43 -9.5 92.5t-29 100t-56.5 83.5t-85 33q-35 0 -60.5 -18t-38 -48t-18.5 -61t-6 -63q0 -39 9 -88t27 -100.5t52 -86t78 -34.5q137 0 137 190 z" />
<glyph unicode="&#xbb;" d="M512 934h61l388 -471l-388 -471h-61l248 471zM63 934h62l387 -471l-387 -471h-62l248 471z" />
<glyph unicode="&#xbc;" horiz-adv-x="1536" d="M1509 262v-82h-108v-180h-125v180h-342v74l375 465h92v-457h108zM1276 262v316l-4 -5l-256 -311h260zM133 1296l205 88h39v-606q0 -57 14.5 -67.5t87.5 -10.5v-36h-329v36q74 0 88 10.5t14 67.5v363q0 52 -1 79.5t-5.5 43.5t-10.5 20t-18 4q-17 0 -67 -20zM1292 1384 l-936 -1437h-88l934 1437h90z" />
<glyph unicode="&#xbd;" horiz-adv-x="1536" d="M133 1296l205 88h39v-606q0 -57 14.5 -67.5t87.5 -10.5v-36h-329v36q74 0 88 10.5t14 67.5v363q0 52 -1 79.5t-5.5 43.5t-10.5 20t-18 4q-17 0 -67 -20zM1268 1384l-934 -1437h-90l936 1437h88zM1495 152l-59 -152h-494v37q7 6 23 18q56 44 89 70.5t90 79t90 93t59 92 t26 95.5q0 60 -42 101t-103 41q-60 0 -104 -29.5t-62 -85.5h-45q15 101 79 155t164 54q88 0 163 -52t75 -137q0 -26 -7 -53.5t-23.5 -56t-32 -53t-43 -54.5t-46 -50t-52 -50t-49 -43.5t-49.5 -42t-42 -35.5h211q107 0 141 58h43z" />
<glyph unicode="&#xbe;" horiz-adv-x="1536" d="M90 1212l-37 17q31 73 90.5 114t139.5 41q75 0 137.5 -39t62.5 -110q0 -78 -106 -154q65 -23 104 -69.5t39 -112.5q0 -64 -29.5 -113.5t-78 -78.5t-105.5 -43.5t-117 -14.5q-18 0 -39 2t-48 8t-44.5 20t-17.5 34t18.5 31.5t40.5 11.5q23 0 80 -23.5t94 -23.5q54 0 95 38 t41 91q0 87 -65 127.5t-169 40.5v28q72 3 127 45t55 111q0 53 -33.5 81.5t-88.5 28.5q-42 0 -81 -24.5t-65 -63.5zM1280 1384l-934 -1437h-90l934 1437h90zM1509 262v-82h-108v-180h-125v180h-342v74l375 465h92v-457h108zM1276 262v316l-4 -5l-256 -311h260z" />
<glyph unicode="&#xbf;" horiz-adv-x="909" d="M461 625h41q0 -90 -23.5 -175.5t-57.5 -152t-68 -129.5t-57.5 -134t-23.5 -140q0 -113 60.5 -197t169.5 -84q41 0 82.5 12.5t74.5 43t33 73.5q0 37 -30.5 91t-30.5 81q0 35 23 60.5t57 25.5q52 0 81 -49t29 -105q0 -50 -20.5 -98.5t-61.5 -92t-114.5 -70.5t-169.5 -27 q-90 0 -160 25.5t-108 62t-62.5 83t-31.5 81.5t-7 65q0 61 20.5 118t54 104t73.5 93t79.5 94t73 97.5t54 112.5t20.5 131zM477 752q-46 0 -78 32t-32 78t32 78.5t78 32.5t78.5 -32.5t32.5 -78.5t-32.5 -78t-78.5 -32z" />
<glyph unicode="&#xc0;" horiz-adv-x="1478" d="M940 455h-524l-82 -191q-45 -98 -45 -137q0 -22 10 -38t23 -25t37 -15t41 -8t46 -4v-37h-426v37q77 7 120.5 51.5t90.5 155.5l488 1142h37l461 -1105q46 -111 68 -145q60 -93 170 -99h3v-37h-534v37q72 3 105.5 22t33.5 70q0 16 -6 39.5t-11.5 38.5t-17.5 44.5t-14 33.5z M913 528l-231 547l-236 -547h467zM518 1798h223l105 -346h-35z" />
<glyph unicode="&#xc1;" horiz-adv-x="1478" d="M940 455h-524l-82 -191q-45 -98 -45 -137q0 -22 10 -38t23 -25t37 -15t41 -8t46 -4v-37h-426v37q77 7 120.5 51.5t90.5 155.5l488 1142h37l461 -1105q46 -111 68 -145q60 -93 170 -99h3v-37h-534v37q72 3 105.5 22t33.5 70q0 16 -6 39.5t-11.5 38.5t-17.5 44.5t-14 33.5z M913 528l-231 547l-236 -547h467zM739 1798h224l-293 -346h-35z" />
<glyph unicode="&#xc2;" horiz-adv-x="1478" d="M940 455h-524l-82 -191q-45 -98 -45 -137q0 -22 10 -38t23 -25t37 -15t41 -8t46 -4v-37h-426v37q77 7 120.5 51.5t90.5 155.5l488 1142h37l461 -1105q46 -111 68 -145q60 -93 170 -99h3v-37h-534v37q72 3 105.5 22t33.5 70q0 16 -6 39.5t-11.5 38.5t-17.5 44.5t-14 33.5z M913 528l-231 547l-236 -547h467zM647 1772h184l191 -330h-33l-250 211l-250 -211h-32z" />
<glyph unicode="&#xc3;" horiz-adv-x="1478" d="M940 455h-524l-82 -191q-45 -98 -45 -137q0 -22 10 -38t23 -25t37 -15t41 -8t46 -4v-37h-426v37q77 7 120.5 51.5t90.5 155.5l488 1142h37l461 -1105q46 -111 68 -145q60 -93 170 -99h3v-37h-534v37q72 3 105.5 22t33.5 70q0 16 -6 39.5t-11.5 38.5t-17.5 44.5t-14 33.5z M913 528l-231 547l-236 -547h467zM453 1462h-31q-1 68 16 124.5t61.5 97t112.5 40.5q72 0 176 -69q84 -55 116 -65q16 -5 30 -5q76 0 96 139h31q1 -67 -16 -124t-62 -97.5t-113 -40.5q-70 0 -176 70q-3 2 -15.5 10t-16 10.5t-14.5 9.5t-15.5 9.5t-14.5 8t-15 8t-13.5 6 t-14.5 5t-13 2.5t-13 1q-76 0 -96 -140z" />
<glyph unicode="&#xc4;" horiz-adv-x="1478" d="M940 455h-524l-82 -191q-45 -98 -45 -137q0 -22 10 -38t23 -25t37 -15t41 -8t46 -4v-37h-426v37q77 7 120.5 51.5t90.5 155.5l488 1142h37l461 -1105q46 -111 68 -145q60 -93 170 -99h3v-37h-534v37q72 3 105.5 22t33.5 70q0 16 -6 39.5t-11.5 38.5t-17.5 44.5t-14 33.5z M913 528l-231 547l-236 -547h467zM565 1485q-46 0 -78 32t-32 78t32 78.5t78 32.5t78.5 -32.5t32.5 -78.5t-32.5 -78t-78.5 -32zM915 1485q-46 0 -78 32t-32 78t32 78.5t78 32.5t78.5 -32.5t32.5 -78.5t-32.5 -78t-78.5 -32z" />
<glyph unicode="&#xc5;" horiz-adv-x="1478" d="M940 455h-524l-82 -191q-45 -98 -45 -137q0 -22 10 -38t23 -25t37 -15t41 -8t46 -4v-37h-426v37q77 7 120.5 51.5t90.5 155.5l488 1142h37l461 -1105q46 -111 68 -145q60 -93 170 -99h3v-37h-534v37q72 3 105.5 22t33.5 70q0 16 -6 39.5t-11.5 38.5t-17.5 44.5t-14 33.5z M913 528l-231 547l-236 -547h467zM537 1509q0 80 56.5 136.5t135.5 56.5t136 -57t57 -136t-56.5 -135.5t-136.5 -56.5q-79 0 -135.5 56.5t-56.5 135.5zM606 1509q0 -51 36 -87t87 -36t87 36t36 87t-36 87t-87 36t-87 -36t-36 -87z" />
<glyph unicode="&#xc6;" horiz-adv-x="1820" d="M838 524h-394l-112 -211q-26 -44 -54 -103.5t-28 -86.5q0 -26 15 -43.5t44 -26t48 -11.5t49 -5v-37h-426v37q112 0 215 190l423 797q89 160 89 213q0 82 -172 82v37h1114l18 -297h-41q-10 53 -21 88.5t-28.5 61t-35.5 39.5t-51 22t-65 10t-86 2h-309v-537h236 q45 0 73.5 2t57 9t45 20t30.5 35.5t21 54.5t10 78h37v-473h-37q-6 68 -19.5 107.5t-44 60.5t-68 27t-105.5 6h-236v-496q0 -62 22.5 -82t88.5 -20h241q67 0 115.5 14.5t90 51.5t72 80.5t75.5 119.5h39l-115 -340h-1014v37q29 0 52 1t42 6t33 8.5t24.5 14t17.5 17t11.5 24 t7 28t4 35.5t1.5 40.5v48.5v264zM834 1276l-351 -678h355v678h-4z" />
<glyph unicode="&#xc7;" horiz-adv-x="1366" d="M1233 1386l31 -460h-31q-106 389 -455 389q-103 0 -188.5 -40.5t-149.5 -120.5t-99.5 -208t-35.5 -293q0 -131 30.5 -236t80 -171t117 -109.5t136 -61.5t142.5 -18q105 0 187.5 35t140.5 92t125 154l30 -21q-96 -176 -230 -262t-331 -86q-191 0 -342 90.5t-233 245.5 t-82 346q0 149 50.5 283.5t140 233.5t220.5 157.5t283 58.5q144 0 289 -71q42 -21 59 -21q31 0 52 28.5t28 65.5h35zM551 -96l133 71q78 0 124 -37t46 -104q0 -58 -40.5 -103t-96 -66t-111.5 -21q-59 0 -125 16l8 39q56 -18 78 -18q47 0 87 31.5t40 76.5q0 54 -43 83 t-100 32z" />
<glyph unicode="&#xc8;" horiz-adv-x="1251" d="M424 1282v-537h272q45 0 73.5 2t57 9t45 20t31 35.5t21.5 54.5t10 78h37v-473h-37q-6 68 -19.5 107.5t-44 60.5t-68.5 27t-106 6h-272v-496q0 -62 22.5 -82t88.5 -20h278q67 0 115 14.5t89.5 51.5t72 80t75.5 120h39l-114 -340h-1051v37q58 0 93.5 8t56.5 19t30 44 t10.5 59.5t1.5 89.5v3v836q0 117 -12 151q-16 50 -79 64q-38 8 -101 8v37h1040l19 -297h-41q-10 53 -21 88.5t-28.5 61t-35.5 39.5t-51 22t-65 10t-86 2h-346zM403 1798h224l104 -346h-35z" />
<glyph unicode="&#xc9;" horiz-adv-x="1251" d="M424 1282v-537h272q45 0 73.5 2t57 9t45 20t31 35.5t21.5 54.5t10 78h37v-473h-37q-6 68 -19.5 107.5t-44 60.5t-68.5 27t-106 6h-272v-496q0 -62 22.5 -82t88.5 -20h278q67 0 115 14.5t89.5 51.5t72 80t75.5 120h39l-114 -340h-1051v37q58 0 93.5 8t56.5 19t30 44 t10.5 59.5t1.5 89.5v3v836q0 117 -12 151q-16 50 -79 64q-38 8 -101 8v37h1040l19 -297h-41q-10 53 -21 88.5t-28.5 61t-35.5 39.5t-51 22t-65 10t-86 2h-346zM625 1798h223l-293 -346h-35z" />
<glyph unicode="&#xca;" horiz-adv-x="1251" d="M424 1282v-537h272q45 0 73.5 2t57 9t45 20t31 35.5t21.5 54.5t10 78h37v-473h-37q-6 68 -19.5 107.5t-44 60.5t-68.5 27t-106 6h-272v-496q0 -62 22.5 -82t88.5 -20h278q67 0 115 14.5t89.5 51.5t72 80t75.5 120h39l-114 -340h-1051v37q58 0 93.5 8t56.5 19t30 44 t10.5 59.5t1.5 89.5v3v836q0 117 -12 151q-16 50 -79 64q-38 8 -101 8v37h1040l19 -297h-41q-10 53 -21 88.5t-28.5 61t-35.5 39.5t-51 22t-65 10t-86 2h-346zM532 1772h185l190 -330h-33l-249 211l-250 -211h-33z" />
<glyph unicode="&#xcb;" horiz-adv-x="1251" d="M424 1282v-537h272q45 0 73.5 2t57 9t45 20t31 35.5t21.5 54.5t10 78h37v-473h-37q-6 68 -19.5 107.5t-44 60.5t-68.5 27t-106 6h-272v-496q0 -62 22.5 -82t88.5 -20h278q67 0 115 14.5t89.5 51.5t72 80t75.5 120h39l-114 -340h-1051v37q58 0 93.5 8t56.5 19t30 44 t10.5 59.5t1.5 89.5v3v836q0 117 -12 151q-16 50 -79 64q-38 8 -101 8v37h1040l19 -297h-41q-10 53 -21 88.5t-28.5 61t-35.5 39.5t-51 22t-65 10t-86 2h-346zM451 1485q-46 0 -78.5 32t-32.5 78t32.5 78.5t78.5 32.5t78 -32.5t32 -78.5t-32 -78t-78 -32zM801 1485 q-46 0 -78.5 32t-32.5 78t32.5 78.5t78.5 32.5t78 -32.5t32 -78.5t-32 -78t-78 -32z" />
<glyph unicode="&#xcc;" horiz-adv-x="681" d="M436 1096v-836v-48.5t1.5 -40.5t4 -35.5t7 -28t11.5 -24t17.5 -17t24.5 -14t33 -8.5t42 -6t52 -1v-37h-578v37q29 0 52 1t42 6t33 8.5t24.5 14t17.5 17t11.5 24t7 28t4 35.5t1.5 40.5v48.5v836v48.5t-1.5 40.5t-4 35.5t-7 28t-11.5 24t-17.5 17t-24.5 14t-33 8.5t-42 6 t-52 1v37h578v-37q-29 0 -52 -1t-42 -6t-33 -8.5t-24.5 -14t-17.5 -17t-11.5 -24t-7 -28t-4 -35.5t-1.5 -40.5v-48.5zM119 1798h223l104 -346h-34z" />
<glyph unicode="&#xcd;" horiz-adv-x="681" d="M436 1096v-836v-48.5t1.5 -40.5t4 -35.5t7 -28t11.5 -24t17.5 -17t24.5 -14t33 -8.5t42 -6t52 -1v-37h-578v37q29 0 52 1t42 6t33 8.5t24.5 14t17.5 17t11.5 24t7 28t4 35.5t1.5 40.5v48.5v836v48.5t-1.5 40.5t-4 35.5t-7 28t-11.5 24t-17.5 17t-24.5 14t-33 8.5t-42 6 t-52 1v37h578v-37q-29 0 -52 -1t-42 -6t-33 -8.5t-24.5 -14t-17.5 -17t-11.5 -24t-7 -28t-4 -35.5t-1.5 -40.5v-48.5zM340 1798h223l-293 -346h-34z" />
<glyph unicode="&#xce;" horiz-adv-x="681" d="M436 1096v-836v-48.5t1.5 -40.5t4 -35.5t7 -28t11.5 -24t17.5 -17t24.5 -14t33 -8.5t42 -6t52 -1v-37h-578v37q29 0 52 1t42 6t33 8.5t24.5 14t17.5 17t11.5 24t7 28t4 35.5t1.5 40.5v48.5v836v48.5t-1.5 40.5t-4 35.5t-7 28t-11.5 24t-17.5 17t-24.5 14t-33 8.5t-42 6 t-52 1v37h578v-37q-29 0 -52 -1t-42 -6t-33 -8.5t-24.5 -14t-17.5 -17t-11.5 -24t-7 -28t-4 -35.5t-1.5 -40.5v-48.5zM248 1772h184l191 -330h-33l-250 211l-250 -211h-33z" />
<glyph unicode="&#xcf;" horiz-adv-x="681" d="M436 1096v-836v-48.5t1.5 -40.5t4 -35.5t7 -28t11.5 -24t17.5 -17t24.5 -14t33 -8.5t42 -6t52 -1v-37h-578v37q29 0 52 1t42 6t33 8.5t24.5 14t17.5 17t11.5 24t7 28t4 35.5t1.5 40.5v48.5v836v48.5t-1.5 40.5t-4 35.5t-7 28t-11.5 24t-17.5 17t-24.5 14t-33 8.5t-42 6 t-52 1v37h578v-37q-29 0 -52 -1t-42 -6t-33 -8.5t-24.5 -14t-17.5 -17t-11.5 -24t-7 -28t-4 -35.5t-1.5 -40.5v-48.5zM166 1485q-46 0 -78.5 32t-32.5 78t32.5 78.5t78.5 32.5t78 -32.5t32 -78.5t-32 -78t-78 -32zM516 1485q-46 0 -78 32t-32 78t32 78.5t78 32.5t78.5 -32.5 t32.5 -78.5t-32.5 -78t-78.5 -32z" />
<glyph unicode="&#xd0;" horiz-adv-x="1478" d="M231 672h-194v73h194v351q0 117 -12 151q-16 50 -79 64q-38 8 -101 8v37h524q86 0 148 -3t142 -13.5t150 -34.5t127 -62q135 -91 204 -239.5t69 -319.5q0 -141 -46 -263.5t-135 -217t-231 -149t-321 -54.5h-631v37q58 0 93.5 8t56.5 19t30 44t10.5 59.5t1.5 89.5v3v412z M424 745h393v-73h-393v-572q114 -26 213 -26q128 0 231 48t169 131t101.5 192t35.5 233q0 171 -61 306t-186 216.5t-298 81.5q-99 0 -205 -29v-508z" />
<glyph unicode="&#xd1;" horiz-adv-x="1478" d="M332 1067v-807q0 -117 12 -151q16 -50 79 -64q37 -8 101 -8v-37h-473v37q29 0 52 1t42 6t33 8.5t24.5 14t17.5 17t11.5 24t7 28t4 35.5t1.5 40.5v48.5v918q-61 76 -117 108.5t-152 32.5v37h369l825 -1014h5v754v48.5t-1.5 40.5t-4 35.5t-7 28t-11.5 24t-17.5 17t-24.5 14 t-33 8.5t-42 6t-52 1v37h473v-37q-58 0 -93.5 -8t-56.5 -19t-30 -44t-10.5 -59.5t-1.5 -89.5v-3v-1119h-37l-889 1090h-4zM453 1462h-31q-1 68 16 124.5t61.5 97t112.5 40.5q72 0 176 -69q84 -55 116 -65q16 -5 30 -5q76 0 96 139h31q1 -67 -16 -124t-62 -97.5t-113 -40.5 q-70 0 -176 70q-3 2 -15.5 10t-16 10.5t-14.5 9.5t-15.5 9.5t-14.5 8t-15 8t-13.5 6t-14.5 5t-13 2.5t-13 1q-76 0 -96 -140z" />
<glyph unicode="&#xd2;" horiz-adv-x="1478" d="M739 -31q-196 0 -349 98.5t-233.5 259.5t-80.5 351t80.5 350.5t233.5 259t349 98.5q147 0 273 -57.5t211 -154.5t132.5 -225.5t47.5 -270.5t-47.5 -270.5t-132.5 -226t-211 -155t-273 -57.5zM739 43q82 0 149 25.5t113.5 71.5t81 105.5t54 132.5t28.5 146.5t9 153.5 t-9 153.5t-28.5 146.5t-54 132.5t-81 105.5t-113.5 71.5t-149 25.5q-97 0 -173.5 -37t-124.5 -98t-79.5 -145t-44 -171t-12.5 -184t12.5 -184t44 -171t79.5 -145t124.5 -98t173.5 -37zM518 1798h223l105 -346h-35z" />
<glyph unicode="&#xd3;" horiz-adv-x="1478" d="M739 -31q-196 0 -349 98.5t-233.5 259.5t-80.5 351t80.5 350.5t233.5 259t349 98.5q147 0 273 -57.5t211 -154.5t132.5 -225.5t47.5 -270.5t-47.5 -270.5t-132.5 -226t-211 -155t-273 -57.5zM739 43q82 0 149 25.5t113.5 71.5t81 105.5t54 132.5t28.5 146.5t9 153.5 t-9 153.5t-28.5 146.5t-54 132.5t-81 105.5t-113.5 71.5t-149 25.5q-97 0 -173.5 -37t-124.5 -98t-79.5 -145t-44 -171t-12.5 -184t12.5 -184t44 -171t79.5 -145t124.5 -98t173.5 -37zM739 1798h224l-293 -346h-35z" />
<glyph unicode="&#xd4;" horiz-adv-x="1478" d="M739 -31q-196 0 -349 98.5t-233.5 259.5t-80.5 351t80.5 350.5t233.5 259t349 98.5q147 0 273 -57.5t211 -154.5t132.5 -225.5t47.5 -270.5t-47.5 -270.5t-132.5 -226t-211 -155t-273 -57.5zM739 43q82 0 149 25.5t113.5 71.5t81 105.5t54 132.5t28.5 146.5t9 153.5 t-9 153.5t-28.5 146.5t-54 132.5t-81 105.5t-113.5 71.5t-149 25.5q-97 0 -173.5 -37t-124.5 -98t-79.5 -145t-44 -171t-12.5 -184t12.5 -184t44 -171t79.5 -145t124.5 -98t173.5 -37zM647 1772h184l191 -330h-33l-250 211l-250 -211h-32z" />
<glyph unicode="&#xd5;" horiz-adv-x="1478" d="M739 -31q-196 0 -349 98.5t-233.5 259.5t-80.5 351t80.5 350.5t233.5 259t349 98.5q147 0 273 -57.5t211 -154.5t132.5 -225.5t47.5 -270.5t-47.5 -270.5t-132.5 -226t-211 -155t-273 -57.5zM739 43q82 0 149 25.5t113.5 71.5t81 105.5t54 132.5t28.5 146.5t9 153.5 t-9 153.5t-28.5 146.5t-54 132.5t-81 105.5t-113.5 71.5t-149 25.5q-97 0 -173.5 -37t-124.5 -98t-79.5 -145t-44 -171t-12.5 -184t12.5 -184t44 -171t79.5 -145t124.5 -98t173.5 -37zM453 1462h-31q-1 68 16 124.5t61.5 97t112.5 40.5q72 0 176 -69q84 -55 116 -65 q16 -5 30 -5q76 0 96 139h31q1 -67 -16 -124t-62 -97.5t-113 -40.5q-70 0 -176 70q-3 2 -15.5 10t-16 10.5t-14.5 9.5t-15.5 9.5t-14.5 8t-15 8t-13.5 6t-14.5 5t-13 2.5t-13 1q-76 0 -96 -140z" />
<glyph unicode="&#xd6;" horiz-adv-x="1478" d="M739 -31q-196 0 -349 98.5t-233.5 259.5t-80.5 351t80.5 350.5t233.5 259t349 98.5q147 0 273 -57.5t211 -154.5t132.5 -225.5t47.5 -270.5t-47.5 -270.5t-132.5 -226t-211 -155t-273 -57.5zM739 43q82 0 149 25.5t113.5 71.5t81 105.5t54 132.5t28.5 146.5t9 153.5 t-9 153.5t-28.5 146.5t-54 132.5t-81 105.5t-113.5 71.5t-149 25.5q-97 0 -173.5 -37t-124.5 -98t-79.5 -145t-44 -171t-12.5 -184t12.5 -184t44 -171t79.5 -145t124.5 -98t173.5 -37zM565 1485q-46 0 -78 32t-32 78t32 78.5t78 32.5t78.5 -32.5t32.5 -78.5t-32.5 -78 t-78.5 -32zM915 1485q-46 0 -78 32t-32 78t32 78.5t78 32.5t78.5 -32.5t32.5 -78.5t-32.5 -78t-78.5 -32z" />
<glyph unicode="&#xd7;" horiz-adv-x="1155" d="M166 326l354 354l-354 354l57 58l355 -355l354 355l57 -58l-354 -354l354 -354l-57 -58l-354 355l-355 -355z" />
<glyph unicode="&#xd8;" horiz-adv-x="1478" d="M1102 1063l-684 -848q109 -172 321 -172q82 0 149 25.5t113.5 71.5t81 105.5t54 132.5t28.5 146.5t9 153.5q0 234 -72 385zM379 287l686 846q-104 180 -326 180q-97 0 -173.5 -37t-124.5 -98t-79.5 -145t-44 -171t-12.5 -184q0 -233 74 -391zM1337 1356l-131 -164 q94 -99 145.5 -232t51.5 -282q0 -142 -47.5 -270.5t-132.5 -226t-211 -155t-273 -57.5q-231 0 -407 142l-127 -158l-60 47l131 162q-96 98 -148 232t-52 284q0 190 80.5 350.5t233.5 259t349 98.5q238 0 414 -145l127 158z" />
<glyph unicode="&#xd9;" horiz-adv-x="1478" d="M211 485v611v48.5t-1.5 40.5t-4 35.5t-7 28t-11.5 24t-17.5 17t-24.5 14t-33 8.5t-42 6t-52 1v37h578v-37q-29 0 -52 -1t-42 -6t-33 -8.5t-24.5 -14t-17.5 -17t-11.5 -24t-7 -28t-4 -35.5t-1.5 -40.5v-48.5v-541q0 -206 33 -301q34 -96 122 -146.5t196 -50.5 q107 0 204.5 42t153.5 124q30 45 46 119t18 122.5t2 127.5v504v48.5t-1.5 40.5t-4 35.5t-7 28t-11.5 24t-17.5 17t-24.5 14t-33 8.5t-42 6t-52 1v37h473v-37q-58 0 -93.5 -8t-56.5 -19t-30 -44t-10.5 -59.5t-1.5 -89.5v-3v-604q0 -80 -13 -149.5t-49 -140t-92.5 -120.5 t-151 -81.5t-217.5 -31.5q-126 0 -221.5 28.5t-153.5 75.5t-94 115.5t-49.5 139.5t-13.5 157zM518 1798h223l105 -346h-35z" />
<glyph unicode="&#xda;" horiz-adv-x="1478" d="M211 485v611v48.5t-1.5 40.5t-4 35.5t-7 28t-11.5 24t-17.5 17t-24.5 14t-33 8.5t-42 6t-52 1v37h578v-37q-29 0 -52 -1t-42 -6t-33 -8.5t-24.5 -14t-17.5 -17t-11.5 -24t-7 -28t-4 -35.5t-1.5 -40.5v-48.5v-541q0 -206 33 -301q34 -96 122 -146.5t196 -50.5 q107 0 204.5 42t153.5 124q30 45 46 119t18 122.5t2 127.5v504v48.5t-1.5 40.5t-4 35.5t-7 28t-11.5 24t-17.5 17t-24.5 14t-33 8.5t-42 6t-52 1v37h473v-37q-58 0 -93.5 -8t-56.5 -19t-30 -44t-10.5 -59.5t-1.5 -89.5v-3v-604q0 -80 -13 -149.5t-49 -140t-92.5 -120.5 t-151 -81.5t-217.5 -31.5q-126 0 -221.5 28.5t-153.5 75.5t-94 115.5t-49.5 139.5t-13.5 157zM776 1798h223l-292 -346h-35z" />
<glyph unicode="&#xdb;" horiz-adv-x="1478" d="M211 485v611v48.5t-1.5 40.5t-4 35.5t-7 28t-11.5 24t-17.5 17t-24.5 14t-33 8.5t-42 6t-52 1v37h578v-37q-29 0 -52 -1t-42 -6t-33 -8.5t-24.5 -14t-17.5 -17t-11.5 -24t-7 -28t-4 -35.5t-1.5 -40.5v-48.5v-541q0 -206 33 -301q34 -96 122 -146.5t196 -50.5 q107 0 204.5 42t153.5 124q30 45 46 119t18 122.5t2 127.5v504v48.5t-1.5 40.5t-4 35.5t-7 28t-11.5 24t-17.5 17t-24.5 14t-33 8.5t-42 6t-52 1v37h473v-37q-58 0 -93.5 -8t-56.5 -19t-30 -44t-10.5 -59.5t-1.5 -89.5v-3v-604q0 -80 -13 -149.5t-49 -140t-92.5 -120.5 t-151 -81.5t-217.5 -31.5q-126 0 -221.5 28.5t-153.5 75.5t-94 115.5t-49.5 139.5t-13.5 157zM647 1772h184l191 -330h-33l-250 211l-250 -211h-32z" />
<glyph unicode="&#xdc;" horiz-adv-x="1478" d="M211 485v611v48.5t-1.5 40.5t-4 35.5t-7 28t-11.5 24t-17.5 17t-24.5 14t-33 8.5t-42 6t-52 1v37h578v-37q-29 0 -52 -1t-42 -6t-33 -8.5t-24.5 -14t-17.5 -17t-11.5 -24t-7 -28t-4 -35.5t-1.5 -40.5v-48.5v-541q0 -206 33 -301q34 -96 122 -146.5t196 -50.5 q107 0 204.5 42t153.5 124q30 45 46 119t18 122.5t2 127.5v504v48.5t-1.5 40.5t-4 35.5t-7 28t-11.5 24t-17.5 17t-24.5 14t-33 8.5t-42 6t-52 1v37h473v-37q-58 0 -93.5 -8t-56.5 -19t-30 -44t-10.5 -59.5t-1.5 -89.5v-3v-604q0 -80 -13 -149.5t-49 -140t-92.5 -120.5 t-151 -81.5t-217.5 -31.5q-126 0 -221.5 28.5t-153.5 75.5t-94 115.5t-49.5 139.5t-13.5 157zM565 1485q-46 0 -78 32t-32 78t32 78.5t78 32.5t78.5 -32.5t32.5 -78.5t-32.5 -78t-78.5 -32zM915 1485q-46 0 -78 32t-32 78t32 78.5t78 32.5t78.5 -32.5t32.5 -78.5t-32.5 -78 t-78.5 -32z" />
<glyph unicode="&#xdd;" horiz-adv-x="1478" d="M795 664l252 397q73 114 73 160q0 98 -137 98v37h473v-37q-90 0 -152 -51.5t-124 -149.5l-344 -543v-315q0 -117 12 -151q16 -50 79 -64q37 -8 101 -8v-37h-577v37q58 0 93.5 8t56.5 19t30 44t10.5 59.5t1.5 89.5v3v297l-420 639q-36 57 -89.5 90t-106.5 33v37h579v-37 q-157 0 -157 -90q0 -9 3 -19.5t9 -23t10 -20t12.5 -21.5t10.5 -17zM811 1798h223l-293 -346h-34z" />
<glyph unicode="&#xde;" horiz-adv-x="1138" d="M231 260v836q0 117 -12 151q-16 50 -79 64q-38 8 -101 8v37h577v-37q-58 0 -93.5 -8t-56.5 -19t-30 -44t-10.5 -59.5t-1.5 -89.5v-3v-47h145q115 0 204.5 -24t143 -61t87.5 -88.5t46.5 -100t12.5 -101.5q0 -70 -26.5 -133.5t-80 -117.5t-147 -86t-215.5 -32h-170v-45 q0 -117 12 -151q16 -50 79 -64q37 -8 101 -8v-37h-577v37q58 0 93.5 8t56.5 19t30 44t10.5 59.5t1.5 89.5v3zM424 975v-596h113q134 0 215.5 83t81.5 226q0 142 -100.5 214.5t-262.5 72.5h-47z" />
<glyph unicode="&#xdf;" d="M332 0h-307v37q39 1 62 5.5t43 18.5t28 41t8 72v799q0 448 356 448q152 0 252 -86t100 -235q0 -208 -190 -277v-4q137 -31 203.5 -139.5t66.5 -257.5q0 -77 -20.5 -152t-60 -139t-105.5 -103.5t-147 -39.5q-76 0 -133.5 44t-57.5 118q0 40 21.5 63t64.5 23 q37 0 58.5 -22.5t21.5 -59.5q0 -12 -7 -30t-7 -30q0 -21 16.5 -33t38.5 -12q45 0 77 26.5t47 69.5t21 83.5t6 82.5q0 62 -7.5 121t-28.5 122.5t-53 110t-85.5 77.5t-121.5 32v57q63 -2 107 19.5t67 62.5t33 88t10 107q0 104 -46 174t-145 70q-30 0 -55 -7.5t-43.5 -18.5 t-32.5 -30.5t-23 -37t-15.5 -46t-9.5 -47.5t-5 -52t-2 -50.5v-50.5v-1012z" />
<glyph unicode="&#xe0;" horiz-adv-x="909" d="M743 696v-440q0 -43 1 -65t5.5 -47t16 -35.5t29.5 -10.5q9 0 20 5t24.5 16.5t21 18t23.5 23t17 17.5v-57q-116 -150 -213 -150q-110 0 -110 150q-18 -13 -52 -40.5t-55 -42.5t-51.5 -33t-62.5 -26t-68 -8q-103 0 -161 67.5t-58 172.5q0 55 27.5 103.5t66 81.5t99 66 t108 52t113 44t94.5 38q0 55 -2 90t-11.5 76.5t-27 65t-49.5 39.5t-78 16q-56 0 -97 -31.5t-41 -89.5q0 -76 -19 -111t-65 -35q-41 0 -62.5 28.5t-21.5 70.5q0 20 8 45.5t31.5 59t58.5 60t98 45.5t142 19q62 0 111.5 -11.5t80 -27.5t53 -41.5t33 -45.5t16.5 -48.5t6.5 -41.5 t0.5 -32zM578 186v351q-146 -58 -198 -89q-144 -83 -144 -194q0 -66 40.5 -117t104.5 -51q76 0 197 100zM233 1397h224l104 -346h-35z" />
<glyph unicode="&#xe1;" horiz-adv-x="909" d="M743 696v-440q0 -43 1 -65t5.5 -47t16 -35.5t29.5 -10.5q9 0 20 5t24.5 16.5t21 18t23.5 23t17 17.5v-57q-116 -150 -213 -150q-110 0 -110 150q-18 -13 -52 -40.5t-55 -42.5t-51.5 -33t-62.5 -26t-68 -8q-103 0 -161 67.5t-58 172.5q0 55 27.5 103.5t66 81.5t99 66 t108 52t113 44t94.5 38q0 55 -2 90t-11.5 76.5t-27 65t-49.5 39.5t-78 16q-56 0 -97 -31.5t-41 -89.5q0 -76 -19 -111t-65 -35q-41 0 -62.5 28.5t-21.5 70.5q0 20 8 45.5t31.5 59t58.5 60t98 45.5t142 19q62 0 111.5 -11.5t80 -27.5t53 -41.5t33 -45.5t16.5 -48.5t6.5 -41.5 t0.5 -32zM578 186v351q-146 -58 -198 -89q-144 -83 -144 -194q0 -66 40.5 -117t104.5 -51q76 0 197 100zM455 1397h223l-293 -346h-35z" />
<glyph unicode="&#xe2;" horiz-adv-x="909" d="M743 696v-440q0 -43 1 -65t5.5 -47t16 -35.5t29.5 -10.5q9 0 20 5t24.5 16.5t21 18t23.5 23t17 17.5v-57q-116 -150 -213 -150q-110 0 -110 150q-18 -13 -52 -40.5t-55 -42.5t-51.5 -33t-62.5 -26t-68 -8q-103 0 -161 67.5t-58 172.5q0 55 27.5 103.5t66 81.5t99 66 t108 52t113 44t94.5 38q0 55 -2 90t-11.5 76.5t-27 65t-49.5 39.5t-78 16q-56 0 -97 -31.5t-41 -89.5q0 -76 -19 -111t-65 -35q-41 0 -62.5 28.5t-21.5 70.5q0 20 8 45.5t31.5 59t58.5 60t98 45.5t142 19q62 0 111.5 -11.5t80 -27.5t53 -41.5t33 -45.5t16.5 -48.5t6.5 -41.5 t0.5 -32zM578 186v351q-146 -58 -198 -89q-144 -83 -144 -194q0 -66 40.5 -117t104.5 -51q76 0 197 100zM362 1386h185l190 -329h-32l-250 211l-250 -211h-33z" />
<glyph unicode="&#xe3;" horiz-adv-x="909" d="M743 696v-440q0 -43 1 -65t5.5 -47t16 -35.5t29.5 -10.5q9 0 20 5t24.5 16.5t21 18t23.5 23t17 17.5v-57q-116 -150 -213 -150q-110 0 -110 150q-18 -13 -52 -40.5t-55 -42.5t-51.5 -33t-62.5 -26t-68 -8q-103 0 -161 67.5t-58 172.5q0 55 27.5 103.5t66 81.5t99 66 t108 52t113 44t94.5 38q0 55 -2 90t-11.5 76.5t-27 65t-49.5 39.5t-78 16q-56 0 -97 -31.5t-41 -89.5q0 -76 -19 -111t-65 -35q-41 0 -62.5 28.5t-21.5 70.5q0 20 8 45.5t31.5 59t58.5 60t98 45.5t142 19q62 0 111.5 -11.5t80 -27.5t53 -41.5t33 -45.5t16.5 -48.5t6.5 -41.5 t0.5 -32zM578 186v351q-146 -58 -198 -89q-144 -83 -144 -194q0 -66 40.5 -117t104.5 -51q76 0 197 100zM168 1096h-31q-1 67 16 124t62 97.5t113 40.5q70 0 176 -70q39 -26 54.5 -35.5t43 -21.5t47.5 -12q76 0 96 139h31q1 -68 -16 -124.5t-61.5 -97t-112.5 -40.5 q-72 0 -176 69q-84 55 -116 65q-16 5 -30 5q-76 0 -96 -139z" />
<glyph unicode="&#xe4;" horiz-adv-x="909" d="M743 696v-440q0 -43 1 -65t5.5 -47t16 -35.5t29.5 -10.5q9 0 20 5t24.5 16.5t21 18t23.5 23t17 17.5v-57q-116 -150 -213 -150q-110 0 -110 150q-18 -13 -52 -40.5t-55 -42.5t-51.5 -33t-62.5 -26t-68 -8q-103 0 -161 67.5t-58 172.5q0 55 27.5 103.5t66 81.5t99 66 t108 52t113 44t94.5 38q0 55 -2 90t-11.5 76.5t-27 65t-49.5 39.5t-78 16q-56 0 -97 -31.5t-41 -89.5q0 -76 -19 -111t-65 -35q-41 0 -62.5 28.5t-21.5 70.5q0 20 8 45.5t31.5 59t58.5 60t98 45.5t142 19q62 0 111.5 -11.5t80 -27.5t53 -41.5t33 -45.5t16.5 -48.5t6.5 -41.5 t0.5 -32zM578 186v351q-146 -58 -198 -89q-144 -83 -144 -194q0 -66 40.5 -117t104.5 -51q76 0 197 100zM281 1120q-46 0 -78.5 32.5t-32.5 78.5t32.5 78t78.5 32t78 -32t32 -78t-32 -78.5t-78 -32.5zM631 1120q-46 0 -78.5 32.5t-32.5 78.5t32.5 78t78.5 32t78 -32t32 -78 t-32 -78.5t-78 -32.5z" />
<glyph unicode="&#xe5;" horiz-adv-x="909" d="M743 696v-440q0 -43 1 -65t5.5 -47t16 -35.5t29.5 -10.5q9 0 20 5t24.5 16.5t21 18t23.5 23t17 17.5v-57q-116 -150 -213 -150q-110 0 -110 150q-18 -13 -52 -40.5t-55 -42.5t-51.5 -33t-62.5 -26t-68 -8q-103 0 -161 67.5t-58 172.5q0 55 27.5 103.5t66 81.5t99 66 t108 52t113 44t94.5 38q0 55 -2 90t-11.5 76.5t-27 65t-49.5 39.5t-78 16q-56 0 -97 -31.5t-41 -89.5q0 -76 -19 -111t-65 -35q-41 0 -62.5 28.5t-21.5 70.5q0 20 8 45.5t31.5 59t58.5 60t98 45.5t142 19q62 0 111.5 -11.5t80 -27.5t53 -41.5t33 -45.5t16.5 -48.5t6.5 -41.5 t0.5 -32zM578 186v351q-146 -58 -198 -89q-144 -83 -144 -194q0 -66 40.5 -117t104.5 -51q76 0 197 100zM264 1227q0 79 56.5 135.5t136.5 56.5q79 0 135.5 -56.5t56.5 -135.5q0 -80 -56.5 -136.5t-135.5 -56.5t-136 57t-57 136zM334 1227q0 -51 36 -87t87 -36t87 36t36 87 t-36 87t-87 36t-87 -36t-36 -87z" />
<glyph unicode="&#xe6;" horiz-adv-x="1366" d="M1300 569h-575v-110q0 -93 23 -161.5t62 -105t82 -53t91 -16.5q197 0 285 219l32 -23q-18 -69 -48.5 -129.5t-75 -110.5t-107 -79t-135.5 -29q-104 0 -169.5 36.5t-131.5 123.5q-103 -86 -178.5 -123t-157.5 -37q-54 0 -96.5 18.5t-66 45.5t-39 61t-20.5 60.5t-5 48.5 q0 88 47 149.5t145 106.5l297 137v57q0 27 -0.5 40t-2 38.5t-5.5 39t-10.5 34t-17.5 32t-26.5 23t-37.5 16.5t-49 5q-56 0 -97 -31.5t-41 -89.5q0 -76 -19 -111t-65 -35q-41 0 -62.5 28.5t-21.5 70.5q0 20 8 45.5t31.5 59t58.5 60t98 45.5t142 19q86 0 161.5 -27.5 t103.5 -95.5q85 123 264 123q109 0 185 -51.5t110.5 -134.5t33.5 -189zM606 184q-31 65 -39 142.5t-8 208.5q-180 -74 -251.5 -133.5t-71.5 -143.5q0 -75 44.5 -126.5t118.5 -51.5q34 0 75 18t67 36.5t65 49.5zM725 631h379q0 105 -43 172t-135 67q-97 0 -148 -69t-53 -170z " />
<glyph unicode="&#xe7;" horiz-adv-x="909" d="M813 362l29 -14q-18 -98 -67 -182t-132 -139.5t-182 -55.5q-172 0 -281.5 139t-109.5 351q0 107 36 199t97 153.5t140 96t165 34.5q64 0 133 -25t121.5 -77.5t52.5 -118.5q0 -39 -25.5 -61.5t-64.5 -22.5q-59 0 -83.5 28.5t-31.5 88.5q-9 118 -135 118q-63 0 -112 -29.5 t-77.5 -78.5t-42.5 -105t-14 -116q0 -69 18 -140t52.5 -134.5t94 -103.5t134.5 -40q103 0 174.5 65t110.5 170zM340 -96l133 71q78 0 124 -37t46 -104q0 -58 -40.5 -103t-96 -66t-111.5 -21q-59 0 -125 16l9 39q56 -18 77 -18q47 0 87 31.5t40 76.5q0 54 -43 83t-100 32z " />
<glyph unicode="&#xe8;" horiz-adv-x="909" d="M844 569h-635q0 -79 21 -154.5t60 -139t104 -102t145 -38.5q197 0 274 219l31 -20q-18 -97 -65.5 -177.5t-129 -133t-180.5 -52.5q-170 0 -284.5 131.5t-114.5 339.5q0 101 26 190t76.5 159.5t133 111.5t188.5 41q157 0 253.5 -104t96.5 -271zM211 631h424q0 103 -53 171 t-156 68q-87 0 -148 -72.5t-67 -166.5zM240 1397h223l104 -346h-35z" />
<glyph unicode="&#xe9;" horiz-adv-x="909" d="M844 569h-635q0 -79 21 -154.5t60 -139t104 -102t145 -38.5q197 0 274 219l31 -20q-18 -97 -65.5 -177.5t-129 -133t-180.5 -52.5q-170 0 -284.5 131.5t-114.5 339.5q0 101 26 190t76.5 159.5t133 111.5t188.5 41q157 0 253.5 -104t96.5 -271zM211 631h424q0 103 -53 171 t-156 68q-87 0 -148 -72.5t-67 -166.5zM465 1397h223l-293 -346h-35z" />
<glyph unicode="&#xea;" horiz-adv-x="909" d="M844 569h-635q0 -79 21 -154.5t60 -139t104 -102t145 -38.5q197 0 274 219l31 -20q-18 -97 -65.5 -177.5t-129 -133t-180.5 -52.5q-170 0 -284.5 131.5t-114.5 339.5q0 101 26 190t76.5 159.5t133 111.5t188.5 41q157 0 253.5 -104t96.5 -271zM211 631h424q0 103 -53 171 t-156 68q-87 0 -148 -72.5t-67 -166.5zM373 1386h184l191 -329h-33l-250 211l-250 -211h-33z" />
<glyph unicode="&#xeb;" horiz-adv-x="909" d="M844 569h-635q0 -79 21 -154.5t60 -139t104 -102t145 -38.5q197 0 274 219l31 -20q-18 -97 -65.5 -177.5t-129 -133t-180.5 -52.5q-170 0 -284.5 131.5t-114.5 339.5q0 101 26 190t76.5 159.5t133 111.5t188.5 41q157 0 253.5 -104t96.5 -271zM211 631h424q0 103 -53 171 t-156 68q-87 0 -148 -72.5t-67 -166.5zM291 1120q-46 0 -78.5 32.5t-32.5 78.5t32.5 78t78.5 32t78 -32t32 -78t-32 -78.5t-78 -32.5zM641 1120q-46 0 -78.5 32.5t-32.5 78.5t32.5 78t78.5 32t78.5 -32t32.5 -78t-32.5 -78.5t-78.5 -32.5z" />
<glyph unicode="&#xec;" horiz-adv-x="569" d="M377 944v-770q0 -45 8 -72t28 -41t43 -18.5t62 -5.5v-37h-448v37q39 1 62 5.5t43 18.5t28 41t8 72v500q0 49 -6.5 80t-19.5 42.5t-22 14t-24 2.5q-29 0 -69 -16l-15 34l277 113h45zM63 1397h224l104 -346h-35z" />
<glyph unicode="&#xed;" horiz-adv-x="569" d="M377 944v-770q0 -45 8 -72t28 -41t43 -18.5t62 -5.5v-37h-448v37q39 1 62 5.5t43 18.5t28 41t8 72v500q0 49 -6.5 80t-19.5 42.5t-22 14t-24 2.5q-29 0 -69 -16l-15 34l277 113h45zM285 1397h223l-293 -346h-35z" />
<glyph unicode="&#xee;" horiz-adv-x="569" d="M377 944v-770q0 -45 8 -72t28 -41t43 -18.5t62 -5.5v-37h-448v37q39 1 62 5.5t43 18.5t28 41t8 72v500q0 49 -6.5 80t-19.5 42.5t-22 14t-24 2.5q-29 0 -69 -16l-15 34l277 113h45zM193 1386h184l190 -329h-32l-250 211l-250 -211h-33z" />
<glyph unicode="&#xef;" horiz-adv-x="569" d="M377 944v-770q0 -45 8 -72t28 -41t43 -18.5t62 -5.5v-37h-448v37q39 1 62 5.5t43 18.5t28 41t8 72v500q0 49 -6.5 80t-19.5 42.5t-22 14t-24 2.5q-29 0 -69 -16l-15 34l277 113h45zM111 1120q-46 0 -78.5 32.5t-32.5 78.5t32.5 78t78.5 32t78 -32t32 -78t-32 -78.5 t-78 -32.5zM461 1120q-46 0 -78.5 32.5t-32.5 78.5t32.5 78t78.5 32t78 -32t32 -78t-32 -78.5t-78 -32.5z" />
<glyph unicode="&#xf0;" d="M475 1171l-260 -141l-29 53l244 140q-94 100 -194 157l40 41q123 -59 236 -151l276 151l35 -55l-252 -143q167 -141 275 -337t108 -394q0 -70 -15.5 -140t-51.5 -139.5t-87 -122.5t-129 -86t-171 -33q-95 0 -176.5 40t-136.5 106.5t-86 153t-31 178.5q0 87 30 173t83 156 t134 114t175 44q104 0 163 -59l4 4q-66 150 -184 290zM479 874q-41 0 -77.5 -16.5t-70.5 -53t-54.5 -105t-20.5 -162.5q0 -58 8 -120t29.5 -130.5t53 -122t83.5 -88.5t117 -35q53 0 94 23.5t64.5 59t38 84.5t19.5 93t5 92q0 58 -8 118.5t-29 127t-52 117.5t-83 84.5 t-117 33.5z" />
<glyph unicode="&#xf1;" d="M332 944v-192q94 103 161 147.5t150 44.5q79 0 133 -46.5t76 -113.5t22 -149v-461q0 -45 8.5 -72t28 -41t43 -18.5t62.5 -5.5v-37h-449v37q39 1 62.5 5.5t43 18.5t28 41t8.5 72v424q0 72 -13.5 120t-37.5 68.5t-45.5 27.5t-49.5 7q-64 0 -116.5 -33.5t-114.5 -97.5v-516 q0 -45 8 -72t28 -41t43 -18.5t62 -5.5v-37h-448v37q39 1 62 5.5t43 18.5t28 41t8 72v500q0 49 -6.5 80t-19.5 42.5t-22 14t-24 2.5q-29 0 -69 -16l-15 34l277 113h45zM225 1096h-30q-1 68 16 124.5t61.5 97t112.5 40.5q70 0 176 -70q37 -24 54 -35t44.5 -22.5t47.5 -11.5 q76 0 96 139h31q1 -67 -16 -124t-62 -97.5t-113 -40.5q-72 0 -176 69q-3 2 -15.5 10t-16 10.5t-14.5 9.5t-15.5 9.5t-14.5 8t-15 8t-13.5 6t-14.5 5t-13 2.5t-13 1q-77 0 -97 -139z" />
<glyph unicode="&#xf2;" d="M514 944q125 0 226.5 -64t157.5 -170.5t56 -230.5q0 -66 -15.5 -134t-51.5 -136t-87 -120.5t-129 -85t-171 -32.5q-95 0 -176.5 40t-136.5 106.5t-86 153t-31 178.5q0 127 54 239.5t157.5 184t232.5 71.5zM479 874q-41 0 -77.5 -16.5t-70.5 -53t-54.5 -105t-20.5 -162.5 q0 -58 8 -120t29.5 -130.5t53 -122t83.5 -88.5t117 -35q53 0 94 23.5t64.5 59t38 84.5t19.5 93t5 92q0 58 -8 118.5t-29 127t-52 117.5t-83 84.5t-117 33.5zM291 1397h223l104 -346h-34z" />
<glyph unicode="&#xf3;" d="M514 944q125 0 226.5 -64t157.5 -170.5t56 -230.5q0 -66 -15.5 -134t-51.5 -136t-87 -120.5t-129 -85t-171 -32.5q-95 0 -176.5 40t-136.5 106.5t-86 153t-31 178.5q0 127 54 239.5t157.5 184t232.5 71.5zM479 874q-41 0 -77.5 -16.5t-70.5 -53t-54.5 -105t-20.5 -162.5 q0 -58 8 -120t29.5 -130.5t53 -122t83.5 -88.5t117 -35q53 0 94 23.5t64.5 59t38 84.5t19.5 93t5 92q0 58 -8 118.5t-29 127t-52 117.5t-83 84.5t-117 33.5zM512 1397h223l-293 -346h-34z" />
<glyph unicode="&#xf4;" d="M514 944q125 0 226.5 -64t157.5 -170.5t56 -230.5q0 -66 -15.5 -134t-51.5 -136t-87 -120.5t-129 -85t-171 -32.5q-95 0 -176.5 40t-136.5 106.5t-86 153t-31 178.5q0 127 54 239.5t157.5 184t232.5 71.5zM479 874q-41 0 -77.5 -16.5t-70.5 -53t-54.5 -105t-20.5 -162.5 q0 -58 8 -120t29.5 -130.5t53 -122t83.5 -88.5t117 -35q53 0 94 23.5t64.5 59t38 84.5t19.5 93t5 92q0 58 -8 118.5t-29 127t-52 117.5t-83 84.5t-117 33.5zM420 1386h184l191 -329h-33l-250 211l-250 -211h-33z" />
<glyph unicode="&#xf5;" d="M514 944q125 0 226.5 -64t157.5 -170.5t56 -230.5q0 -66 -15.5 -134t-51.5 -136t-87 -120.5t-129 -85t-171 -32.5q-95 0 -176.5 40t-136.5 106.5t-86 153t-31 178.5q0 127 54 239.5t157.5 184t232.5 71.5zM479 874q-41 0 -77.5 -16.5t-70.5 -53t-54.5 -105t-20.5 -162.5 q0 -58 8 -120t29.5 -130.5t53 -122t83.5 -88.5t117 -35q53 0 94 23.5t64.5 59t38 84.5t19.5 93t5 92q0 58 -8 118.5t-29 127t-52 117.5t-83 84.5t-117 33.5zM225 1096h-30q-1 68 16 124.5t61.5 97t112.5 40.5q70 0 176 -70q37 -24 54 -35t44.5 -22.5t47.5 -11.5q76 0 96 139 h31q1 -67 -16 -124t-62 -97.5t-113 -40.5q-72 0 -176 69q-3 2 -15.5 10t-16 10.5t-14.5 9.5t-15.5 9.5t-14.5 8t-15 8t-13.5 6t-14.5 5t-13 2.5t-13 1q-77 0 -97 -139z" />
<glyph unicode="&#xf6;" d="M514 944q125 0 226.5 -64t157.5 -170.5t56 -230.5q0 -66 -15.5 -134t-51.5 -136t-87 -120.5t-129 -85t-171 -32.5q-95 0 -176.5 40t-136.5 106.5t-86 153t-31 178.5q0 127 54 239.5t157.5 184t232.5 71.5zM479 874q-41 0 -77.5 -16.5t-70.5 -53t-54.5 -105t-20.5 -162.5 q0 -58 8 -120t29.5 -130.5t53 -122t83.5 -88.5t117 -35q53 0 94 23.5t64.5 59t38 84.5t19.5 93t5 92q0 58 -8 118.5t-29 127t-52 117.5t-83 84.5t-117 33.5zM338 1120q-46 0 -78.5 32.5t-32.5 78.5t32.5 78t78.5 32t78.5 -32t32.5 -78t-32.5 -78.5t-78.5 -32.5zM688 1120 q-46 0 -78 32.5t-32 78.5t32 78t78 32t78.5 -32t32.5 -78t-32.5 -78.5t-78.5 -32.5z" />
<glyph unicode="&#xf7;" horiz-adv-x="1155" d="M1116 639h-1075v82h1075v-82zM578 285q-37 0 -63 25.5t-26 62.5t26 62.5t63 25.5t62.5 -25.5t25.5 -62.5t-25.5 -62.5t-62.5 -25.5zM578 899q-37 0 -63 25.5t-26 62.5t26 62.5t63 25.5t62.5 -25.5t25.5 -62.5t-25.5 -62.5t-62.5 -25.5z" />
<glyph unicode="&#xf8;" d="M301 268l399 447q-74 159 -221 159q-41 0 -77.5 -16.5t-70.5 -53t-54.5 -105t-20.5 -162.5q0 -144 45 -269zM727 649l-399 -444q75 -164 219 -164q53 0 94 23.5t64.5 59t38 84.5t19.5 93t5 92q0 142 -41 256zM985 938l-137 -154q106 -128 106 -305q0 -66 -15.5 -134 t-51.5 -136t-87 -120.5t-129 -85t-171 -32.5q-160 0 -279 113l-135 -150l-47 43l139 154q-108 133 -108 318q0 127 54 239.5t157.5 184t232.5 71.5q165 0 291 -113l133 150z" />
<glyph unicode="&#xf9;" d="M868 915v-673q0 -40 5 -68t11.5 -41.5t18 -21t18.5 -8.5t19 -1q28 0 70 17l14 -35l-276 -113h-46v195q-47 -51 -70 -74t-66 -57.5t-85 -49t-90 -14.5q-111 0 -172 83.5t-61 217.5v447q0 51 -4.5 78t-20.5 47t-45 26.5t-82 8.5v36h318v-636q0 -88 38.5 -136.5t114.5 -48.5 q99 0 225 131v494q0 51 -4 77.5t-20 47t-45 27t-82 8.5v36h317zM291 1397h223l104 -346h-34z" />
<glyph unicode="&#xfa;" d="M868 915v-673q0 -40 5 -68t11.5 -41.5t18 -21t18.5 -8.5t19 -1q28 0 70 17l14 -35l-276 -113h-46v195q-47 -51 -70 -74t-66 -57.5t-85 -49t-90 -14.5q-111 0 -172 83.5t-61 217.5v447q0 51 -4.5 78t-20.5 47t-45 26.5t-82 8.5v36h318v-636q0 -88 38.5 -136.5t114.5 -48.5 q99 0 225 131v494q0 51 -4 77.5t-20 47t-45 27t-82 8.5v36h317zM512 1397h223l-293 -346h-34z" />
<glyph unicode="&#xfb;" d="M868 915v-673q0 -40 5 -68t11.5 -41.5t18 -21t18.5 -8.5t19 -1q28 0 70 17l14 -35l-276 -113h-46v195q-47 -51 -70 -74t-66 -57.5t-85 -49t-90 -14.5q-111 0 -172 83.5t-61 217.5v447q0 51 -4.5 78t-20.5 47t-45 26.5t-82 8.5v36h318v-636q0 -88 38.5 -136.5t114.5 -48.5 q99 0 225 131v494q0 51 -4 77.5t-20 47t-45 27t-82 8.5v36h317zM420 1386h184l191 -329h-33l-250 211l-250 -211h-33z" />
<glyph unicode="&#xfc;" d="M868 915v-673q0 -40 5 -68t11.5 -41.5t18 -21t18.5 -8.5t19 -1q28 0 70 17l14 -35l-276 -113h-46v195q-47 -51 -70 -74t-66 -57.5t-85 -49t-90 -14.5q-111 0 -172 83.5t-61 217.5v447q0 51 -4.5 78t-20.5 47t-45 26.5t-82 8.5v36h318v-636q0 -88 38.5 -136.5t114.5 -48.5 q99 0 225 131v494q0 51 -4 77.5t-20 47t-45 27t-82 8.5v36h317zM338 1120q-46 0 -78.5 32.5t-32.5 78.5t32.5 78t78.5 32t78.5 -32t32.5 -78t-32.5 -78.5t-78.5 -32.5zM688 1120q-46 0 -78 32.5t-32 78.5t32 78t78 32t78.5 -32t32.5 -78t-32.5 -78.5t-78.5 -32.5z" />
<glyph unicode="&#xfd;" d="M504 37l-320 668q-16 35 -29.5 59t-35 51.5t-48.5 43.5t-59 20v36h426v-36q-55 0 -82.5 -14.5t-27.5 -59.5q0 -12 5.5 -31t10.5 -31t15 -35.5t12 -27.5l213 -438l194 481q27 71 27 104q0 32 -22 42t-70 10v36h299v-36q-78 0 -123 -107l-391 -958q-28 -70 -69.5 -122.5 t-84.5 -80t-80 -40.5t-67 -13q-55 0 -96.5 30.5t-41.5 83.5q0 43 30.5 66.5t74.5 23.5q38 0 80 -18t55 -18q35 0 67.5 32.5t45 57.5t32.5 73q4 8 5 11zM575 1397h224l-293 -346h-35z" />
<glyph unicode="&#xfe;" d="M315 1421v-688h4q122 211 287 211q69 0 127 -27t97.5 -71.5t67 -103.5t40 -121.5t12.5 -126.5q0 -78 -16 -152t-50.5 -141.5t-83.5 -118.5t-119 -81t-153 -30q-134 0 -213 82v-315q0 -46 7 -72.5t27.5 -41t47 -18.5t76.5 -5v-37h-481v37q50 1 76.5 5t47 18.5t27.5 41 t7 72.5v1413q0 49 -6.5 80t-19.5 42.5t-22 14t-24 2.5q-30 0 -70 -16l-14 35l276 112h45zM315 666v-381q0 -70 11 -114t51 -81q57 -57 155 -57q55 0 98.5 24t70 61.5t44 88t24.5 98.5t7 98q0 47 -7.5 98t-26 105.5t-46 97t-72 70t-98.5 27.5q-34 0 -63.5 -10.5t-57.5 -33.5 t-45 -40.5t-45 -50.5z" />
<glyph unicode="&#xff;" d="M504 37l-320 668q-16 35 -29.5 59t-35 51.5t-48.5 43.5t-59 20v36h426v-36q-55 0 -82.5 -14.5t-27.5 -59.5q0 -12 5.5 -31t10.5 -31t15 -35.5t12 -27.5l213 -438l194 481q27 71 27 104q0 32 -22 42t-70 10v36h299v-36q-78 0 -123 -107l-391 -958q-28 -70 -69.5 -122.5 t-84.5 -80t-80 -40.5t-67 -13q-55 0 -96.5 30.5t-41.5 83.5q0 43 30.5 66.5t74.5 23.5q38 0 80 -18t55 -18q35 0 67.5 32.5t45 57.5t32.5 73q4 8 5 11zM338 1120q-46 0 -78.5 32.5t-32.5 78.5t32.5 78t78.5 32t78.5 -32t32.5 -78t-32.5 -78.5t-78.5 -32.5zM688 1120 q-46 0 -78 32.5t-32 78.5t32 78t78 32t78.5 -32t32.5 -78t-32.5 -78.5t-78.5 -32.5z" />
<glyph unicode="&#x152;" horiz-adv-x="1820" d="M1104 1282v-537h162q45 0 73.5 2t57 9t45 20t30.5 35.5t21 54.5t10 78h37v-473h-37q-6 68 -19.5 107.5t-44 60.5t-68 27t-105.5 6h-162v-496q0 -62 22.5 -82t87.5 -20h168q67 0 115.5 14.5t90 51.5t72 80.5t75.5 119.5h39l-115 -340h-717q-19 0 -40 -1t-46.5 -2.5 t-40.5 -2.5q-82 -8 -121 -8q-142 0 -260 56.5t-195.5 152.5t-120 220.5t-42.5 262.5q0 83 18.5 170.5t65 183t116.5 169t184 121.5t255 48q45 0 192 -6q98 -8 117 -8h625l18 -297h-41q-10 53 -21 88.5t-28.5 61t-35.5 39.5t-51 22t-65 10t-86 2h-235zM911 365v765 q0 73 -45.5 121.5t-146.5 48.5q-71 0 -130.5 -21t-101.5 -56t-74.5 -85.5t-52.5 -105t-32.5 -118.5t-17.5 -122t-5 -120q0 -83 10.5 -162.5t39 -164t71.5 -147t115 -103t164 -40.5q60 0 100.5 15.5t61.5 35t31 64.5t11.5 75t1.5 95v25z" />
<glyph unicode="&#x153;" horiz-adv-x="1478" d="M1415 569h-551q0 -83 15 -157.5t46 -138t86 -101t128 -37.5q93 0 153 60.5t88 160.5l35 -18q-11 -60 -28 -111t-45.5 -99t-65 -82t-89 -54.5t-114.5 -20.5q-88 0 -157.5 42t-110.5 120q-122 -162 -318 -162q-98 0 -178.5 39t-132 105t-79 151t-27.5 180q0 96 28 184.5 t80 159t134 112.5t182 42q97 0 177.5 -41t133.5 -119q55 83 122.5 121.5t162.5 38.5q153 0 239 -101t86 -274zM463 885q-28 0 -51.5 -5t-54 -26t-51 -57t-35.5 -104t-15 -161q0 -53 6.5 -112t24.5 -128.5t45.5 -123.5t74.5 -90.5t107 -36.5q91 0 147 79t56 259q0 83 -12 164 t-38.5 161.5t-79 130.5t-124.5 50zM866 631h353q0 101 -45.5 170t-133.5 69q-56 0 -97 -40t-58.5 -92.5t-18.5 -106.5z" />
<glyph unicode="&#x178;" horiz-adv-x="1478" d="M795 664l252 397q73 114 73 160q0 98 -137 98v37h473v-37q-90 0 -152 -51.5t-124 -149.5l-344 -543v-315q0 -117 12 -151q16 -50 79 -64q37 -8 101 -8v-37h-577v37q58 0 93.5 8t56.5 19t30 44t10.5 59.5t1.5 89.5v3v297l-420 639q-36 57 -89.5 90t-106.5 33v37h579v-37 q-157 0 -157 -90q0 -9 3 -19.5t9 -23t10 -20t12.5 -21.5t10.5 -17zM565 1485q-46 0 -78 32t-32 78t32 78.5t78 32.5t78.5 -32.5t32.5 -78.5t-32.5 -78t-78.5 -32zM915 1485q-46 0 -78 32t-32 78t32 78.5t78 32.5t78.5 -32.5t32.5 -78.5t-32.5 -78t-78.5 -32z" />
<glyph unicode="&#x2c6;" horiz-adv-x="681" d="M248 1458h184l191 -330h-33l-250 211l-250 -211h-33z" />
<glyph unicode="&#x2dc;" horiz-adv-x="681" d="M53 1102h-30q-1 68 16 124.5t61.5 97t112.5 40.5q70 0 176 -70q37 -24 54 -35t44.5 -22.5t47.5 -11.5q76 0 96 139h31q1 -67 -16 -124t-62 -97.5t-113 -40.5q-72 0 -176 69q-3 2 -15.5 10t-16 10.5t-14.5 9.5t-15.5 9.5t-14.5 8t-15 8t-13.5 6t-14.5 5t-13 2.5t-13 1 q-77 0 -97 -139z" />
<glyph unicode="&#x2000;" horiz-adv-x="899" />
<glyph unicode="&#x2001;" horiz-adv-x="1798" />
<glyph unicode="&#x2002;" horiz-adv-x="899" />
<glyph unicode="&#x2003;" horiz-adv-x="1798" />
<glyph unicode="&#x2004;" horiz-adv-x="599" />
<glyph unicode="&#x2005;" horiz-adv-x="449" />
<glyph unicode="&#x2006;" horiz-adv-x="299" />
<glyph unicode="&#x2007;" horiz-adv-x="299" />
<glyph unicode="&#x2008;" horiz-adv-x="224" />
<glyph unicode="&#x2009;" horiz-adv-x="359" />
<glyph unicode="&#x200a;" horiz-adv-x="99" />
<glyph unicode="&#x2010;" horiz-adv-x="681" d="M82 539h518v-158h-518v158z" />
<glyph unicode="&#x2011;" horiz-adv-x="681" d="M82 539h518v-158h-518v158z" />
<glyph unicode="&#x2012;" horiz-adv-x="681" d="M82 539h518v-158h-518v158z" />
<glyph unicode="&#x2013;" d="M1042 453h-1060v73h1060v-73z" />
<glyph unicode="&#x2014;" horiz-adv-x="2048" d="M2066 453h-2084v73h2084v-73z" />
<glyph unicode="&#x2018;" horiz-adv-x="681" d="M449 1386v-47q-34 -21 -49.5 -31t-42.5 -31.5t-40 -39.5t-23.5 -45t-10.5 -57q0 -62 36 -62q9 0 33 8.5t37 8.5q43 0 74 -31t31 -74q0 -55 -39.5 -86t-96.5 -31q-73 0 -121.5 62t-48.5 137q0 110 75.5 197.5t185.5 121.5z" />
<glyph unicode="&#x2019;" horiz-adv-x="681" d="M233 868v47q41 25 61.5 39.5t49.5 41t42 57t13 67.5q0 62 -37 62q-9 0 -32.5 -8.5t-36.5 -8.5q-43 0 -74 31t-31 74q0 55 39.5 85.5t96.5 30.5q73 0 121.5 -61.5t48.5 -136.5q0 -110 -75.5 -198t-185.5 -122z" />
<glyph unicode="&#x201a;" horiz-adv-x="681" d="M233 -317v47q34 21 49.5 31t42.5 31.5t40 39.5t23.5 45t10.5 57q0 62 -37 62q-8 0 -32 -8t-37 -8q-43 0 -74 30.5t-31 73.5q0 55 39.5 86t96.5 31q73 0 121.5 -62t48.5 -137q0 -110 -75.5 -197.5t-185.5 -121.5z" />
<glyph unicode="&#x201c;" horiz-adv-x="909" d="M324 1386v-47q-34 -21 -49.5 -31t-42.5 -31.5t-40 -39.5t-23.5 -45t-10.5 -57q0 -62 37 -62q9 0 32.5 8.5t36.5 8.5q43 0 74 -31t31 -74q0 -55 -39.5 -86t-96.5 -31q-73 0 -121.5 62t-48.5 137q0 110 75.5 197.5t185.5 121.5zM801 1386v-47q-34 -21 -49.5 -31 t-42.5 -31.5t-40 -39.5t-23.5 -45t-10.5 -57q0 -62 37 -62q9 0 32.5 8.5t36.5 8.5q43 0 74 -31t31 -74q0 -55 -39 -86t-96 -31q-73 0 -121.5 62t-48.5 137q0 110 75 197.5t185 121.5z" />
<glyph unicode="&#x201d;" horiz-adv-x="909" d="M586 868v47q41 25 61.5 39.5t49.5 41t42 57t13 67.5q0 62 -37 62q-9 0 -33 -8.5t-37 -8.5q-43 0 -73.5 31t-30.5 74q0 55 39 85.5t96 30.5q73 0 121.5 -61.5t48.5 -136.5q0 -110 -75 -198t-185 -122zM109 868v47q40 25 61 39.5t49.5 41t41.5 57t13 67.5q0 62 -36 62 q-9 0 -33 -8.5t-37 -8.5q-43 0 -74 31t-31 74q0 55 39.5 85.5t96.5 30.5q73 0 121.5 -61.5t48.5 -136.5q0 -110 -75 -198t-185 -122z" />
<glyph unicode="&#x201e;" horiz-adv-x="909" d="M586 -317v47q34 21 49.5 31t42.5 31.5t40 39.5t23.5 45t10.5 57q0 62 -37 62q-9 0 -33 -8t-37 -8q-43 0 -73.5 30.5t-30.5 73.5q0 55 39 86t96 31q73 0 121.5 -62t48.5 -137q0 -110 -75 -197.5t-185 -121.5zM109 -317v47q33 20 49 30.5t42.5 32t39.5 39.5t23.5 45 t10.5 57q0 62 -36 62q-9 0 -33 -8t-37 -8q-43 0 -74 30.5t-31 73.5q0 55 39.5 86t96.5 31q73 0 121.5 -62t48.5 -137q0 -110 -75 -197.5t-185 -121.5z" />
<glyph unicode="&#x2022;" horiz-adv-x="716" d="M106 678q0 104 74 178t178 74t178 -74t74 -178t-74 -178t-178 -74t-178 74t-74 178z" />
<glyph unicode="&#x2026;" horiz-adv-x="2048" d="M340 -29q-46 0 -78.5 32.5t-32.5 78.5t32.5 78.5t78.5 32.5t78.5 -32.5t32.5 -78.5t-32.5 -78.5t-78.5 -32.5zM1024 -29q-46 0 -78.5 32.5t-32.5 78.5t32.5 78.5t78.5 32.5t78.5 -32.5t32.5 -78.5t-32.5 -78.5t-78.5 -32.5zM1708 -29q-46 0 -78.5 32.5t-32.5 78.5 t32.5 78.5t78.5 32.5t78.5 -32.5t32.5 -78.5t-32.5 -78.5t-78.5 -32.5z" />
<glyph unicode="&#x202f;" horiz-adv-x="359" />
<glyph unicode="&#x2039;" horiz-adv-x="681" d="M565 -8h-61l-387 471l387 471h61l-248 -471z" />
<glyph unicode="&#x203a;" horiz-adv-x="681" d="M117 934h61l387 -471l-387 -471h-61l248 471z" />
<glyph unicode="&#x205f;" horiz-adv-x="449" />
<glyph unicode="&#x2122;" horiz-adv-x="2007" d="M47 1356h729l21 -201h-35q-6 34 -15.5 58.5t-27.5 39.5t-33 23.5t-44.5 12.5t-48.5 4.5t-58 0.5h-39v-555q0 -29 0.5 -41.5t2.5 -33.5t6 -29.5t12.5 -20.5t21 -16.5t31.5 -8t44 -3.5v-37h-403v37q25 0 44 3.5t32 8t21 16.5t12.5 20.5t6.5 29t2.5 33.5t0.5 42v555h-41 q-39 0 -58 -0.5t-49 -4.5t-45 -12.5t-33 -23.5t-27.5 -39.5t-15.5 -58.5h-34zM1153 1356l272 -572l267 572h286v-37q-25 0 -44 -3.5t-31.5 -8t-21 -17t-12.5 -20.5t-6 -29.5t-2.5 -34t-0.5 -41.5v-426q0 -29 0.5 -41.5t2.5 -33.5t6 -29.5t12.5 -20.5t21 -16.5t31.5 -8 t44 -3.5v-37h-403v37q25 0 44 3.5t32 8t21 16.5t12.5 20.5t6.5 29t2.5 33.5t0.5 42v469h-4l-306 -659h-32l-305 649h-5v-459q0 -29 0.5 -42t2.5 -33.5t6.5 -29t12.5 -20.5t21 -16.5t32 -8t44 -3.5v-37h-299v37q25 0 44 3.5t32 8t21 16.5t12.5 20.5t6.5 29t2.5 33.5t0.5 42 v426q0 33 -0.5 48t-4 37.5t-10.5 31.5t-20 19.5t-33.5 14t-50.5 3.5v37h291z" />
<glyph unicode="&#x25fc;" horiz-adv-x="911" d="M0 911h911v-911h-911v911z" />
<glyph unicode="&#xfb01;" horiz-adv-x="1138" d="M397 915h496q8 0 25 3.5t26 3.5h27v-748q0 -45 8 -72t28 -41t43 -18.5t62 -5.5v-37h-448v37q39 1 62 5.5t43 18.5t28 41t8 72v500v56t-3.5 40.5t-5 30.5t-12 19.5t-17 13.5t-28 5t-36.5 3h-50h-256v-574q0 -77 2.5 -108.5t18.5 -66.5t51 -45.5t98 -10.5v-37h-510v37 q44 0 73.5 4.5t49 19.5t30 28t15 46.5t5.5 56.5t1 76v574h-178v73h178v56q0 207 119 328.5t301 121.5q135 0 217 -54t82 -132q0 -32 -23 -55t-55 -23t-58.5 20.5t-46.5 49.5t-41.5 58.5t-53.5 50t-72 20.5q-34 0 -65.5 -13.5t-64.5 -47t-53 -103t-20 -168.5v-109z" />
<glyph unicode="&#xfb02;" horiz-adv-x="1138" d="M971 1421v-1247q0 -45 8 -72t28 -41t43 -18.5t62 -5.5v-37h-448v37q39 1 62 5.5t43 18.5t28 41t8 72v668h-408v-574q0 -77 2.5 -108.5t18.5 -66.5t51 -45.5t98 -10.5v-37h-510v37q44 0 73.5 4.5t49 19.5t30 28t15 46.5t5.5 56.5t1 76v574h-178v73h178q0 120 23.5 212 t60 146.5t86.5 89t96.5 46.5t96.5 12q112 0 201 -73l131 73h45zM805 915v293h-4q-23 -30 -64 -30q-23 0 -44.5 17.5t-38.5 42.5t-35.5 50t-42.5 42.5t-52 17.5q-57 0 -92 -50t-35 -108v-275h408z" />
</font>
</defs>
</svg>
