<?xml version="1.0" standalone="no"?>
<!DOCTYPE svg PUBLIC "-//W3C//DTD SVG 1.1//EN" "http://www.w3.org/Graphics/SVG/1.1/DTD/svg11.dtd" >
<svg xmlns="http://www.w3.org/2000/svg" xmlns:xlink="http://www.w3.org/1999/xlink" version="1.1">
<metadata></metadata>
<defs>
<font id="times_new_roman_psbold_italic" horiz-adv-x="1024" >
<font-face units-per-em="2048" ascent="1638" descent="-410" />
<missing-glyph horiz-adv-x="512" />
<glyph horiz-adv-x="0" />
<glyph horiz-adv-x="682" />
<glyph unicode=" "  horiz-adv-x="512" />
<glyph unicode="&#x09;" horiz-adv-x="512" />
<glyph unicode="&#xa0;" horiz-adv-x="512" />
<glyph unicode="!" horiz-adv-x="796" d="M115 137q0 69 48.5 117.5t117.5 48.5t117 -48.5t48 -117.5t-48 -117.5t-117 -48.5t-117.5 48.5t-48.5 117.5zM334 387q10 75 37.5 291.5t46 345.5t28.5 170q25 98 65.5 145t113.5 47q47 0 73.5 -32.5t26.5 -93.5q0 -56 -31 -136t-188 -432q-26 -59 -41.5 -94t-42.5 -95.5 t-51 -115.5h-37z" />
<glyph unicode="&#x22;" horiz-adv-x="1136" d="M338 721q0 349 5.5 447t29.5 137q51 81 162 81q59 0 91.5 -35t32.5 -87q0 -65 -79 -203l-197 -340h-45zM825 721q0 349 5.5 447t29.5 137q51 81 162 81q59 0 92 -35t33 -87q0 -63 -80 -203l-197 -340h-45z" />
<glyph unicode="#" d="M92 397v131h162l59 293h-221v131h246l88 432h131l-88 -432h293l88 432h131l-88 -432h141v-131h-166l-59 -293h225v-131h-252l-86 -426h-131l86 426h-293l-86 -426h-131l86 426h-135zM385 528h293l59 293h-293z" />
<glyph unicode="$" d="M80 68l92 325h39q1 -42 4 -72.5t11 -70.5t21.5 -68.5t38 -56.5t58.5 -45l152 526q-54 51 -91 91.5t-75 94.5t-57 113t-19 123q0 106 57.5 189t147.5 126t194 43h68l16 56h78l-20 -70q135 -27 229 -90l-94 -291h-39q10 55 10 103q0 68 -34 122t-95 80l-131 -456 q23 -24 67 -67t68 -67.5t57 -65.5t50 -75.5t30 -83t13 -100.5q0 -130 -69 -225.5t-176.5 -141t-234.5 -45.5h-57l-37 -125h-78l39 140q-92 13 -233 84zM414 59q32 -4 47 -4q95 0 160 72t65 168q0 132 -131 256zM479 1108q0 -55 29 -112t72 -97l118 416q-104 0 -161.5 -59 t-57.5 -148z" />
<glyph unicode="%" horiz-adv-x="1705" d="M221 920q0 112 47 217t138.5 176t205.5 71q110 0 175 -70.5t65 -180.5q0 -83 -28.5 -167.5t-78.5 -153.5t-126.5 -113t-163.5 -44q-113 0 -173.5 75t-60.5 190zM242 -31l1222 1417h123l-1222 -1417h-123zM393 788q0 -79 68 -79q19 0 36 7t29.5 23.5t22 30t18.5 39 t13 38.5t11 41t9 34q80 262 80 333q0 33 -18.5 54.5t-49.5 21.5q-15 0 -28.5 -5t-25 -15.5t-20.5 -21.5t-18 -28.5t-14.5 -30t-12.5 -34t-10 -32t-9 -31t-7 -25.5q-74 -266 -74 -320zM979 236q0 112 47 217t138.5 176t205.5 71q110 0 175 -70.5t65 -180.5 q0 -83 -28.5 -167.5t-79 -153.5t-127 -113t-163.5 -44q-113 0 -173 75t-60 190zM1151 104q0 -79 68 -79q19 0 36 7t29.5 23.5t22 30t18.5 39t13 38.5t11 41t9 34q80 262 80 333q0 33 -18.5 54.5t-49.5 21.5q-15 0 -28.5 -5t-25 -15.5t-20.5 -21.5t-18 -28.5t-14.5 -30 t-12.5 -34t-10 -32t-9 -31t-7 -25.5q-74 -266 -74 -320z" />
<glyph unicode="&#x26;" horiz-adv-x="1593" d="M90 260q0 59 22.5 114t75.5 117.5t154.5 127.5t247.5 129q-15 96 -15 167q0 88 29.5 172t81.5 150.5t130 107.5t169 41q113 0 179.5 -57t66.5 -147q0 -60 -23 -113.5t-57 -92.5t-86 -76t-97.5 -60.5t-103.5 -48.5q26 -91 43.5 -148t48.5 -132.5t66 -133.5q40 39 73 104 t33 115q0 34 -22.5 60t-56.5 30l10 37h385l-10 -37q-39 0 -93.5 -47t-99.5 -105.5t-98.5 -128t-81.5 -96.5q23 -32 37 -50.5t40 -46.5t48 -43.5t52.5 -27.5t61.5 -12q35 0 59 11t52 36h33q-37 -94 -119 -150.5t-184 -56.5q-89 0 -157.5 37.5t-133.5 110.5 q-200 -148 -416 -148q-82 0 -149.5 26t-109 68.5t-63.5 93t-22 103.5zM391 385q0 -105 66 -190.5t168 -85.5q78 0 182 67q-136 208 -201 496q-215 -105 -215 -287zM819 1098q0 -104 27 -232q80 53 126 131t46 172q0 23 -4 45.5t-13.5 45t-27.5 36t-43 13.5q-111 0 -111 -211 z" />
<glyph unicode="'" horiz-adv-x="569" d="M297 721q0 349 5.5 447t29.5 137q51 81 162 81q59 0 91.5 -35t32.5 -87q0 -65 -79 -203l-197 -340h-45z" />
<glyph unicode="(" horiz-adv-x="681" d="M133 322q0 175 62 343.5t169 305.5t250 245t306 170l-19 -55q-131 -86 -241 -245.5t-178.5 -342.5t-106 -370t-37.5 -346q0 -167 80 -359l-17 -57q-121 155 -194.5 341.5t-73.5 369.5z" />
<glyph unicode=")" horiz-adv-x="681" d="M-262 -389l18 55q131 86 241 245.5t178.5 343t106 370.5t37.5 346q0 168 -79 358l16 57q121 -155 194.5 -341t73.5 -369q0 -175 -62 -344t-168.5 -306t-249.5 -245t-306 -170z" />
<glyph unicode="*" d="M215 1063q0 44 29 73t73 29q36 0 72.5 -23.5t63 -52.5t65 -58.5t74.5 -39.5q0 54 -21 108.5t-42 98.5t-21 72q0 44 30.5 80t73.5 36t74 -36t31 -80q0 -28 -21 -72t-42 -98.5t-21 -108.5q30 8 60 29t54.5 45t49 47t53 38t57.5 15q44 0 73.5 -29t29.5 -73q0 -49 -40 -77 t-91 -28h-238q23 -31 59 -56t68.5 -41.5t62.5 -35.5t48 -47.5t18 -68.5q0 -37 -30 -65t-68 -28q-40 0 -64 20t-36 56t-20.5 75.5t-25 88.5t-41.5 84q-25 -35 -41.5 -84t-24.5 -88.5t-20 -75.5t-36 -56t-64 -20q-38 0 -68 28t-30 65q0 40 18 68.5t48 47.5t62.5 35.5 t68.5 41.5t59 56h-238q-51 0 -91 28t-40 77z" />
<glyph unicode="+" horiz-adv-x="1167" d="M92 612v131h481v482h132v-482h481v-131h-481v-481h-132v481h-481z" />
<glyph unicode="," horiz-adv-x="512" d="M-59 -289q116 65 157 100q62 53 62 103q0 27 -21 53.5t-45.5 45.5t-45.5 54t-21 76q0 66 48 113t113 47q76 0 123 -56t47 -134q0 -76 -35.5 -149t-93.5 -129t-126 -98t-140 -69z" />
<glyph unicode="-" horiz-adv-x="681" d="M10 346l64 207h583l-63 -207h-584z" />
<glyph unicode="." horiz-adv-x="512" d="M-27 137q0 69 48.5 117.5t117.5 48.5t117.5 -48.5t48.5 -117.5t-48.5 -117.5t-117.5 -48.5t-117.5 48.5t-48.5 117.5z" />
<glyph unicode="/" horiz-adv-x="569" d="M-170 -31l877 1417h141l-877 -1417h-141z" />
<glyph unicode="0" d="M113 367q0 122 30.5 262t87.5 272.5t130.5 241.5t168 175t191.5 66q80 0 140 -35t93.5 -94.5t49.5 -127t16 -142.5q0 -134 -31 -277.5t-88.5 -274t-133 -234.5t-172 -166t-196.5 -62q-75 0 -132.5 36.5t-89.5 96t-48 126.5t-16 137zM311 152q0 -46 23.5 -78.5t68.5 -32.5 q27 0 46.5 7t40 32.5t36.5 56.5t40 99t45.5 138.5t58.5 194.5q87 293 119 424.5t32 210.5q0 46 -23.5 78.5t-68.5 32.5q-27 0 -46.5 -7t-40 -33t-36 -56.5t-40 -99.5t-45.5 -138t-58 -195q-89 -297 -120.5 -426.5t-31.5 -207.5z" />
<glyph unicode="1" d="M47 0l12 37q124 0 170 30t84 142l19 59l182 629q3 12 20 68.5t28 100t11 64.5q0 50 -27.5 75.5t-78.5 25.5t-98 -6l-9 37l510 122h41l-336 -1157q-22 -74 -22 -94q0 -96 188 -96l-10 -37h-684z" />
<glyph unicode="2" d="M8 0v37q142 142 223 223.5t168.5 173t129 138.5t86.5 105t60.5 88t31 72.5t18 73.5t2.5 76q0 88 -57.5 144.5t-145.5 56.5q-72 0 -135 -43t-100 -109l-37 17q43 146 149.5 238.5t253.5 92.5q133 0 233.5 -84.5t100.5 -214.5q0 -62 -12.5 -111.5t-51.5 -119t-114 -152.5 t-197.5 -199t-304.5 -272h240q44 0 66 1t55 4.5t51.5 12.5t42 25t42 41t36.5 60h47l-160 -375h-721z" />
<glyph unicode="3" d="M25 98q0 45 31.5 76t76.5 31q32 0 71.5 -20t71.5 -44.5t72.5 -44.5t73.5 -20q45 0 81 31t56 77.5t30.5 94t10.5 88.5q0 162 -89 261t-249 109l12 43q53 5 110.5 19.5t117.5 41.5t107.5 62t77.5 86t30 109q0 70 -48 116t-118 46q-109 0 -203 -130l-41 19q74 113 159 174 t204 61q120 0 207.5 -70.5t87.5 -187.5q0 -54 -20.5 -100.5t-52.5 -79t-77.5 -59t-89 -42.5t-92.5 -28v-4q104 -38 159.5 -121.5t55.5 -199.5q0 -113 -52 -212.5t-136 -166t-190.5 -104.5t-215.5 -38q-37 0 -71.5 5t-72.5 17.5t-61.5 39.5t-23.5 65z" />
<glyph unicode="4" d="M37 287l49 168l811 929h131l-272 -929h157l-53 -168h-153l-93 -316h-227l92 316h-442zM182 455h348l166 583l-4 4z" />
<glyph unicode="5" d="M78 109q0 41 32.5 73.5t73.5 32.5q38 0 65.5 -13.5t46 -32.5t38.5 -38.5t55.5 -33t85.5 -13.5q82 0 133 90t51 188q0 183 -113 304.5t-302 121.5l276 568h512l-67 -232h-476l-59 -125q192 -19 320.5 -142t128.5 -310q0 -155 -81 -288.5t-216 -210.5t-289 -77q-35 0 -70 7 t-68.5 22t-55 43t-21.5 66z" />
<glyph unicode="6" d="M123 391q0 119 35 241.5t96.5 231.5t149 205t188 165.5t217.5 109.5t235 40v-36q-89 -18 -170.5 -69t-146 -123.5t-114.5 -152.5t-89 -169q88 30 162 30q86 0 147 -47.5t88 -118.5t27 -157q0 -82 -20.5 -163.5t-61.5 -154.5t-97 -129.5t-133.5 -89.5t-164.5 -33 q-89 0 -157.5 34t-109 93t-61 133t-20.5 160zM348 188q0 -63 27 -108t86 -45q58 0 106 70t74.5 169t40.5 188t14 144q0 63 -31 114.5t-90 51.5q-20 0 -83 -14q-144 -394 -144 -570z" />
<glyph unicode="7" d="M242 995l182 361h711v-45l-797 -1340l-80 45l653 1098h-303q-43 0 -64.5 -0.5t-58.5 -3.5t-60 -11t-51.5 -20.5t-51.5 -33.5t-43 -50h-37z" />
<glyph unicode="8" d="M76 299q0 74 28.5 141t77.5 118t109.5 89t130.5 62q-129 160 -129 319q0 42 10.5 86t37.5 93.5t68 88t109.5 63.5t153.5 25q139 0 237.5 -80t98.5 -217q0 -116 -84.5 -200t-206.5 -121q49 -63 71 -93.5t50.5 -79t39.5 -90.5t11 -89t-12.5 -101t-45 -116t-81 -111.5 t-129 -82t-179.5 -32.5q-156 0 -261 87.5t-105 240.5zM299 217q0 -75 31 -128.5t100 -53.5q64 0 111.5 49.5t67.5 113t20 126.5q0 95 -43 169.5t-127 165.5q-43 -30 -75.5 -84.5t-50 -118t-26 -123.5t-8.5 -116zM553 1102q0 -85 30 -150t93 -141q108 54 108 326 q0 184 -100 184q-47 0 -78 -35t-42 -82t-11 -102z" />
<glyph unicode="9" d="M88 8q89 18 170.5 69t146 123.5t114.5 152.5t89 169q-88 -30 -162 -30q-86 0 -147 47.5t-88 118.5t-27 157q0 103 33 203.5t92.5 182.5t151.5 132.5t201 50.5q89 0 157.5 -33.5t109 -92.5t61 -133t20.5 -160q0 -143 -49 -289t-137.5 -271t-202.5 -223.5t-253 -154.5 t-280 -56v37zM436 750q0 -63 31 -114.5t90 -51.5q21 0 84 14q143 391 143 569q0 63 -26.5 108.5t-85.5 45.5q-58 0 -106 -70t-75 -169t-41 -188t-14 -144z" />
<glyph unicode=":" horiz-adv-x="681" d="M82 137q0 69 48.5 117.5t117.5 48.5t117.5 -48.5t48.5 -117.5t-48.5 -117.5t-117.5 -48.5t-117.5 48.5t-48.5 117.5zM266 760q0 69 48.5 117.5t117.5 48.5t117.5 -48.5t48.5 -117.5t-48.5 -117.5t-117.5 -48.5t-117.5 48.5t-48.5 117.5z" />
<glyph unicode=";" horiz-adv-x="681" d="M-2 -289q116 65 157 100q62 53 62 103q0 27 -21 53.5t-45.5 45.5t-45.5 54t-21 76q0 65 48.5 112.5t113.5 47.5q76 0 123 -56t47 -134q0 -76 -35.5 -149t-94 -129t-126.5 -98t-140 -69zM266 760q0 69 48.5 117.5t117.5 48.5t117.5 -48.5t48.5 -117.5t-48.5 -117.5 t-117.5 -48.5t-117.5 48.5t-48.5 117.5z" />
<glyph unicode="&#x3c;" horiz-adv-x="1167" d="M92 637v82l1094 450v-143l-846 -348l846 -348v-144z" />
<glyph unicode="=" horiz-adv-x="1167" d="M92 453v131h1094v-131h-1094zM92 776v131h1094v-131h-1094z" />
<glyph unicode="&#x3e;" horiz-adv-x="1167" d="M92 186v144l846 348l-846 348v143l1094 -450v-82z" />
<glyph unicode="?" d="M178 137q0 69 48.5 117.5t117.5 48.5t117.5 -48.5t48.5 -117.5t-48.5 -117.5t-117.5 -48.5t-117.5 48.5t-48.5 117.5zM279 1143q0 62 31 111t81 76.5t106 41.5t113 14q155 0 260 -72.5t105 -199.5q0 -78 -32.5 -145t-84.5 -115.5t-115 -92.5t-126 -85t-115 -82.5 t-84.5 -95.5t-32.5 -115h-43q0 98 40.5 187t98 157.5t114.5 135t97.5 145t40.5 161.5q0 72 -36 123t-105 51q-35 0 -64.5 -18.5t-29.5 -52.5q0 -18 26.5 -67.5t26.5 -90.5q0 -52 -39.5 -90.5t-91.5 -38.5q-65 0 -103 45.5t-38 112.5z" />
<glyph unicode="@" horiz-adv-x="1703" d="M0 418q0 266 121.5 476.5t334.5 326.5t478 116q137 0 252 -35.5t195 -96t135.5 -143.5t81.5 -176.5t26 -195.5q0 -101 -24 -200t-72.5 -187.5t-116 -156t-161.5 -107t-201 -39.5q-89 0 -143 43.5t-54 130.5q0 38 20 121l-4 4q-166 -299 -323 -299q-84 0 -125 63t-41 152 q0 127 50 259.5t124 230t163 159.5t165 62q62 0 95 -42.5t38 -105.5h4l33 121l235 12l-174 -592q-35 -137 -35 -172q0 -33 23 -55t57 -22q40 0 92.5 27t109 80t104 123t78 165.5t30.5 196.5q0 277 -172.5 445.5t-450.5 168.5q-183 0 -342.5 -70.5t-269.5 -190t-173 -282.5 t-63 -344q0 -221 96 -394.5t269 -270.5t393 -97q170 0 328.5 64t281 186.5t177.5 282.5h59q-106 -276 -331 -431t-519 -155q-243 0 -438 107t-305.5 300.5t-110.5 436.5zM625 268q0 -31 15 -61.5t44 -30.5t77.5 51t95 128t80.5 180.5t34 195.5q0 42 -16 83.5t-52 41.5 q-47 0 -99 -71.5t-90.5 -168.5t-63.5 -195t-25 -153z" />
<glyph unicode="A" horiz-adv-x="1366" d="M-117 0l11 37q35 3 73 24.5t72.5 55t61.5 64.5t55 66q7 9 10 13l946 1126h45q-6 -141 -19 -442t-21.5 -504.5t-8.5 -259.5q0 -73 29.5 -108t91.5 -35l-10 -37h-588l10 37q31 0 47 1.5t42.5 10.5t41 27t27.5 53.5t16 87.5l14 219h-419l-164 -198q-68 -78 -68 -129 q0 -37 36 -54.5t81 -17.5l-10 -37h-402zM479 518h350l25 432l-4 4z" />
<glyph unicode="B" horiz-adv-x="1366" d="M-66 0l11 37q40 0 68.5 4t51.5 16.5t38.5 27t29.5 44t24.5 59.5t24.5 80l236 819q2 9 11 40t15.5 58t6.5 38q0 28 -11 47t-25 28.5t-40 14.5t-42 5.5t-46 0.5l10 37h639q164 0 268.5 -68.5t104.5 -197.5q0 -276 -437 -363v-4q66 -16 120 -40.5t102 -63t75 -96.5t27 -130 q0 -25 -4.5 -53t-20.5 -67.5t-41 -75.5t-70.5 -73t-104 -63.5t-147.5 -43.5t-196 -17h-678zM414 78h100q93 0 164 34.5t108.5 81.5t61.5 105.5t30.5 97t6.5 64.5q0 40 -12 77t-38.5 70.5t-75 53.5t-114.5 20h-59zM610 760q98 0 173 29.5t114 69.5t63.5 91t30.5 85t6 61 q0 102 -46.5 146t-133.5 44h-55z" />
<glyph unicode="C" horiz-adv-x="1366" d="M135 506q0 151 52.5 290t142.5 244.5t205.5 184.5t246.5 120t260 41q79 0 207 -34q59 -19 90 -19q52 0 101 53h37l-103 -430h-37q-1 69 -18.5 130t-51.5 111t-90.5 79t-129.5 29q-86 0 -166.5 -40t-143.5 -107.5t-116.5 -155.5t-88 -184.5t-54 -194.5t-19.5 -185 q0 -159 78.5 -256.5t234.5 -97.5q130 0 229.5 56.5t186.5 164.5h51q-70 -111 -146 -182.5t-179 -112.5t-230 -41q-248 0 -398.5 145t-150.5 392z" />
<glyph unicode="D" horiz-adv-x="1478" d="M-66 0l11 37q40 0 68.5 4t51.5 16.5t38.5 27t29.5 44t24.5 59.5t24.5 80l236 819q2 9 11 40t15.5 58t6.5 38q0 28 -11 47t-25 28.5t-40 14.5t-42 5.5t-46 0.5l10 37h481q120 0 218.5 -20.5t165.5 -54t118 -81.5t80.5 -96.5t47.5 -105t24 -102.5t6 -93q0 -65 -11 -132.5 t-41 -148t-76.5 -153t-123.5 -141t-174.5 -118.5t-237 -80t-305.5 -30h-535zM455 147q0 -38 34 -53.5t78 -15.5q88 0 166.5 35.5t136.5 96t105 138t76 164.5t44 172.5t15 163.5q0 68 -11 128.5t-36 116.5t-63 96.5t-96 64.5t-130 24l-291 -1006q-2 -6 -7.5 -27.5t-9.5 -36 t-7.5 -32.5t-3.5 -29z" />
<glyph unicode="E" horiz-adv-x="1366" d="M-66 0l11 37q40 0 68.5 4t51.5 16.5t38.5 27t29.5 44t24.5 59.5t24.5 80l236 819q2 9 11 40t15.5 58t6.5 38q0 28 -11 47t-25 28.5t-40 14.5t-42 5.5t-46 0.5l10 37h1096l-88 -340h-37q0 76 -23.5 128t-53.5 78t-90.5 39t-99.5 15t-116 2h-111l-149 -522q48 0 79.5 1 t70.5 4t65.5 9t57 16.5t53 27t46 38.5t43 52.5t37.5 68.5h37l-151 -529h-37q10 48 10 82q0 45 -16 74t-37 45t-72.5 23.5t-89 8.5t-121.5 1l-123 -428q-24 -87 -24 -111q0 -61 149 -61q150 0 317 80.5t269 214.5h41l-142 -373h-1153z" />
<glyph unicode="F" horiz-adv-x="1366" d="M-66 0l11 37q40 0 68.5 4t51.5 16.5t38.5 27t29.5 44t24.5 59.5t24.5 80l236 819q2 9 11 40t15.5 58t6.5 38q0 28 -11 47t-25 28.5t-40 14.5t-42 5.5t-46 0.5l10 37h1116l-88 -340h-37q0 76 -23.5 128t-53.5 78t-90.5 39t-99.5 15t-116 2h-131l-149 -522q60 0 97.5 2 t84.5 8.5t78 20.5t65 37.5t60.5 60.5t50.5 88h37l-152 -529h-37q11 53 11 82q0 28 -4.5 50t-17.5 38t-25 27t-38 18t-44 11t-56.5 5.5t-62 2t-72.5 0.5l-117 -410q-2 -8 -10.5 -39t-15 -58t-6.5 -38q0 -28 11 -47t24.5 -28.5t39.5 -14.5t42 -5t46 -1l-10 -37h-670z" />
<glyph unicode="G" horiz-adv-x="1478" d="M135 559q0 147 53.5 279t146 230.5t213 171t258.5 109.5t279 37q46 0 88 -4.5t65 -9.5t85 -18q65 -17 82 -17q49 0 82 49h39l-101 -434h-36q-2 82 -18.5 144.5t-50.5 112t-93.5 75t-143.5 25.5q-109 0 -209.5 -55t-175 -144.5t-130.5 -201.5t-84.5 -229.5t-28.5 -223.5 q0 -187 86 -301.5t213 -114.5q47 0 125 29l98 333q2 9 11 40t15.5 58t6.5 38q0 34 -14 55t-40.5 29t-44 10t-45.5 2l11 37h587l-10 -37q-70 0 -103 -46t-73 -186l-104 -352q-195 -80 -441 -80q-108 0 -197.5 24.5t-150 64t-107 93.5t-73 107.5t-43 113t-22 103.5t-5.5 84z " />
<glyph unicode="H" horiz-adv-x="1593" d="M-66 0l11 37q40 0 68.5 4t51.5 16.5t38.5 27t29.5 44t24.5 59.5t24.5 80l236 819q2 9 11 40t15.5 58t6.5 38q0 28 -11 47t-25 28.5t-40 14.5t-42 5.5t-46 0.5l10 37h670l-11 -37q-48 0 -80.5 -7.5t-56 -21.5t-41 -44.5t-30 -64.5t-29.5 -94l-105 -356h496l102 356 q2 9 11 40t15.5 58t6.5 38q0 28 -11 47t-25 28.5t-40 14.5t-42 5.5t-46 0.5l11 37h669l-10 -37q-114 0 -156 -44.5t-82 -187.5l-235 -819q-2 -9 -11 -39.5t-15.5 -57.5t-6.5 -38q0 -28 11 -47t25 -28.5t40 -14.5t42 -5t46 -1l-10 -37h-670l10 37q60 0 96.5 9.5t63 39.5 t42 68.5t36.5 113.5l108 379h-493l-109 -379q-2 -8 -10.5 -39t-15 -58t-6.5 -38q0 -28 11 -47t24.5 -28.5t39.5 -14.5t42 -5t46 -1l-10 -37h-670z" />
<glyph unicode="I" horiz-adv-x="796" d="M-66 0l11 37q40 0 68.5 4t51.5 16.5t38.5 27t29.5 44t24.5 59.5t24.5 80l236 819q2 9 11 40t15.5 58t6.5 38q0 28 -11 47t-25 28.5t-40 14.5t-42 5.5t-46 0.5l10 37h670l-11 -37q-48 0 -80.5 -7.5t-56 -21.5t-41 -44.5t-30 -64.5t-29.5 -94l-236 -819q-2 -8 -10.5 -39 t-15 -58t-6.5 -38q0 -28 11 -47t24.5 -28.5t39.5 -14.5t42 -5t46 -1l-10 -37h-670z" />
<glyph unicode="J" d="M-16 176q0 67 43.5 116.5t109.5 49.5q48 0 83.5 -34t35.5 -81q0 -32 -17.5 -59.5t-35 -48t-17.5 -35.5q0 -22 22.5 -34.5t47.5 -12.5q46 0 77.5 32.5t75 140.5t107.5 327l162 550q2 9 11 40t15.5 58t6.5 38q0 28 -11 47t-25 28.5t-40 14.5t-42 5.5t-46 0.5l10 37h670 l-10 -37q-114 0 -156 -44.5t-82 -187.5l-131 -452q-29 -99 -50 -164t-52.5 -142t-62 -125.5t-74.5 -97.5t-94 -76t-116.5 -44t-146.5 -17q-73 0 -130.5 18.5t-97.5 67t-40 121.5z" />
<glyph unicode="K" horiz-adv-x="1366" d="M-66 0l11 37q40 0 68.5 4t51.5 16.5t38.5 27t29.5 44t24.5 59.5t24.5 80l236 819q2 9 11 40t15.5 58t6.5 38q0 28 -11 47t-25 28.5t-40 14.5t-42 5.5t-46 0.5l10 37h649l-10 -37q-99 0 -138 -45t-79 -187l-96 -329l4 -4l379 346q55 51 76.5 80.5t21.5 58.5q0 35 -29 56 t-67 24l10 37h512l-10 -37q-107 -3 -190 -53t-259 -211l-197 -178l195 -611q24 -75 49 -123.5t51.5 -70t48 -28.5t50.5 -7l-11 -37h-587l10 37q51 0 83 28t32 78q0 39 -39 164l-133 434h-5l-135 -473q-2 -8 -10.5 -39t-15 -58t-6.5 -38q0 -27 11 -46.5t24.5 -29t38 -14.5 t39 -5t40.5 -1l-10 -37h-660z" />
<glyph unicode="L" horiz-adv-x="1251" d="M-66 0l11 37q40 0 68.5 4t51.5 16.5t38.5 27t29.5 44t24.5 59.5t24.5 80l236 819q2 9 11 40t15.5 58t6.5 38q0 28 -11 47t-25 28.5t-40 14.5t-42 5.5t-46 0.5l10 37h670l-11 -37q-48 0 -80.5 -7.5t-56 -21.5t-41 -44.5t-30 -64.5t-29.5 -94l-238 -817q-26 -95 -26 -135 q0 -31 29 -44t65 -13q171 0 330 81.5t251 221.5h44l-152 -381h-1088z" />
<glyph unicode="M" horiz-adv-x="1820" d="M-66 0l11 37q53 0 93.5 17.5t68 51.5t45 71.5t32.5 90.5l287 977q-36 46 -76 60t-110 14l10 37h483l101 -932l645 932h473l-10 -37q-49 0 -84 -10t-58.5 -25.5t-42 -47.5t-30.5 -63.5t-27 -85.5l-238 -823q-30 -109 -30 -131q0 -33 12.5 -53.5t37 -29t45.5 -11t54 -2.5 l-10 -37h-676l10 37q64 0 106 12.5t70 43.5t44.5 68.5t35.5 102.5l246 846l-4 4l-770 -1114h-41l-121 1135h-4l-248 -867q-2 -9 -7.5 -28.5t-8.5 -30.5t-5.5 -27t-2.5 -30q0 -62 44 -88.5t109 -26.5l-10 -37h-449z" />
<glyph unicode="N" horiz-adv-x="1478" d="M-66 0l11 37q56 0 97 17.5t67 53t40.5 69t30.5 85.5l279 963q-44 52 -86 73t-111 21l10 37h459l424 -903l184 628q23 94 23 123q0 61 -37.5 85.5t-103.5 29.5l10 37h430l-10 -37q-57 -3 -96 -19.5t-64.5 -51.5t-40 -69.5t-31.5 -93.5l-325 -1099h-37l-543 1155l-256 -877 q-20 -70 -20 -106q0 -121 149 -121l-10 -37h-443z" />
<glyph unicode="O" horiz-adv-x="1478" d="M113 451q0 133 48 270t134 254.5t196.5 210.5t245 146.5t269.5 53.5q125 0 233 -60.5t172 -166.5t64 -231q0 -94 -27.5 -200t-78.5 -213.5t-130 -205.5t-174.5 -174t-220 -121t-258.5 -45q-73 0 -135 14.5t-106.5 38t-81.5 57t-60 68t-41 75t-27 73.5t-14.5 67.5 t-6.5 53.5t-1 35zM432 301q0 -66 17 -120.5t63 -94t117 -39.5q79 0 153 55t130 144t103 198.5t77 221t46.5 208.5t16.5 164q0 50 -7.5 93t-26.5 85.5t-58 67.5t-94 25q-81 0 -153.5 -47t-125 -122.5t-97.5 -172.5t-74 -196t-49 -194t-29 -165t-9 -111z" />
<glyph unicode="P" horiz-adv-x="1251" d="M-66 0l11 37q40 0 68.5 4t51.5 16.5t38.5 27t29.5 44t24.5 59.5t24.5 80l236 819q2 9 11 40t15.5 58t6.5 38q0 28 -11 47t-25 28.5t-40 14.5t-42 5.5t-46 0.5l10 37h629q87 0 155 -19.5t111.5 -51t71.5 -75t39.5 -88.5t11.5 -94q0 -84 -40.5 -161t-112 -134.5t-176.5 -92 t-226 -34.5q-61 0 -182 17l-103 -355q-2 -9 -11 -39.5t-15.5 -57.5t-6.5 -38q0 -28 11 -47t25 -28.5t40 -14.5t42 -5t46 -1l-10 -37h-662zM598 700q53 -8 119 -8q79 0 146 58t104 147.5t37 183.5q0 92 -53 144.5t-144 52.5h-43z" />
<glyph unicode="Q" horiz-adv-x="1478" d="M113 451q0 133 48 270t134 254.5t196.5 210.5t245 146.5t269.5 53.5q125 0 233 -60.5t172 -166.5t64 -231q0 -163 -73 -333t-190.5 -305t-276.5 -224.5t-321 -96.5l-172 -153l4 -4q90 16 152 16q90 0 262 -49t230 -49q79 0 162 34.5t137 92.5l30 -29q-103 -134 -263 -202 t-339 -68q-119 0 -246 43q-50 14 -74.5 20.5t-75.5 13.5t-104 7q-84 0 -157 -23l-19 25l369 325q-181 17 -289 156t-108 326zM432 301q0 -66 17 -120.5t63 -94t117 -39.5q79 0 153 55t130 144t103 198.5t77 221t46.5 208.5t16.5 164q0 50 -7.5 93t-26.5 85.5t-58 67.5 t-94 25q-81 0 -153.5 -47t-125 -122.5t-97.5 -172.5t-74 -196t-49 -194t-29 -165t-9 -111z" />
<glyph unicode="R" horiz-adv-x="1366" d="M-66 0l13 37h14q39 -1 69 9q36 12 56.5 25t41 52t27 57.5t23.5 75.5q3 8 4 12l238 824q26 107 26 135q0 16 -4.5 29t-9 21.5t-16.5 15.5l-18 10.5t-24 7t-23.5 4t-26 2.5t-23.5 2l10 37h529q245 0 357 -70t112 -250q0 -111 -99.5 -212.5t-269.5 -139.5l115 -387 q47 -161 87.5 -210.5t137.5 -49.5l-10 -37h-422l-193 659h-67l-113 -385q-33 -116 -33 -141q0 -27 10.5 -46t23 -28t39 -14.5t40 -6t45.5 -1.5l-12 -37h-654zM602 721h82q92 0 165.5 53.5t110.5 132t37 162.5q0 98 -46 153.5t-140 55.5h-45z" />
<glyph unicode="S" horiz-adv-x="1138" d="M-41 -31l121 516h37q6 -84 28.5 -158t64 -137t110 -100t157.5 -37q92 0 158.5 64t66.5 155q0 56 -23.5 110.5t-61.5 100.5t-84 93t-92 96t-84 100t-61.5 114.5t-23.5 131.5q0 84 37 154.5t98 116.5t137.5 71.5t157.5 25.5q84 0 224 -36q9 -2 29 -8t31.5 -8.5t29 -5.5 t31.5 -3q36 0 56.5 13t51.5 48h43l-111 -460h-36q-1 63 -21.5 127.5t-57 119t-93.5 89t-123 34.5q-83 0 -141 -60t-58 -142q0 -54 24 -106t62.5 -96t85 -89t93 -92.5t85 -98t62.5 -114.5t24 -133q0 -98 -40.5 -175.5t-108.5 -124.5t-152 -71.5t-176 -24.5q-86 0 -231 29 q-124 22 -154 22q-40 0 -67.5 -11.5t-65.5 -39.5h-39z" />
<glyph unicode="T" horiz-adv-x="1251" d="M168 0l10 37q60 0 96.5 9.5t63 39.5t42 68.5t36.5 113.5l295 1000h-12q-289 0 -443 -277h-39l107 365h1091l-102 -365h-37v84q0 90 -74.5 140.5t-189.5 52.5l-295 -1000q-2 -9 -11 -39.5t-15.5 -57.5t-6.5 -38q0 -28 11 -47t25 -28.5t40 -14.5t42 -5t46 -1l-10 -37h-670z " />
<glyph unicode="U" horiz-adv-x="1478" d="M197 305q0 73 47 238l153 544q2 9 11 40t15.5 58t6.5 38q0 28 -11 47t-25 28.5t-40 14.5t-42 5.5t-46 0.5l10 37h670l-10 -37q-114 0 -156 -44.5t-82 -187.5l-155 -544q-49 -176 -49 -254q0 -107 74.5 -160t185.5 -53q66 0 121 16.5t96 50t72 72t56.5 94t42 102.5 t34.5 111l161 559q23 94 23 123q0 62 -42 86t-130 29l10 37h461l-10 -37q-57 -3 -96 -19.5t-64.5 -51.5t-40 -69.5t-31.5 -93.5l-164 -571q-18 -62 -33.5 -106.5t-43 -105.5t-57 -104t-76 -89t-101 -74.5t-129 -47t-162.5 -18.5t-160 16.5t-118 42t-81 60.5t-52 66.5 t-27.5 65.5t-13 52.5t-2.5 32.5z" />
<glyph unicode="V" horiz-adv-x="1366" d="M244 1319l10 37h569l-10 -37q-40 0 -68 -13.5t-43.5 -32.5t-25 -55.5t-12.5 -67.5t-5 -83l-28 -672l4 -4l506 590q110 124 144 186q24 44 24 72q0 21 -9.5 36t-27.5 23.5t-32.5 12.5t-37.5 8l10 37h385l-10 -37q-22 -4 -45.5 -16.5t-40.5 -25.5t-40.5 -37t-35 -37 t-35.5 -42.5t-30 -36.5l-995 -1155h-46l48 1237q0 62 -28 84t-95 29z" />
<glyph unicode="W" horiz-adv-x="1820" d="M256 1319l10 37h551l-10 -37q-50 0 -79.5 -9.5t-45.5 -37t-21.5 -57t-9.5 -89.5l-51 -659l4 -4l404 559l14 190q0 107 -113 107l11 37h550l-10 -37q-40 0 -68 -10.5t-43 -24.5t-24 -43t-12 -51t-6 -64l-50 -659l5 -4l374 522q2 3 23 31.5t34 47t33.5 50t33 53.5t22.5 45 t10 37q0 60 -109 70l11 37h362l-10 -37q-27 0 -52.5 -12.5t-52.5 -40.5t-46.5 -52.5t-51.5 -69.5q-7 -9 -10 -14l-846 -1161h-59l69 912l-4 4l-663 -916h-60l97 1245q0 56 -27 79t-84 26z" />
<glyph unicode="X" horiz-adv-x="1366" d="M-123 0l10 37q86 0 338 231l391 359l-200 471q-20 46 -31 70.5t-27.5 54.5t-30.5 44t-33.5 28t-42 19t-52.5 5l10 37h596l-10 -37q-107 0 -107 -82q0 -12 2.5 -25.5t4.5 -22.5t8.5 -26t8.5 -21.5t11.5 -25.5t9.5 -22l109 -258l149 135q221 197 221 270q0 38 -31.5 58 t-72.5 20l10 37h447l-11 -37q-43 0 -109 -48.5t-224 -191.5l-349 -317l236 -547q76 -178 182 -178l-10 -37h-600l10 37q51 0 87 21.5t36 68.5q0 11 -2 24.5t-7 30t-9 28.5t-12 32t-11.5 28.5t-13 29.5t-10.5 24l-101 231l-231 -215q-1 -1 -37 -33t-50.5 -47.5t-41 -44.5 t-38 -53t-11.5 -45q0 -41 37.5 -60.5t82.5 -19.5l-10 -37h-471z" />
<glyph unicode="Y" horiz-adv-x="1251" d="M186 0l11 37q52 0 87 8.5t58 21.5t41 45t29 62t28 90l99 334l-109 469q-26 112 -43 148q-44 95 -145 104l10 37h649l-10 -37q-76 0 -129 -32.5t-53 -104.5q0 -34 24 -133l82 -375l205 280q2 2 16.5 22.5t19.5 28t19.5 28.5t21.5 32.5t18.5 31t17.5 33t13 30t10 31t3 26.5 q0 47 -32.5 74.5t-79.5 27.5l10 37h413l-10 -37q-29 0 -49 -6.5t-56 -38t-79 -92.5l-447 -619l-84 -289q-2 -7 -9 -32t-12 -42t-9 -38t-4 -33q0 -31 14 -50.5t42.5 -28t55 -11t68.5 -2.5l-10 -37h-695z" />
<glyph unicode="Z" horiz-adv-x="1251" d="M-59 0v37l1034 1241h-64q-55 0 -86.5 -0.5t-81 -3t-80 -7.5t-73.5 -14t-72 -22.5t-64.5 -33.5t-62.5 -46t-55 -61t-51 -78h-39l114 344h1026v-37l-1034 -1241h125q68 0 125.5 6.5t125 26t126.5 52t121 88.5t117 132h43l-144 -383h-1050z" />
<glyph unicode="[" horiz-adv-x="681" d="M-10 -377l504 1733h432l-11 -37q-37 0 -65 -2t-51 -9t-38.5 -13t-30 -22t-22.5 -27.5t-18 -38.5t-16 -46t-17 -57l-358 -1223q-2 -8 -12.5 -45t-17.5 -66.5t-7 -43.5q0 -16 4.5 -27.5t17 -19t23 -11.5t35 -5.5t40.5 -2t50 -0.5l-10 -37h-432z" />
<glyph unicode="\" horiz-adv-x="569" d="M156 1386h120l138 -1417h-121z" />
<glyph unicode="]" horiz-adv-x="681" d="M-227 -377l10 37q37 0 65 2t51 9t38.5 13t30 22t22.5 27.5t18 38.5t16 46t17 57l358 1223q2 8 12.5 45t17.5 66.5t7 43.5q0 16 -4.5 27.5t-17 19t-23 11.5t-35 5.5t-40.5 2t-50 0.5l10 37h433l-504 -1733h-432z" />
<glyph unicode="^" horiz-adv-x="1167" d="M195 664l411 720h82l404 -720h-156l-293 514l-293 -514h-155z" />
<glyph unicode="_" d="M-16 -154h1056v-102h-1056v102z" />
<glyph unicode="`" horiz-adv-x="681" d="M209 1386h293l106 -344h-78z" />
<glyph unicode="a" d="M41 217q0 113 48 240t122 230t170.5 171t187.5 68q118 0 136 -150h4l34 123l238 12l-201 -690q0 -2 -8 -35.5t-8 -40.5q0 -11 8.5 -20.5t18.5 -9.5q16 0 34.5 12.5t39.5 38.5t29.5 37t25.5 37l34 -19q-134 -250 -325 -250q-51 0 -84 28t-33 79q0 39 57 221l-4 4 q-27 -46 -41 -69t-45.5 -70.5t-57.5 -74.5t-60.5 -58t-72 -45.5t-75.5 -14.5q-47 0 -82 22.5t-53.5 60t-27.5 78.5t-9 85zM301 252q0 -34 13.5 -64t43.5 -30q56 0 129 99t124 234t51 232q0 141 -76 141q-49 0 -102.5 -71.5t-92.5 -170.5t-64.5 -202.5t-25.5 -167.5z" />
<glyph unicode="b" d="M18 70l301 1036q29 105 29 123q0 32 -25.5 46.5t-60.5 14.5h-20l10 37l358 59h37l-174 -598l4 -4q52 63 105 99q62 43 133 43q121 0 184.5 -83.5t63.5 -207.5q0 -115 -47 -234t-124.5 -214t-189.5 -155.5t-231 -60.5q-176 0 -353 99zM262 59q48 -30 84 -30 q94 0 178.5 100t131 239.5t46.5 266.5q0 60 -25.5 103.5t-80.5 43.5q-36 0 -66 -16.5t-48.5 -38t-35 -57t-23.5 -57.5t-17 -56z" />
<glyph unicode="c" horiz-adv-x="909" d="M49 268q0 91 32 186.5t90 179t132.5 149.5t167 104.5t186.5 38.5q58 0 107.5 -15.5t86 -55.5t36.5 -99q0 -61 -38.5 -112.5t-98.5 -51.5q-43 0 -76 27.5t-33 70.5q0 31 14 55t31 35t31 26t14 30q0 24 -20.5 34.5t-46.5 10.5q-76 0 -144.5 -56t-113.5 -141t-71 -182 t-26 -183q0 -84 47 -147t129 -63q72 0 150 38t129 95l31 -27q-84 -109 -200.5 -176.5t-244.5 -67.5q-138 0 -219.5 79.5t-81.5 217.5z" />
<glyph unicode="d" d="M41 215q0 93 30.5 195t84.5 192.5t121 164t146.5 116.5t154.5 43q44 0 75 -18t62 -54l73 252q29 105 29 123q0 32 -25.5 46.5t-60.5 14.5h-20l10 37l358 59h37l-332 -1140q-2 -8 -9 -31.5t-11 -40.5t-4 -31q0 -28 28 -28q27 0 65.5 42.5t61.5 80.5l35 -19 q-29 -52 -57.5 -91t-67 -77.5t-86.5 -59t-102 -20.5t-87.5 31t-33.5 84q0 89 55 229l-4 4q-24 -43 -33 -59.5t-37 -62t-46 -68.5t-49 -58.5t-57.5 -53.5t-60.5 -32t-67 -14q-47 0 -82.5 22t-55 58.5t-29 78t-9.5 85.5zM301 256q0 -35 13.5 -65.5t43.5 -30.5q57 0 134 112.5 t130.5 254t53.5 225.5q0 45 -18.5 81.5t-59.5 36.5q-52 0 -108 -73t-96 -173.5t-66.5 -203t-26.5 -164.5z" />
<glyph unicode="e" horiz-adv-x="909" d="M49 236q0 173 97 333t256.5 258.5t332.5 98.5q72 0 121 -35.5t49 -104.5q0 -42 -17.5 -90.5t-61.5 -103t-107.5 -99t-166.5 -77.5t-228 -41q-9 -74 -9 -103q0 -77 42.5 -123.5t117.5 -46.5q83 0 155.5 41.5t147.5 112.5l31 -27q-99 -124 -210 -191t-253 -67 q-76 0 -133.5 22t-87.5 52.5t-48.5 70.5t-23 67.5t-4.5 52.5zM334 426q84 0 164.5 55.5t129 141.5t48.5 174q0 63 -53 63q-43 0 -93 -51.5t-89.5 -124t-68.5 -143t-38 -115.5z" />
<glyph unicode="f" horiz-adv-x="681" d="M-328 -332q0 45 36.5 73t82.5 28q41 0 67.5 -21.5t26.5 -60.5q0 -28 -15 -47t-15 -21q0 -5 7 -8.5t13 -3.5q23 0 42 11t41.5 41t46 92t48.5 157l223 874h-137l31 117q76 0 113 23.5t69 85.5q45 84 91.5 146.5t108 118t139.5 84.5t169 29q75 0 126.5 -31.5t51.5 -101.5 q0 -47 -26.5 -79.5t-73.5 -32.5q-39 0 -65.5 24.5t-26.5 63.5q0 21 16.5 50.5t16.5 37.5q0 24 -27 24q-52 0 -103 -51t-87 -125t-60.5 -144t-34.5 -122h144l-33 -117h-141l-111 -438q-64 -247 -104 -354q-122 -323 -329 -403q-74 -29 -159 -29q-63 0 -112.5 26t-49.5 84z " />
<glyph unicode="g" d="M-106 -221q0 39 21 71t49 52t72.5 37.5t74 25.5t71.5 17q-51 28 -80.5 61t-29.5 82q0 34 16 64.5t37.5 51.5t55.5 41.5t59 31.5t59 24v4q-78 26 -129 89.5t-51 146.5q0 87 40 156t105.5 109.5t142.5 61.5t158 21q151 0 228 -60h266l-33 -112h-137q31 -53 31 -113 q0 -104 -61.5 -182.5t-152 -115t-192.5 -36.5q-67 0 -154 17q-73 -35 -88 -62q-6 -10 -6 -20q0 -22 23 -38t61.5 -25.5t87 -21t99 -23t99 -33.5t87 -50.5t61.5 -75.5t23 -108q0 -56 -26 -108.5t-79 -98.5t-146.5 -74t-215.5 -28q-50 0 -100.5 4t-115.5 18.5t-113.5 37 t-82.5 64.5t-34 97zM74 -211q0 -51 29 -87.5t76.5 -54.5t93 -26t92.5 -8q40 0 78 7.5t74.5 24t58.5 48.5t22 76q0 17 -5.5 32.5t-19 28.5t-27.5 24t-38 21.5t-43 18t-51.5 17.5t-54 15.5t-59.5 16t-60 16.5q-166 -63 -166 -170zM365 467q0 -48 27 -78.5t75 -30.5q47 0 88 50 t66 120t39 137t14 109q0 43 -24 71.5t-68 28.5q-52 0 -95.5 -46t-68.5 -113.5t-39 -133.5t-14 -114z" />
<glyph unicode="h" horiz-adv-x="1138" d="M25 0l321 1106q29 105 29 123q0 32 -25.5 46.5t-60.5 14.5h-21l11 37l358 59h37l-260 -897l4 -4q25 40 34 53.5t39 58t46.5 66.5t49 63t55.5 63.5t56.5 52.5t61.5 45.5t61 27t64 11.5q61 0 96 -41t35 -103q0 -49 -33 -155l-113 -379q-22 -66 -22 -96q0 -10 5.5 -17.5 t14.5 -7.5q19 0 42 23t50 63t31 45l39 -22q-147 -248 -311 -248q-54 0 -92.5 29.5t-38.5 82.5q0 42 30 150l111 379q21 63 21 84q0 12 -8.5 19t-22.5 7q-50 0 -134 -96t-149 -205.5t-82 -165.5l-82 -272h-247z" />
<glyph unicode="i" horiz-adv-x="569" d="M43 98q0 46 23 121l129 426q28 101 28 123q0 32 -25.5 46.5t-60.5 14.5h-20l10 37l358 60h37l-196 -686q-23 -66 -23 -103q0 -11 7.5 -21t17.5 -10q46 0 138 140q3 6 5 8l35 -18q-149 -265 -322 -265q-58 0 -99.5 34.5t-41.5 92.5zM313 1239q0 61 43 104t105 43 q61 0 104 -43t43 -104t-43 -104t-104 -43q-62 0 -105 43t-43 104z" />
<glyph unicode="j" horiz-adv-x="569" d="M-330 -332q0 45 37 75t84 30q35 0 59.5 -20t24.5 -54q0 -26 -18.5 -46t-18.5 -30q0 -16 27 -16q18 0 29 4t27.5 20t32.5 56t34 104l229 854q29 105 29 123q0 32 -25.5 46.5t-60.5 14.5h-21l11 37l358 60h37l-248 -912q-28 -103 -71 -184.5t-89.5 -131.5t-100.5 -82.5 t-101.5 -45t-94.5 -12.5q-39 0 -75 9t-65.5 35t-29.5 66zM315 1239q0 61 43 104t105 43q61 0 104 -43t43 -104t-43 -104t-104 -43q-62 0 -105 43t-43 104z" />
<glyph unicode="k" d="M25 0l327 1106q29 105 29 123q0 32 -25.5 46.5t-60.5 14.5h-21l11 37l358 59h37l-274 -931l4 -4l243 221q2 1 12 10t14.5 13t15 13.5t17 16t15.5 16t14 17.5t10.5 17t8 17t2.5 15q0 28 -29 40t-88 15l10 37h408l-10 -37q-159 -31 -357 -229l99 -420q13 -43 27 -51 q6 -4 14 -4q20 0 38 17t41 56l23 39l37 -22q-19 -39 -48.5 -81t-67 -83.5t-82 -68.5t-85.5 -27q-26 0 -46.5 8t-35 25.5t-24.5 32.5t-18.5 43.5t-12 42.5t-10.5 44l-56 256l-110 -96l-100 -344h-254z" />
<glyph unicode="l" horiz-adv-x="569" d="M31 98q0 50 22 121l266 887q29 105 29 123q0 32 -25.5 46.5t-60.5 14.5h-20l10 37l358 59h37l-334 -1146q-22 -63 -22 -103q0 -11 7 -21t17 -10q47 0 144 148l35 -18q-149 -265 -322 -265q-58 0 -99.5 34.5t-41.5 92.5z" />
<glyph unicode="m" horiz-adv-x="1593" d="M20 0l195 645q29 105 29 123q0 32 -25.5 46.5t-60.5 14.5h-21l10 37l359 60h37l-127 -424l4 -4q3 5 30.5 49t39 60.5t41 60.5t48 65.5t49 57.5t55 55t55 40.5t60.5 30.5t60 9q55 0 89 -32.5t34 -88.5q0 -94 -70 -303l4 -4q6 10 35 55.5t44 68.5t47.5 69t55 72t56.5 61.5 t62 54.5t61.5 33t64.5 14q61 0 96.5 -41t35.5 -103q0 -49 -33 -155l-113 -379q-22 -66 -22 -96q0 -10 5.5 -17.5t14.5 -7.5q19 0 42 23t50 63t31 45l39 -22q-147 -248 -311 -248q-55 0 -93.5 29.5t-38.5 82.5q0 39 31 150l111 379q20 60 20 84q0 26 -30 26q-31 0 -100 -79.5 t-140.5 -201t-101.5 -222.5l-68 -236h-254l182 629q21 63 21 84q0 12 -8.5 19t-22.5 7q-31 0 -100 -79.5t-140.5 -201t-101.5 -222.5l-68 -236h-254z" />
<glyph unicode="n" horiz-adv-x="1138" d="M25 0l194 645q29 105 29 123q0 32 -25.5 46.5t-60.5 14.5h-21l11 37l358 60h37l-133 -437l4 -4q25 40 34 53.5t39 58t46.5 66.5t49 63t55.5 63.5t56.5 52.5t61.5 45.5t61 27t64 11.5q61 0 96 -41t35 -103q0 -49 -33 -155l-113 -379q-22 -66 -22 -96q0 -10 5.5 -17.5 t14.5 -7.5q19 0 42 23t50 63t31 45l39 -22q-147 -248 -311 -248q-54 0 -92.5 29.5t-38.5 82.5q0 42 30 150l111 379q21 63 21 84q0 12 -8.5 19t-22.5 7q-50 0 -134 -96t-149 -205.5t-82 -165.5l-82 -272h-247z" />
<glyph unicode="o" d="M49 254q0 96 32 194t91 183t135 151.5t171.5 105t193.5 38.5q127 0 208 -78t81 -205q0 -119 -51.5 -240.5t-135.5 -216.5t-200.5 -155t-237.5 -60q-128 0 -207.5 77.5t-79.5 205.5zM295 160q0 -61 26.5 -97t69.5 -36q63 0 125 88.5t104 210.5t68.5 242.5t26.5 191.5 q0 43 -21.5 76.5t-66.5 33.5q-55 0 -108.5 -62t-92.5 -153t-69.5 -192t-46 -182.5t-15.5 -120.5z" />
<glyph unicode="p" d="M-248 -436l10 37q42 0 73 16.5t53.5 53t36 72t30.5 95.5l231 807q29 105 29 123q0 32 -25.5 46.5t-60.5 14.5h-20l10 37l358 60h37l-45 -158l4 -4q76 75 147 118.5t154 43.5q96 0 145.5 -71.5t49.5 -166.5q0 -107 -29 -212.5t-83.5 -195.5t-125.5 -160t-160.5 -109.5 t-183.5 -39.5q-40 0 -66.5 8.5t-68.5 30.5l-43 -149q-35 -123 -35 -172q0 -26 13.5 -44.5t35.5 -27t39.5 -12t36.5 -4.5l-10 -37h-537zM281 102q20 -30 28.5 -41.5t30 -26t47.5 -14.5q49 0 106 53t105 136.5t79.5 197t31.5 224.5q0 58 -23 104.5t-74 46.5q-26 0 -50.5 -9.5 t-49 -30.5t-36.5 -34t-36 -40z" />
<glyph unicode="q" d="M41 227q0 115 50 242.5t126 226.5t171 164.5t179 65.5q67 0 104.5 -42t45.5 -112l4 4l37 123l237 12l-305 -1050q-35 -122 -35 -172q0 -26 13.5 -44.5t35.5 -27t39.5 -12t36.5 -4.5l-10 -37h-537l11 37q42 0 73 16.5t53 53t35 71.5t31 96l133 447l-4 4q-26 -47 -48 -82.5 t-58 -83t-71 -78t-81 -52.5t-94 -22q-47 0 -82.5 24t-54 63.5t-27 81.5t-8.5 87zM301 262q0 -57 18 -81.5t43 -24.5q59 0 136.5 109t129.5 243t52 211q0 54 -22 98.5t-70 44.5q-53 0 -108 -76.5t-93 -179t-62 -199.5t-24 -145z" />
<glyph unicode="r" horiz-adv-x="796" d="M39 0l170 684q12 46 12 84q0 32 -25.5 46.5t-60.5 14.5h-20l10 37l328 60h36l-151 -557l4 -4q74 175 132.5 289t104.5 172t81 79t73 21q48 0 71 -33.5t23 -83.5q0 -37 -10.5 -81t-38 -83t-65.5 -39q-24 0 -40 13.5t-22.5 29.5t-17.5 29.5t-25 13.5q-26 0 -66 -48.5 t-85.5 -133.5t-93.5 -220.5t-82 -289.5h-242z" />
<glyph unicode="s" horiz-adv-x="796" d="M-2 -29l49 334h37q10 -47 27.5 -91.5t45.5 -90.5t71.5 -74.5t95.5 -28.5q53 0 91 33.5t38 85.5q0 49 -32.5 102t-78.5 101t-92 98t-78.5 111t-32.5 123q0 120 85.5 186t209.5 66q60 0 156 -21q46 -12 72 -12q46 0 63 33h37l-45 -308h-37q1 57 -26 116.5t-77.5 101 t-109.5 41.5q-43 0 -75 -26.5t-32 -70.5q0 -38 30.5 -82.5t74 -89t87.5 -93t74.5 -111t30.5 -125.5q0 -129 -94.5 -218.5t-224.5 -89.5q-67 0 -129 19q-70 20 -105 20q-26 0 -39.5 -8.5t-27.5 -30.5h-39z" />
<glyph unicode="t" horiz-adv-x="569" d="M39 90q0 63 33 176l149 516h-135l20 76q221 70 429 313h51l-80 -272h131l-35 -117h-129l-160 -555q-22 -69 -22 -100q0 -15 6.5 -27t19.5 -12q16 0 35.5 13.5t44.5 43t33.5 40.5t30.5 40l35 -20q-53 -99 -136.5 -166.5t-183.5 -67.5q-56 0 -96.5 32.5t-40.5 86.5z" />
<glyph unicode="u" horiz-adv-x="1138" d="M70 111q0 39 30 161l115 373q29 105 29 123q0 32 -25.5 46.5t-60.5 14.5h-21l10 37l359 60h37l-187 -656q-20 -60 -20 -86q0 -12 8.5 -19t20.5 -7q36 0 90.5 52.5t106.5 126t93 140t60 107.5l94 315l254 12l-189 -649q-30 -100 -30 -119q0 -8 7 -18t15 -10q13 0 55 47 t68 86l33 -25q-136 -252 -311 -252q-54 0 -90.5 31.5t-36.5 85.5q0 36 15 96.5t58 202.5l-4 4q-6 -8 -18 -27q-28 -42 -45 -66.5t-51 -71.5t-59.5 -76.5t-63 -67t-69.5 -59t-69.5 -37t-72.5 -15.5q-58 0 -96.5 40.5t-38.5 99.5z" />
<glyph unicode="v" horiz-adv-x="909" d="M57 803v37l334 86q96 -266 96 -699q258 240 258 371q0 39 -21.5 73t-43 66.5t-21.5 67.5q0 55 34 88t89 33q59 0 92 -46.5t33 -107.5q0 -78 -40 -166t-96 -162.5t-143 -162t-153.5 -146t-154.5 -133.5q-25 -21 -37 -31h-37q0 573 -56 746q-13 43 -34.5 64.5t-61.5 21.5 h-37z" />
<glyph unicode="w" horiz-adv-x="1366" d="M57 803v37l344 86q35 -78 45.5 -182.5t10.5 -352.5l4 -4l377 539h43l73 -701q242 231 242 373q0 39 -21.5 73t-43 66.5t-21.5 67.5q0 55 34 88t89 33q59 0 92 -46.5t33 -107.5q0 -78 -40.5 -169.5t-98 -170.5t-144 -170.5t-155 -154.5t-154.5 -136h-37l-63 615l-433 -615 h-43q13 191 13 273q0 374 -15.5 466.5t-93.5 92.5h-37z" />
<glyph unicode="x" d="M-94 80q0 50 33 83.5t84 33.5q14 0 23.5 -2t13 -3.5t20.5 -9.5q48 -24 74 -24q28 0 56 13.5t54 40.5t44 49.5t43.5 57.5t35.5 48l-92 307q-33 84 -53 110q-37 47 -95 47q-43 0 -59 -4v37l354 62q94 -146 133 -326q10 13 41.5 59.5t51 73.5t54.5 68.5t63.5 65t66 41.5 t72.5 18q53 0 84.5 -27.5t31.5 -81.5q0 -47 -28 -78.5t-74 -31.5q-26 0 -71 11t-62 11q-32 0 -61.5 -17.5t-55.5 -50t-43 -58.5t-38 -63q-6 -11 -9 -16q6 -17 22 -73t32.5 -106.5t38.5 -104.5t49.5 -86.5t56.5 -32.5q22 0 46 17.5t35.5 31.5t41.5 55l3 3t2 3t2.5 3.5 t2.5 3.5l35 -21q-25 -42 -53.5 -80.5t-67 -78t-84 -63.5t-90.5 -24q-37 0 -68 10t-54.5 32t-40.5 43.5t-32.5 57.5t-24.5 60.5t-22 66t-20 60.5q-15 -18 -48.5 -61.5t-57.5 -73.5t-62 -70t-69.5 -64.5t-71 -42.5t-76.5 -18q-52 0 -84.5 29t-32.5 80z" />
<glyph unicode="y" horiz-adv-x="909" d="M-193 -305q0 53 36.5 91t88.5 38q31 0 57.5 -16.5t42 -37t33.5 -37t35 -16.5q14 0 28 5.5t29 17t25 20t26 24.5l21 21q0 178 -1.5 310.5t-5.5 238t-9 177t-14.5 123t-19 80t-26 44.5t-32 20.5t-39.5 4.5h-31v37l309 86q58 -62 80 -234.5t37 -572.5h4q36 55 82.5 125.5 t68.5 103.5t50.5 77.5t40 65.5t24 47.5t16 44t3.5 35.5q0 31 -19 54t-41.5 35.5t-41.5 37.5t-19 58q0 52 37 87.5t90 35.5q57 0 95 -44t38 -102q0 -98 -123.5 -310.5t-332.5 -485.5q-184 -240 -297.5 -333t-204.5 -93q-58 0 -99 40t-41 97z" />
<glyph unicode="z" horiz-adv-x="796" d="M-20 0l579 688h-182q-32 0 -45.5 -0.5t-38 -2t-36.5 -5.5t-30 -11.5t-29.5 -19.5t-25 -29t-25.5 -40h-43l84 319h625l-567 -670q121 -27 153 -215q4 -22 6 -32.5t10 -36t16 -39t22.5 -25.5t31.5 -12q18 0 31.5 15t13.5 34q0 15 -10 54t-10 63q0 55 34.5 93t88.5 38 q47 0 75.5 -36t28.5 -85q0 -64 -42 -115.5t-102.5 -77.5t-123.5 -26q-54 0 -103 19.5t-84 47.5t-65.5 56t-60.5 47.5t-56 19.5q-30 0 -57 -16h-63z" />
<glyph unicode="{" horiz-adv-x="712" d="M82 -172q0 40 14 87t29 78t43 83q30 59 42 84t27 72.5t15 86.5q0 58 -42.5 95t-103.5 43l19 61q148 24 213 123.5t65 267.5q0 55 11.5 109.5t46.5 120t90.5 116t153 87.5t223.5 44l-13 -45q-56 -9 -100.5 -29t-72.5 -42.5t-48 -57.5t-29.5 -61.5t-15 -67t-6 -62 t-0.5 -58.5q0 -47 -9.5 -94t-38.5 -105.5t-75 -107.5t-127.5 -93.5t-187.5 -70.5v-5q102 -30 168.5 -92.5t66.5 -161.5q0 -54 -20.5 -108.5t-59.5 -128.5q-58 -113 -71 -160q-8 -32 -8 -59q0 -67 38.5 -100.5t106.5 -45.5l-14 -45q-151 0 -240.5 66t-89.5 176z" />
<glyph unicode="|" horiz-adv-x="450" d="M-131 -512l590 2048h133l-590 -2048h-133z" />
<glyph unicode="}" horiz-adv-x="712" d="M-207 -414l12 45q56 9 100.5 29t72.5 42.5t48.5 57.5t30 62t15 67.5t6 62.5t0.5 58q0 47 9.5 94t38.5 105.5t75 107.5t127.5 93.5t187.5 70.5v4q-102 30 -168.5 92.5t-66.5 161.5q0 88 79 238q2 4 12.5 24.5t13.5 26t12 24t12 26t9.5 23t9 25t6 23t4.5 25t1 22.5 q0 67 -38 100t-107 45l14 45q151 0 240.5 -65.5t89.5 -175.5q0 -40 -14 -87t-29 -78t-43 -83q-30 -58 -42 -84t-27 -73.5t-15 -86.5q0 -58 42 -94.5t103 -42.5l-18 -61q-148 -24 -213.5 -124t-65.5 -268q0 -55 -11.5 -109.5t-46.5 -120t-90 -116t-152.5 -87.5t-223.5 -44z " />
<glyph unicode="~" horiz-adv-x="1167" d="M143 500q0 86 30 165t94 133t149 54q95 0 258 -72q63 -25 88 -35t68.5 -22t72.5 -12q66 0 108 37t56 104h63q0 -86 -30 -164.5t-93.5 -133t-148.5 -54.5q-97 0 -258 71q-6 2 -25.5 10t-26 11t-23.5 9.5t-25 9.5t-23 8t-23.5 7.5t-21.5 6t-22 5t-19.5 2.5t-19.5 1 q-66 0 -108 -37t-56 -104h-64z" />
<glyph unicode="&#xa1;" horiz-adv-x="796" d="M45 -315q0 55 31 134.5t183 421.5q85 192 140 316h37q-10 -75 -37.5 -291.5t-46 -345.5t-28.5 -170q-25 -98 -65.5 -145t-113.5 -47q-46 0 -73 33t-27 94zM324 807q0 69 48 117.5t117 48.5t117.5 -48.5t48.5 -117.5t-48.5 -117.5t-117.5 -48.5t-117 48.5t-48 117.5z" />
<glyph unicode="&#xa2;" d="M109 268q0 105 42.5 214.5t113 199.5t169 155t203.5 83l119 399h69l-118 -393h10q58 0 107 -15.5t85.5 -55.5t36.5 -99q0 -61 -38.5 -112.5t-98.5 -51.5q-43 0 -76 27.5t-33 70.5q0 26 9.5 46t22.5 32t26.5 22.5t23 21.5t9.5 24q0 24 -20.5 34.5t-47.5 10.5h-31 l-225 -752q36 -20 78 -20q72 0 149.5 38t128.5 95l31 -27q-82 -107 -196 -174t-238 -70l-107 -352h-69l108 356q-114 15 -178.5 92.5t-64.5 200.5zM354 319q0 -85 58 -143l202 676q-114 -63 -187 -224t-73 -309z" />
<glyph unicode="&#xa3;" d="M74 121q0 101 69.5 155.5t171.5 51.5q-6 128 15 286h-180l45 144h147q20 116 50 210t63.5 158t75 112t80.5 75.5t84.5 44t81.5 21.5t77 5q51 0 99.5 -15t85 -51.5t36.5 -88.5t-34.5 -88.5t-86.5 -36.5q-44 0 -76 29.5t-32 72.5q0 25 11 49t11 29q0 17 -14.5 26t-32.5 9 q-96 0 -121 -203q-24 -179 -77 -358h213l-45 -144h-205q-26 -119 -117 -317q37 -12 107 -47t132 -60.5t107 -25.5q53 0 94 63h39q-42 -116 -125 -186t-200 -70q-49 0 -98.5 15t-78.5 30.5t-86 49.5q-21 -40 -60 -67.5t-83 -27.5q-61 0 -102 44.5t-41 105.5zM143 98 q0 -26 15.5 -43.5t42.5 -17.5q18 0 31.5 8.5t19.5 16.5t16.5 29t14.5 28q-2 1 -13 8.5t-14.5 10t-13 7.5t-15 7t-14 4t-16.5 2q-23 0 -38.5 -18t-15.5 -42z" />
<glyph unicode="&#xa4;" d="M61 281l134 133q-86 113 -86 260q0 141 86 260l-134 133l93 92l131 -131q121 90 268 90q148 0 268 -90l131 131l92 -92l-133 -133q86 -116 86 -260q0 -147 -86 -260l133 -133l-92 -93l-131 134q-120 -93 -268 -93q-149 0 -266 93l-133 -134zM238 674q0 -131 92.5 -223.5 t222.5 -92.5t222.5 92.5t92.5 223.5q0 130 -92 222.5t-223 92.5t-223 -92.5t-92 -222.5z" />
<glyph unicode="&#xa5;" d="M68 686l18 70h322l-43 225h-222l19 70h190q-26 160 -53 214t-90 54l10 37h518l-10 -37q-56 0 -95.5 -22t-39.5 -74q0 -79 22 -172h306q90 128 90 194q0 38 -29.5 56t-71.5 18l11 37h337l-10 -37q-38 0 -63.5 -24.5t-76.5 -99.5q-9 -12 -13 -19l-84 -125h186l-18 -70h-211 l-150 -225h301l-18 -70h-328l-90 -129l-78 -289q-2 -9 -11 -39.5t-15.5 -57.5t-6.5 -38q0 -28 11 -47t25 -28.5t40 -14.5t42 -5.5t46 -0.5l-10 -37h-635l10 37q60 0 96.5 9.5t63 39.5t42 68.5t36.5 113.5l98 340l-16 78h-352zM627 981l55 -295l192 295h-247z" />
<glyph unicode="&#xa6;" horiz-adv-x="450" d="M-86 -358l207 716h133l-207 -716h-133zM207 666l207 716h133l-207 -716h-133z" />
<glyph unicode="&#xa7;" d="M-29 -172q0 55 30.5 92t84.5 37q51 0 81 -35t30 -86q0 -20 -9.5 -56.5t-9.5 -53.5q0 -99 166 -99q75 0 138 44.5t63 121.5q0 56 -24 104.5t-62 86t-84 74t-92 76t-84 84.5t-62 108t-24 137q0 113 73 217.5t185 175.5q-60 91 -60 184q0 55 22.5 112t67.5 111t127 88.5 t187 34.5q86 0 168.5 -31.5t142 -99.5t59.5 -157q0 -49 -31 -84t-79 -35q-54 0 -84.5 32.5t-30.5 86.5q0 20 7 56t7 52q0 56 -47.5 83.5t-107.5 27.5q-62 0 -107.5 -21.5t-66.5 -53.5t-30 -58t-9 -47q0 -50 24.5 -97t63 -85.5t85.5 -77.5t94 -81.5t85.5 -88.5t63 -107 t24.5 -129q0 -121 -72.5 -223.5t-187.5 -179.5q27 -54 40 -94t13 -89q0 -72 -36 -135t-93.5 -104t-127 -64.5t-138.5 -23.5q-91 0 -177.5 36.5t-141 99.5t-54.5 134zM276 614q0 -63 21 -109t101.5 -133.5t258.5 -250.5q58 54 91.5 105t33.5 116q0 90 -50.5 152.5 t-306.5 296.5q-6 5 -8.5 7.5l-7 7t-8.5 7.5q-57 -54 -91 -101.5t-34 -97.5z" />
<glyph unicode="&#xa8;" horiz-adv-x="681" d="M231 1217q0 55 39 94t95 39q55 0 94 -39t39 -94q0 -56 -39 -95t-94 -39t-94.5 39.5t-39.5 94.5zM602 1217q0 55 39 94t94 39t94 -39t39 -94q0 -56 -39 -95t-94 -39t-94 39t-39 95z" />
<glyph unicode="&#xa9;" horiz-adv-x="1529" d="M76 678q0 144 56.5 275t151.5 226t226.5 151t275.5 56t275.5 -56t226.5 -151t151 -226t56 -275q0 -115 -36 -223.5t-101.5 -195.5t-152.5 -152.5t-195.5 -101.5t-223.5 -36q-144 0 -275.5 56t-226.5 151t-151.5 226.5t-56.5 275.5zM166 678q0 -168 83 -311t226 -226.5 t311 -83.5t310.5 83.5t225.5 226.5t83 311t-83 311t-225.5 226t-310.5 83q-126 0 -241 -49t-198 -132t-132 -198t-49 -241zM354 672q0 192 127.5 314t319.5 122q72 0 151 -27q16 -5 35.5 -12t31 -10.5t17.5 -3.5q21 0 33 15t14 38h37v-266h-37q-14 92 -82 153.5t-161 61.5 q-75 0 -128.5 -32.5t-81.5 -88.5t-40 -117t-12 -131q0 -171 62.5 -270t197.5 -99q72 0 141 39t115 101v-72q-57 -63 -143 -95t-179 -32q-184 0 -301 113.5t-117 298.5z" />
<glyph unicode="&#xaa;" horiz-adv-x="544" d="M92 926q0 92 50 199t132.5 183t163.5 76q80 0 101 -69h4l14 47l191 12l-115 -395q-1 -6 -7 -27t-11 -39t-5 -24q0 -9 8 -16t17 -7t23 10t25 21t25.5 27t18.5 20l21 -20q-36 -58 -94.5 -98t-121.5 -40q-41 0 -71.5 26t-30.5 67q0 31 10 61l-4 4q-105 -158 -221 -158 q-55 0 -89 41.5t-34 98.5zM287 940q0 -19 9.5 -33t27.5 -14q39 0 83.5 73t72.5 161t28 141q0 25 -11 48t-34 23q-39 0 -82.5 -86.5t-68.5 -179.5t-25 -133z" />
<glyph unicode="&#xab;" d="M84 451l442 460h64l-258 -460l61 -461h-63zM504 451l442 460h64l-258 -460l61 -461h-63z" />
<glyph unicode="&#xac;" horiz-adv-x="1241" d="M92 776v131h1094v-454h-131v323h-963z" />
<glyph unicode="&#xad;" horiz-adv-x="681" d="M10 346l64 207h583l-63 -207h-584z" />
<glyph unicode="&#xae;" horiz-adv-x="1529" d="M76 678q0 144 56.5 275t151.5 226t226.5 151t275.5 56t275.5 -56t226.5 -151t151 -226t56 -275q0 -115 -36 -223.5t-101.5 -195.5t-152.5 -152.5t-195.5 -101.5t-223.5 -36q-144 0 -275.5 56t-226.5 151t-151.5 226.5t-56.5 275.5zM166 678q0 -168 83 -311t226 -226.5 t311 -83.5t310.5 83.5t225.5 226.5t83 311t-83 311t-225.5 226t-310.5 83q-126 0 -241 -49t-198 -132t-132 -198t-49 -241zM412 285v37q31 0 51 7t30.5 16.5t15.5 33.5t6 42t1 58v422q0 28 -0.5 42t-3 36t-8 33t-15 23t-25.5 17t-38 5v37h414q136 0 220.5 -55.5t84.5 -161.5 q0 -79 -50 -134t-130 -75l125 -228q1 -2 11 -19.5t14 -23.5t13.5 -21t17 -22t17.5 -16t21 -12.5t22 -3.5v-37h-241l-205 368h-45v-174q0 -29 0.5 -42.5t2.5 -34.5t6.5 -30t13 -21t21 -17t31.5 -8.5t44 -3.5v-37h-422zM715 705q21 -7 55 -7q73 0 116.5 54t43.5 129 q0 168 -168 168h-47v-344z" />
<glyph unicode="&#xaf;" horiz-adv-x="681" d="M168 1092l47 161h692l-47 -161h-692z" />
<glyph unicode="&#xb0;" horiz-adv-x="819" d="M168 1038q0 142 102 244t244 102t244 -102t102 -244t-102 -244t-244 -102t-244 102t-102 244zM299 1038q0 -89 63 -152t152 -63t152 63t63 152t-63 152t-152 63t-152 -63t-63 -152z" />
<glyph unicode="&#xb1;" horiz-adv-x="1167" d="M92 131v131h481v350h-481v131h481v482h132v-482h481v-131h-481v-350h481v-131h-1094z" />
<glyph unicode="&#xb2;" horiz-adv-x="614" d="M98 664v26q188 156 278 242.5t119 135.5t29 101q0 47 -30 75t-78 28q-42 0 -72.5 -20.5t-60.5 -59.5l-2 -2l-39 16v2q34 85 98.5 130.5t153.5 45.5q77 0 142.5 -43.5t65.5 -117.5q0 -33 -14 -66t-53 -82t-120 -118t-204 -158v-4h135q63 0 86.5 10t59.5 61l2 2h51 l-100 -204h-447z" />
<glyph unicode="&#xb3;" horiz-adv-x="614" d="M106 721q0 28 25 43.5t55 15.5q29 0 86 -32.5t84 -32.5q40 0 65 49t25 94q0 55 -22.5 94.5t-57.5 56.5t-64 24t-56 7l10 33q39 4 78.5 14t82.5 27.5t70 48t27 68.5q0 35 -25 55.5t-59 20.5q-59 0 -115 -70l-43 18q45 64 99.5 96.5t128.5 32.5q67 0 125.5 -36t58.5 -99 q0 -117 -180 -162v-4q112 -50 112 -161q0 -83 -58.5 -147.5t-138.5 -95t-161 -30.5q-21 0 -42 2t-48.5 8.5t-44.5 22.5t-17 39z" />
<glyph unicode="&#xb4;" horiz-adv-x="681" d="M430 1040l117 346h305l-332 -346h-90z" />
<glyph unicode="&#xb5;" horiz-adv-x="1179" d="M-125 -332q0 37 25 92t58 108t73 135.5t63 162.5l213 733h256l-168 -577q-26 -76 -26 -132q0 -30 19.5 -50.5t49.5 -20.5q29 0 62.5 20.5t73 65t80 129.5t73.5 198l104 367h256l-172 -592q-41 -140 -41 -168q0 -21 15.5 -38t36.5 -17q30 0 62 48t50 93l37 -20 q-34 -103 -101.5 -168.5t-166.5 -65.5q-76 0 -120 47t-44 123v78h-4q-28 -43 -49 -71t-54.5 -65t-65.5 -59t-76 -37.5t-91 -15.5q-106 0 -151 88q-50 -130 -50 -270q0 -43 -3.5 -75t-15.5 -72t-40.5 -62t-71.5 -22q-44 0 -70 32.5t-26 77.5z" />
<glyph unicode="&#xb6;" d="M80 758q0 107 43 211.5t122.5 191.5t207 141t280.5 54h608l-10 -37q-48 0 -78.5 -2.5t-57 -14.5t-40.5 -24t-29.5 -44t-24.5 -61t-26 -88l-436 -1527h-100l493 1720h-182l-494 -1720h-100l250 872q-426 8 -426 328z" />
<glyph unicode="&#xb7;" horiz-adv-x="512" d="M152 676q0 69 48 117.5t117 48.5t117.5 -48.5t48.5 -117.5t-48.5 -117.5t-117.5 -48.5t-117 48.5t-48 117.5z" />
<glyph unicode="&#xb8;" horiz-adv-x="681" d="M-221 -385l14 35q16 -3 47.5 -10.5t54 -11t44.5 -3.5q88 0 138.5 27.5t47.5 83.5q-5 96 -107 96h-90v8l244 160h102l-108 -59v-4q85 0 152 -43t67 -119q0 -58 -36.5 -100.5t-93.5 -63t-112 -30t-108 -9.5q-137 0 -256 43z" />
<glyph unicode="&#xb9;" horiz-adv-x="614" d="M121 664l10 36q46 0 71.5 4t43.5 21.5t25.5 35t23.5 62.5l100 297q1 5 8.5 26.5t13 38.5t10.5 35.5t5 26.5q0 45 -49 45q-40 0 -70 -6l-8 33l316 65h36l-190 -567q-23 -69 -23 -80q0 -23 30 -30t85 -7l-10 -36h-428z" />
<glyph unicode="&#xba;" horiz-adv-x="614" d="M150 981q0 162 122 282.5t285 120.5q91 0 150 -57t59 -145q0 -102 -56.5 -194t-149.5 -147t-195 -55q-91 0 -153 53t-62 142zM330 887q0 -28 16 -46t43 -18q46 0 94.5 104.5t75.5 211.5t27 145q0 27 -13.5 45.5t-40.5 18.5q-40 0 -79.5 -64t-65 -148t-41.5 -155t-16 -94z " />
<glyph unicode="&#xbb;" d="M14 -10l258 461l-61 460h63l246 -460l-442 -461h-64zM434 -10l258 461l-61 460h63l246 -460l-442 -461h-64z" />
<glyph unicode="&#xbc;" horiz-adv-x="1536" d="M121 664l10 36q46 0 71.5 4t43.5 21.5t25.5 35t23.5 62.5l100 297q1 5 8.5 26.5t13 38.5t10.5 35.5t5 26.5q0 45 -49 45q-40 0 -70 -6l-8 33l316 65h36l-190 -567q-23 -69 -23 -80q0 -23 30 -30t85 -7l-10 -36h-428zM291 -31l940 1417h133l-940 -1417h-133zM842 145 l32 95l484 481h98l-160 -481h93l-37 -95h-90l-54 -159h-153l55 159h-268zM956 240h187l86 264l-4 4z" />
<glyph unicode="&#xbd;" horiz-adv-x="1536" d="M121 664l10 36q46 0 71.5 4t43.5 21.5t25.5 35t23.5 62.5l100 297q1 5 8.5 26.5t13 38.5t10.5 35.5t5 26.5q0 45 -49 45q-40 0 -70 -6l-8 33l316 65h36l-190 -567q-23 -69 -23 -80q0 -23 30 -30t85 -7l-10 -36h-428zM240 -31l940 1417h133l-940 -1417h-133zM821 0v27 q188 156 278 242.5t119 135.5t29 101q0 47 -30 74.5t-78 27.5q-42 0 -72.5 -20.5t-60.5 -59.5l-2 -2l-39 17v2q34 85 98.5 130.5t153.5 45.5q77 0 142.5 -44t65.5 -118q0 -33 -14 -66t-53 -82t-120 -118t-204 -158v-4h135q63 0 86.5 10.5t59.5 61.5l2 2h51l-100 -205h-447z " />
<glyph unicode="&#xbe;" horiz-adv-x="1536" d="M109 721q0 28 24.5 43.5t54.5 15.5q29 0 86 -32.5t84 -32.5q40 0 65.5 49t25.5 94t-16 79.5t-38.5 53t-51.5 30.5t-51.5 15.5t-43.5 3.5l10 33q39 4 78.5 14t82.5 27.5t70 48t27 68.5q0 35 -25 55.5t-59 20.5q-59 0 -115 -70l-43 18q45 64 99.5 96.5t128.5 32.5 q67 0 125.5 -36t58.5 -99q0 -117 -180 -162v-4q112 -50 112 -161q0 -83 -58.5 -147.5t-138.5 -95t-161 -30.5q-21 0 -42 2t-48 8.5t-44 22.5t-17 39zM291 -31l940 1417h133l-940 -1417h-133zM842 145l32 95l484 481h98l-160 -481h93l-37 -95h-90l-54 -159h-153l55 159h-268z M956 240h187l86 264l-4 4z" />
<glyph unicode="&#xbf;" d="M8 -170q0 78 32.5 145t84.5 115.5t115 92.5t126 85t115 82.5t84.5 95.5t32.5 115h43q0 -98 -40.5 -187t-97.5 -157.5t-114.5 -135t-98 -145t-40.5 -161.5q0 -72 36 -123t105 -51q35 0 64.5 18.5t29.5 52.5q0 18 -26.5 67.5t-26.5 90.5q0 52 39.5 90.5t91.5 38.5 q65 0 103.5 -45.5t38.5 -112.5q0 -62 -31 -111t-81 -76.5t-106.5 -41.5t-113.5 -14q-155 0 -260 72.5t-105 199.5zM473 807q0 69 48.5 117.5t117.5 48.5t117.5 -48.5t48.5 -117.5t-48.5 -117.5t-117.5 -48.5t-117.5 48.5t-48.5 117.5z" />
<glyph unicode="&#xc0;" horiz-adv-x="1366" d="M-117 0l11 37q35 3 73 24.5t72.5 55t61.5 64.5t55 66q7 9 10 13l946 1126h45q-6 -141 -19 -442t-21.5 -504.5t-8.5 -259.5q0 -73 29.5 -108t91.5 -35l-10 -37h-588l10 37q31 0 47 1.5t42.5 10.5t41 27t27.5 53.5t16 87.5l14 219h-419l-164 -198q-68 -78 -68 -129 q0 -37 36 -54.5t81 -17.5l-10 -37h-402zM479 518h350l25 432l-4 4zM877 1780h292l107 -344h-78z" />
<glyph unicode="&#xc1;" horiz-adv-x="1366" d="M-117 0l11 37q35 3 73 24.5t72.5 55t61.5 64.5t55 66q7 9 10 13l946 1126h45q-6 -141 -19 -442t-21.5 -504.5t-8.5 -259.5q0 -73 29.5 -108t91.5 -35l-10 -37h-588l10 37q31 0 47 1.5t42.5 10.5t41 27t27.5 53.5t16 87.5l14 219h-419l-164 -198q-68 -78 -68 -129 q0 -37 36 -54.5t81 -17.5l-10 -37h-402zM479 518h350l25 432l-4 4zM1010 1434l116 346h306l-332 -346h-90z" />
<glyph unicode="&#xc2;" horiz-adv-x="1366" d="M-117 0l11 37q35 3 73 24.5t72.5 55t61.5 64.5t55 66q7 9 10 13l946 1126h45q-6 -141 -19 -442t-21.5 -504.5t-8.5 -259.5q0 -73 29.5 -108t91.5 -35l-10 -37h-588l10 37q31 0 47 1.5t42.5 10.5t41 27t27.5 53.5t16 87.5l14 219h-419l-164 -198q-68 -78 -68 -129 q0 -37 36 -54.5t81 -17.5l-10 -37h-402zM479 518h350l25 432l-4 4zM766 1421l307 346h225l103 -346h-103l-133 209l-293 -209h-106z" />
<glyph unicode="&#xc3;" horiz-adv-x="1366" d="M-117 0l11 37q35 3 73 24.5t72.5 55t61.5 64.5t55 66q7 9 10 13l946 1126h45q-6 -141 -19 -442t-21.5 -504.5t-8.5 -259.5q0 -73 29.5 -108t91.5 -35l-10 -37h-588l10 37q31 0 47 1.5t42.5 10.5t41 27t27.5 53.5t16 87.5l14 219h-419l-164 -198q-68 -78 -68 -129 q0 -37 36 -54.5t81 -17.5l-10 -37h-402zM479 518h350l25 432l-4 4zM813 1442q0 65 20.5 126.5t68 106.5t112.5 45q49 0 110 -22.5t111.5 -45t73.5 -22.5q34 0 52.5 26.5t20.5 63.5h66q0 -65 -20.5 -126.5t-68 -106.5t-112.5 -45q-49 0 -110 22.5t-111.5 45t-73.5 22.5 q-34 0 -52.5 -26.5t-20.5 -63.5h-66z" />
<glyph unicode="&#xc4;" horiz-adv-x="1366" d="M-117 0l11 37q35 3 73 24.5t72.5 55t61.5 64.5t55 66q7 9 10 13l946 1126h45q-6 -141 -19 -442t-21.5 -504.5t-8.5 -259.5q0 -73 29.5 -108t91.5 -35l-10 -37h-588l10 37q31 0 47 1.5t42.5 10.5t41 27t27.5 53.5t16 87.5l14 219h-419l-164 -198q-68 -78 -68 -129 q0 -37 36 -54.5t81 -17.5l-10 -37h-402zM479 518h350l25 432l-4 4zM840 1585q0 55 39 94t94 39t94 -39t39 -94t-39 -94t-94 -39t-94 39t-39 94zM1210 1585q0 55 39 94t94 39q56 0 95 -39t39 -94t-39 -94t-95 -39q-55 0 -94 39t-39 94z" />
<glyph unicode="&#xc5;" horiz-adv-x="1366" d="M-117 0l11 37q35 3 73 24.5t72.5 55t61.5 64.5t55 66q7 9 10 13l946 1126h45q-6 -141 -19 -442t-21.5 -504.5t-8.5 -259.5q0 -73 29.5 -108t91.5 -35l-10 -37h-588l10 37q31 0 47 1.5t42.5 10.5t41 27t27.5 53.5t16 87.5l14 219h-419l-164 -198q-68 -78 -68 -129 q0 -37 36 -54.5t81 -17.5l-10 -37h-402zM479 518h350l25 432l-4 4zM926 1493q0 88 61.5 149.5t149.5 61.5t149.5 -61.5t61.5 -149.5t-61.5 -149.5t-149.5 -61.5t-149.5 61.5t-61.5 149.5zM1004 1493q0 -55 39 -94t94 -39t94 39t39 94t-39 94t-94 39t-94 -39t-39 -94z" />
<glyph unicode="&#xc6;" horiz-adv-x="1933" d="M-121 0l10 37q18 3 35 9.5t35 17.5t31.5 19.5t32 26.5t28.5 27t29 31t25 29t26 31.5t23 27.5l675 834q69 88 83 115q14 29 14 57q0 20 -16 32.5t-47 17.5t-50.5 6t-50.5 1l10 37h1188l-88 -340h-37q0 76 -23.5 128t-53.5 78t-90.5 39t-99.5 15t-116 2h-84l-149 -522 q55 0 90 1t78.5 5.5t72 13.5t60.5 24.5t55 38.5t45.5 56.5t40.5 77.5h37l-152 -529h-37q11 53 11 82q0 45 -15 74t-34.5 45t-69.5 23.5t-87 8.5t-120 1l-123 -428q-24 -87 -24 -111q0 -61 129 -61q150 0 316.5 80.5t268.5 214.5h41l-141 -373h-1112l10 37q99 0 138.5 44 t84.5 185l64 197h-430l-115 -139l-15 -19q-16 -19 -19.5 -23t-17.5 -22.5t-19 -26.5t-16 -24.5t-16 -27.5t-11 -25.5t-8.5 -27t-2.5 -24.5q0 -67 119 -67l-10 -37h-406zM479 541h385l215 731l-4 4z" />
<glyph unicode="&#xc7;" horiz-adv-x="1366" d="M133 506q0 175 75.5 338t200 281.5t291 189.5t340.5 71q59 0 161 -26.5t136 -26.5q50 0 103 53h37l-101 -430h-39q-3 72 -20.5 132.5t-51 110.5t-90.5 78t-133 28q-90 0 -172.5 -43t-145 -114.5t-113.5 -162t-84 -188t-50.5 -190.5t-17.5 -171q0 -160 79 -256t236 -96 q127 0 225 56.5t191 164.5h47q-55 -83 -104 -138.5t-112.5 -101.5t-142.5 -69t-180 -27l-26 -20q71 -10 116.5 -48t45.5 -106q0 -49 -25 -84.5t-66.5 -53.5t-84 -26t-87.5 -8q-112 0 -194 31l12 31q93 -15 113 -15q55 0 97 26.5t42 78.5q0 32 -22.5 57t-53.5 25 q-15 0 -55 -9l-14 29l129 94q-218 20 -355 159.5t-137 375.5z" />
<glyph unicode="&#xc8;" horiz-adv-x="1366" d="M-66 0l11 37q40 0 68.5 4t51.5 16.5t38.5 27t29.5 44t24.5 59.5t24.5 80l236 819q2 9 11 40t15.5 58t6.5 38q0 28 -11 47t-25 28.5t-40 14.5t-42 5.5t-46 0.5l10 37h1096l-88 -340h-37q0 76 -23.5 128t-53.5 78t-90.5 39t-99.5 15t-116 2h-111l-149 -522q48 0 79.5 1 t70.5 4t65.5 9t57 16.5t53 27t46 38.5t43 52.5t37.5 68.5h37l-151 -529h-37q10 48 10 82q0 45 -16 74t-37 45t-72.5 23.5t-89 8.5t-121.5 1l-123 -428q-24 -87 -24 -111q0 -61 149 -61q150 0 317 80.5t269 214.5h41l-142 -373h-1153zM637 1780h293l106 -344h-78z" />
<glyph unicode="&#xc9;" horiz-adv-x="1366" d="M-66 0l11 37q40 0 68.5 4t51.5 16.5t38.5 27t29.5 44t24.5 59.5t24.5 80l236 819q2 9 11 40t15.5 58t6.5 38q0 28 -11 47t-25 28.5t-40 14.5t-42 5.5t-46 0.5l10 37h1096l-88 -340h-37q0 76 -23.5 128t-53.5 78t-90.5 39t-99.5 15t-116 2h-111l-149 -522q48 0 79.5 1 t70.5 4t65.5 9t57 16.5t53 27t46 38.5t43 52.5t37.5 68.5h37l-151 -529h-37q10 48 10 82q0 45 -16 74t-37 45t-72.5 23.5t-89 8.5t-121.5 1l-123 -428q-24 -87 -24 -111q0 -61 149 -61q150 0 317 80.5t269 214.5h41l-142 -373h-1153zM772 1434l117 346h305l-332 -346h-90z " />
<glyph unicode="&#xca;" horiz-adv-x="1366" d="M-66 0l11 37q40 0 68.5 4t51.5 16.5t38.5 27t29.5 44t24.5 59.5t24.5 80l236 819q2 9 11 40t15.5 58t6.5 38q0 28 -11 47t-25 28.5t-40 14.5t-42 5.5t-46 0.5l10 37h1096l-88 -340h-37q0 76 -23.5 128t-53.5 78t-90.5 39t-99.5 15t-116 2h-111l-149 -522q48 0 79.5 1 t70.5 4t65.5 9t57 16.5t53 27t46 38.5t43 52.5t37.5 68.5h37l-151 -529h-37q10 48 10 82q0 45 -16 74t-37 45t-72.5 23.5t-89 8.5t-121.5 1l-123 -428q-24 -87 -24 -111q0 -61 149 -61q150 0 317 80.5t269 214.5h41l-142 -373h-1153zM586 1421l307 346h225l103 -346h-103 l-133 209l-293 -209h-106z" />
<glyph unicode="&#xcb;" horiz-adv-x="1366" d="M-66 0l11 37q40 0 68.5 4t51.5 16.5t38.5 27t29.5 44t24.5 59.5t24.5 80l236 819q2 9 11 40t15.5 58t6.5 38q0 28 -11 47t-25 28.5t-40 14.5t-42 5.5t-46 0.5l10 37h1096l-88 -340h-37q0 76 -23.5 128t-53.5 78t-90.5 39t-99.5 15t-116 2h-111l-149 -522q48 0 79.5 1 t70.5 4t65.5 9t57 16.5t53 27t46 38.5t43 52.5t37.5 68.5h37l-151 -529h-37q10 48 10 82q0 45 -16 74t-37 45t-72.5 23.5t-89 8.5t-121.5 1l-123 -428q-24 -87 -24 -111q0 -61 149 -61q150 0 317 80.5t269 214.5h41l-142 -373h-1153zM635 1585q0 55 38.5 94t94.5 39 t94.5 -39t38.5 -94t-38.5 -94t-94.5 -39t-94.5 39t-38.5 94zM1006 1585q0 55 39 94t94 39t94 -39t39 -94t-39 -94t-94 -39t-94 39t-39 94z" />
<glyph unicode="&#xcc;" horiz-adv-x="796" d="M-66 0l11 37q40 0 68.5 4t51.5 16.5t38.5 27t29.5 44t24.5 59.5t24.5 80l236 819q2 9 11 40t15.5 58t6.5 38q0 28 -11 47t-25 28.5t-40 14.5t-42 5.5t-46 0.5l10 37h670l-11 -37q-48 0 -80.5 -7.5t-56 -21.5t-41 -44.5t-30 -64.5t-29.5 -94l-236 -819q-2 -8 -10.5 -39 t-15 -58t-6.5 -38q0 -28 11 -47t24.5 -28.5t39.5 -14.5t42 -5.5t46 -0.5l-10 -37h-670zM410 1780h292l107 -344h-78z" />
<glyph unicode="&#xcd;" horiz-adv-x="796" d="M-66 0l11 37q40 0 68.5 4t51.5 16.5t38.5 27t29.5 44t24.5 59.5t24.5 80l236 819q2 9 11 40t15.5 58t6.5 38q0 28 -11 47t-25 28.5t-40 14.5t-42 5.5t-46 0.5l10 37h670l-11 -37q-48 0 -80.5 -7.5t-56 -21.5t-41 -44.5t-30 -64.5t-29.5 -94l-236 -819q-2 -8 -10.5 -39 t-15 -58t-6.5 -38q0 -28 11 -47t24.5 -28.5t39.5 -14.5t42 -5.5t46 -0.5l-10 -37h-670zM504 1434l117 346h305l-332 -346h-90z" />
<glyph unicode="&#xce;" horiz-adv-x="796" d="M-66 0l11 37q40 0 68.5 4t51.5 16.5t38.5 27t29.5 44t24.5 59.5t24.5 80l236 819q2 9 11 40t15.5 58t6.5 38q0 28 -11 47t-25 28.5t-40 14.5t-42 5.5t-46 0.5l10 37h670l-11 -37q-48 0 -80.5 -7.5t-56 -21.5t-41 -44.5t-30 -64.5t-29.5 -94l-236 -819q-2 -8 -10.5 -39 t-15 -58t-6.5 -38q0 -28 11 -47t24.5 -28.5t39.5 -14.5t42 -5.5t46 -0.5l-10 -37h-670zM324 1421l307 346h225l102 -346h-102l-133 209l-293 -209h-106z" />
<glyph unicode="&#xcf;" horiz-adv-x="796" d="M-66 0l11 37q40 0 68.5 4t51.5 16.5t38.5 27t29.5 44t24.5 59.5t24.5 80l236 819q2 9 11 40t15.5 58t6.5 38q0 28 -11 47t-25 28.5t-40 14.5t-42 5.5t-46 0.5l10 37h670l-11 -37q-48 0 -80.5 -7.5t-56 -21.5t-41 -44.5t-30 -64.5t-29.5 -94l-236 -819q-2 -8 -10.5 -39 t-15 -58t-6.5 -38q0 -28 11 -47t24.5 -28.5t39.5 -14.5t42 -5.5t46 -0.5l-10 -37h-670zM360 1585q0 55 39 94t95 39t94.5 -39t38.5 -94t-38.5 -94t-94.5 -39t-95 39t-39 94zM731 1585q0 55 38.5 94t94.5 39t94.5 -39t38.5 -94t-38.5 -94t-94.5 -39t-94.5 39t-38.5 94z" />
<glyph unicode="&#xd0;" horiz-adv-x="1478" d="M-66 0l11 37q40 0 68.5 4t51.5 16.5t38.5 27t29.5 44t24.5 59.5t24.5 80l117 404h-190l22 78h191l96 337q2 9 11 40t15.5 58t6.5 38q0 28 -11 47t-25 28.5t-40 14.5t-42 5.5t-46 0.5l10 37h481q120 0 218.5 -20.5t165.5 -54t118 -81.5t80.5 -96.5t47.5 -105t24 -102.5 t6 -93q0 -65 -11 -132.5t-41 -148t-76.5 -153t-123.5 -141t-174.5 -118.5t-237 -80t-305.5 -30h-535zM455 147q0 -38 34 -53.5t78 -15.5q88 0 166.5 35.5t136.5 96t105 138t76 164.5t44 172.5t15 163.5q0 68 -11 128.5t-36 116.5t-63 96.5t-96 64.5t-130 24l-151 -528h301 l-23 -78h-301l-117 -400q-2 -6 -7.5 -27.5t-9.5 -36t-7.5 -32.5t-3.5 -29z" />
<glyph unicode="&#xd1;" horiz-adv-x="1478" d="M-66 0l11 37q56 0 97 17.5t67 53t40.5 69t30.5 85.5l279 963q-44 52 -86 73t-111 21l10 37h459l424 -903l184 628q23 94 23 123q0 61 -37.5 85.5t-103.5 29.5l10 37h430l-10 -37q-57 -3 -96 -19.5t-64.5 -51.5t-40 -69.5t-31.5 -93.5l-325 -1099h-37l-543 1155l-256 -877 q-20 -70 -20 -106q0 -121 149 -121l-10 -37h-443zM700 1442q0 65 20.5 126.5t68 106.5t112.5 45q49 0 110 -22.5t111.5 -45t73.5 -22.5q34 0 53 26.5t21 63.5h65q0 -66 -20.5 -127t-67.5 -106t-112 -45q-49 0 -110 22.5t-111.5 45t-73.5 22.5q-34 0 -53 -26.5t-21 -63.5h-66 z" />
<glyph unicode="&#xd2;" horiz-adv-x="1478" d="M113 451q0 133 48 270t134 254.5t196.5 210.5t245 146.5t269.5 53.5q125 0 233 -60.5t172 -166.5t64 -231q0 -94 -27.5 -200t-78.5 -213.5t-130 -205.5t-174.5 -174t-220 -121t-258.5 -45q-73 0 -135 14.5t-106.5 38t-81.5 57t-60 68t-41 75t-27 73.5t-14.5 67.5 t-6.5 53.5t-1 35zM432 301q0 -66 17 -120.5t63 -94t117 -39.5q79 0 153 55t130 144t103 198.5t77 221t46.5 208.5t16.5 164q0 50 -7.5 93t-26.5 85.5t-58 67.5t-94 25q-81 0 -153.5 -47t-125 -122.5t-97.5 -172.5t-74 -196t-49 -194t-29 -165t-9 -111zM737 1780h293 l107 -344h-78z" />
<glyph unicode="&#xd3;" horiz-adv-x="1478" d="M113 451q0 133 48 270t134 254.5t196.5 210.5t245 146.5t269.5 53.5q125 0 233 -60.5t172 -166.5t64 -231q0 -94 -27.5 -200t-78.5 -213.5t-130 -205.5t-174.5 -174t-220 -121t-258.5 -45q-73 0 -135 14.5t-106.5 38t-81.5 57t-60 68t-41 75t-27 73.5t-14.5 67.5 t-6.5 53.5t-1 35zM432 301q0 -66 17 -120.5t63 -94t117 -39.5q79 0 153 55t130 144t103 198.5t77 221t46.5 208.5t16.5 164q0 50 -7.5 93t-26.5 85.5t-58 67.5t-94 25q-81 0 -153.5 -47t-125 -122.5t-97.5 -172.5t-74 -196t-49 -194t-29 -165t-9 -111zM887 1434l117 346h305 l-332 -346h-90z" />
<glyph unicode="&#xd4;" horiz-adv-x="1478" d="M113 451q0 133 48 270t134 254.5t196.5 210.5t245 146.5t269.5 53.5q125 0 233 -60.5t172 -166.5t64 -231q0 -94 -27.5 -200t-78.5 -213.5t-130 -205.5t-174.5 -174t-220 -121t-258.5 -45q-73 0 -135 14.5t-106.5 38t-81.5 57t-60 68t-41 75t-27 73.5t-14.5 67.5 t-6.5 53.5t-1 35zM432 301q0 -66 17 -120.5t63 -94t117 -39.5q79 0 153 55t130 144t103 198.5t77 221t46.5 208.5t16.5 164q0 50 -7.5 93t-26.5 85.5t-58 67.5t-94 25q-81 0 -153.5 -47t-125 -122.5t-97.5 -172.5t-74 -196t-49 -194t-29 -165t-9 -111zM666 1421l307 346h225 l102 -346h-102l-133 209l-293 -209h-106z" />
<glyph unicode="&#xd5;" horiz-adv-x="1478" d="M113 451q0 133 48 270t134 254.5t196.5 210.5t245 146.5t269.5 53.5q125 0 233 -60.5t172 -166.5t64 -231q0 -94 -27.5 -200t-78.5 -213.5t-130 -205.5t-174.5 -174t-220 -121t-258.5 -45q-73 0 -135 14.5t-106.5 38t-81.5 57t-60 68t-41 75t-27 73.5t-14.5 67.5 t-6.5 53.5t-1 35zM432 301q0 -66 17 -120.5t63 -94t117 -39.5q79 0 153 55t130 144t103 198.5t77 221t46.5 208.5t16.5 164q0 50 -7.5 93t-26.5 85.5t-58 67.5t-94 25q-81 0 -153.5 -47t-125 -122.5t-97.5 -172.5t-74 -196t-49 -194t-29 -165t-9 -111zM700 1442 q0 65 20.5 126.5t68 106.5t112.5 45q49 0 110 -22.5t111.5 -45t73.5 -22.5q34 0 53 26.5t21 63.5h65q0 -66 -20.5 -127t-67.5 -106t-112 -45q-49 0 -110 22.5t-111.5 45t-73.5 22.5q-34 0 -53 -26.5t-21 -63.5h-66z" />
<glyph unicode="&#xd6;" horiz-adv-x="1478" d="M113 451q0 133 48 270t134 254.5t196.5 210.5t245 146.5t269.5 53.5q125 0 233 -60.5t172 -166.5t64 -231q0 -94 -27.5 -200t-78.5 -213.5t-130 -205.5t-174.5 -174t-220 -121t-258.5 -45q-73 0 -135 14.5t-106.5 38t-81.5 57t-60 68t-41 75t-27 73.5t-14.5 67.5 t-6.5 53.5t-1 35zM432 301q0 -66 17 -120.5t63 -94t117 -39.5q79 0 153 55t130 144t103 198.5t77 221t46.5 208.5t16.5 164q0 50 -7.5 93t-26.5 85.5t-58 67.5t-94 25q-81 0 -153.5 -47t-125 -122.5t-97.5 -172.5t-74 -196t-49 -194t-29 -165t-9 -111zM715 1585 q0 55 38.5 94t94.5 39t94.5 -39t38.5 -94t-38.5 -94t-94.5 -39t-94.5 39t-38.5 94zM1085 1585q0 55 39 94t95 39q55 0 94 -39t39 -94t-39 -94t-94 -39q-56 0 -95 39t-39 94z" />
<glyph unicode="&#xd7;" horiz-adv-x="1167" d="M195 330l348 348l-348 348l94 94l348 -348l348 348l94 -94l-348 -348l348 -348l-94 -92l-348 348l-348 -348z" />
<glyph unicode="&#xd8;" horiz-adv-x="1478" d="M90 23l117 118q-40 56 -63 128t-27 110.5t-4 71.5q0 133 48 270t134 254.5t196.5 210.5t245 146.5t269.5 53.5q179 0 315 -120l121 120l53 -53l-121 -123q101 -123 101 -282q0 -94 -27.5 -200t-78.5 -213.5t-130 -205.5t-174.5 -174t-220 -121t-258.5 -45 q-210 0 -328 115l-115 -115zM436 264q5 -93 52 -155t141 -62q89 0 171.5 70t142 177.5t106 236.5t71.5 246.5t31 207.5zM436 377l4 -4l711 721q-3 43 -13.5 78.5t-30.5 67.5t-55 50.5t-83 18.5q-73 0 -139.5 -38.5t-116.5 -101.5t-93.5 -147t-74 -171t-54 -178.5 t-36.5 -163.5t-19 -132z" />
<glyph unicode="&#xd9;" horiz-adv-x="1478" d="M197 305q0 73 47 238l153 544q2 9 11 40t15.5 58t6.5 38q0 28 -11 47t-25 28.5t-40 14.5t-42 5.5t-46 0.5l10 37h670l-10 -37q-114 0 -156 -44.5t-82 -187.5l-155 -544q-49 -176 -49 -254q0 -107 74.5 -160t185.5 -53q66 0 121 16.5t96 50t72 72t56.5 94t42 102.5 t34.5 111l161 559q23 94 23 123q0 62 -42 86t-130 29l10 37h461l-10 -37q-57 -3 -96 -19.5t-64.5 -51.5t-40 -69.5t-31.5 -93.5l-164 -571q-18 -62 -33.5 -106.5t-43 -105.5t-57 -104t-76 -89t-101 -74.5t-129 -47t-162.5 -18.5t-160 16.5t-118 42t-81 60.5t-52 66.5 t-27.5 65.5t-13 52.5t-2.5 32.5zM752 1780h292l107 -344h-78z" />
<glyph unicode="&#xda;" horiz-adv-x="1478" d="M197 305q0 73 47 238l153 544q2 9 11 40t15.5 58t6.5 38q0 28 -11 47t-25 28.5t-40 14.5t-42 5.5t-46 0.5l10 37h670l-10 -37q-114 0 -156 -44.5t-82 -187.5l-155 -544q-49 -176 -49 -254q0 -107 74.5 -160t185.5 -53q66 0 121 16.5t96 50t72 72t56.5 94t42 102.5 t34.5 111l161 559q23 94 23 123q0 62 -42 86t-130 29l10 37h461l-10 -37q-57 -3 -96 -19.5t-64.5 -51.5t-40 -69.5t-31.5 -93.5l-164 -571q-18 -62 -33.5 -106.5t-43 -105.5t-57 -104t-76 -89t-101 -74.5t-129 -47t-162.5 -18.5t-160 16.5t-118 42t-81 60.5t-52 66.5 t-27.5 65.5t-13 52.5t-2.5 32.5zM891 1434l117 346h305l-332 -346h-90z" />
<glyph unicode="&#xdb;" horiz-adv-x="1478" d="M197 305q0 73 47 238l153 544q2 9 11 40t15.5 58t6.5 38q0 28 -11 47t-25 28.5t-40 14.5t-42 5.5t-46 0.5l10 37h670l-10 -37q-114 0 -156 -44.5t-82 -187.5l-155 -544q-49 -176 -49 -254q0 -107 74.5 -160t185.5 -53q66 0 121 16.5t96 50t72 72t56.5 94t42 102.5 t34.5 111l161 559q23 94 23 123q0 62 -42 86t-130 29l10 37h461l-10 -37q-57 -3 -96 -19.5t-64.5 -51.5t-40 -69.5t-31.5 -93.5l-164 -571q-18 -62 -33.5 -106.5t-43 -105.5t-57 -104t-76 -89t-101 -74.5t-129 -47t-162.5 -18.5t-160 16.5t-118 42t-81 60.5t-52 66.5 t-27.5 65.5t-13 52.5t-2.5 32.5zM682 1421l307 346h225l103 -346h-103l-133 209l-293 -209h-106z" />
<glyph unicode="&#xdc;" horiz-adv-x="1478" d="M197 305q0 73 47 238l153 544q2 9 11 40t15.5 58t6.5 38q0 28 -11 47t-25 28.5t-40 14.5t-42 5.5t-46 0.5l10 37h670l-10 -37q-114 0 -156 -44.5t-82 -187.5l-155 -544q-49 -176 -49 -254q0 -107 74.5 -160t185.5 -53q66 0 121 16.5t96 50t72 72t56.5 94t42 102.5 t34.5 111l161 559q23 94 23 123q0 62 -42 86t-130 29l10 37h461l-10 -37q-57 -3 -96 -19.5t-64.5 -51.5t-40 -69.5t-31.5 -93.5l-164 -571q-18 -62 -33.5 -106.5t-43 -105.5t-57 -104t-76 -89t-101 -74.5t-129 -47t-162.5 -18.5t-160 16.5t-118 42t-81 60.5t-52 66.5 t-27.5 65.5t-13 52.5t-2.5 32.5zM692 1585q0 55 39 94t94 39t94 -39t39 -94t-39 -94t-94 -39t-94 39t-39 94zM1063 1585q0 55 38.5 94t94.5 39t94.5 -39t38.5 -94t-38.5 -94t-94.5 -39t-94.5 39t-38.5 94z" />
<glyph unicode="&#xdd;" horiz-adv-x="1251" d="M186 0l11 37q52 0 87 8.5t58 21.5t41 45t29 62t28 90l99 334l-109 469q-26 112 -43 148q-44 95 -145 104l10 37h649l-10 -37q-76 0 -129 -32.5t-53 -104.5q0 -34 24 -133l82 -375l205 280q2 2 16.5 22.5t19.5 28t19.5 28.5t21.5 32.5t18.5 31t17.5 33t13 30t10 31t3 26.5 q0 47 -32.5 74.5t-79.5 27.5l10 37h413l-10 -37q-29 0 -49 -6.5t-56 -38t-79 -92.5l-447 -619l-84 -289q-2 -7 -9 -32t-12 -42t-9 -38t-4 -33q0 -31 14 -50.5t42.5 -28t55 -11t68.5 -2.5l-10 -37h-695zM909 1434l117 346h305l-332 -346h-90z" />
<glyph unicode="&#xde;" horiz-adv-x="1251" d="M-66 0l11 37q40 0 68.5 4t51.5 16.5t38.5 27t29.5 44t24.5 59.5t24.5 80l236 819q2 9 11 40t15.5 58t6.5 38q0 28 -11 47t-25 28.5t-40 14.5t-42 5.5t-46 0.5l10 37h661l-10 -37q-48 0 -80.5 -7.5t-56 -21.5t-41 -44.5t-30 -64.5t-29.5 -94l-13 -38h117q115 0 206.5 -33 t150.5 -107.5t59 -181.5q0 -58 -18.5 -115.5t-62 -113.5t-106.5 -98.5t-160.5 -68.5t-215.5 -26h-183l-10 -37q-2 -9 -11 -39.5t-15.5 -57.5t-6.5 -38q0 -28 11 -47t25 -28.5t40 -14.5t42 -5.5t46 -0.5l-10 -37h-662zM502 383h76q74 0 134 24.5t98 63.5t63.5 90.5t36 102 t10.5 100.5q0 98 -51 152.5t-148 54.5h-47z" />
<glyph unicode="&#xdf;" d="M-350 -330q0 39 33.5 63.5t74.5 24.5q36 0 59 -17.5t23 -53.5q0 -16 -15 -38.5t-15 -27.5q0 -6 7.5 -10t14.5 -4q41 0 68 39q46 67 134 378q52 182 181 672q27 102 42 155t44 139.5t54.5 132.5t66.5 104.5t86 87.5t107.5 50t136.5 21q129 0 206.5 -62t77.5 -187 q0 -105 -57.5 -187t-144.5 -124.5t-187 -47.5v-4q42 0 88 -17.5t89.5 -51t71.5 -93.5t28 -135q0 -99 -33.5 -193.5t-86.5 -162t-121.5 -109t-135.5 -41.5q-77 0 -123.5 39.5t-46.5 114.5q0 43 24 77t66 34q28 0 43.5 -21t15.5 -51q0 -26 -14 -68.5t-14 -58.5q0 -25 45 -25 q22 0 84.5 238t62.5 299q0 202 -115 207l13 37q60 12 107.5 58t74 108t40 126.5t13.5 124.5q0 51 -19.5 89t-66.5 38q-62 0 -106 -89t-99 -304l-153 -600q-64 -247 -104 -354q-122 -323 -329 -403q-74 -29 -159 -29q-47 0 -92 27.5t-45 84.5z" />
<glyph unicode="&#xe0;" d="M41 217q0 113 48 240t122 230t170.5 171t187.5 68q118 0 136 -150h4l34 123l238 12l-201 -690q0 -2 -8 -35.5t-8 -40.5q0 -11 8.5 -20.5t18.5 -9.5q16 0 34.5 12.5t39.5 38.5t29.5 37t25.5 37l34 -19q-134 -250 -325 -250q-51 0 -84 28t-33 79q0 39 57 221l-4 4 q-27 -46 -41 -69t-45.5 -70.5t-57.5 -74.5t-60.5 -58t-72 -45.5t-75.5 -14.5q-47 0 -82 22.5t-53.5 60t-27.5 78.5t-9 85zM301 252q0 -34 13.5 -64t43.5 -30q56 0 129 99t124 234t51 232q0 141 -76 141q-49 0 -102.5 -71.5t-92.5 -170.5t-64.5 -202.5t-25.5 -167.5z M428 1386h293l106 -344h-77z" />
<glyph unicode="&#xe1;" d="M41 217q0 113 48 240t122 230t170.5 171t187.5 68q118 0 136 -150h4l34 123l238 12l-201 -690q0 -2 -8 -35.5t-8 -40.5q0 -11 8.5 -20.5t18.5 -9.5q16 0 34.5 12.5t39.5 38.5t29.5 37t25.5 37l34 -19q-134 -250 -325 -250q-51 0 -84 28t-33 79q0 39 57 221l-4 4 q-27 -46 -41 -69t-45.5 -70.5t-57.5 -74.5t-60.5 -58t-72 -45.5t-75.5 -14.5q-47 0 -82 22.5t-53.5 60t-27.5 78.5t-9 85zM301 252q0 -34 13.5 -64t43.5 -30q56 0 129 99t124 234t51 232q0 141 -76 141q-49 0 -102.5 -71.5t-92.5 -170.5t-64.5 -202.5t-25.5 -167.5z M565 1040l117 346h305l-332 -346h-90z" />
<glyph unicode="&#xe2;" d="M41 217q0 113 48 240t122 230t170.5 171t187.5 68q118 0 136 -150h4l34 123l238 12l-201 -690q0 -2 -8 -35.5t-8 -40.5q0 -11 8.5 -20.5t18.5 -9.5q16 0 34.5 12.5t39.5 38.5t29.5 37t25.5 37l34 -19q-134 -250 -325 -250q-51 0 -84 28t-33 79q0 39 57 221l-4 4 q-27 -46 -41 -69t-45.5 -70.5t-57.5 -74.5t-60.5 -58t-72 -45.5t-75.5 -14.5q-47 0 -82 22.5t-53.5 60t-27.5 78.5t-9 85zM301 252q0 -34 13.5 -64t43.5 -30q56 0 129 99t124 234t51 232q0 141 -76 141q-49 0 -102.5 -71.5t-92.5 -170.5t-64.5 -202.5t-25.5 -167.5z M381 1040l307 346h225l103 -346h-103l-133 209l-293 -209h-106z" />
<glyph unicode="&#xe3;" d="M41 217q0 113 48 240t122 230t170.5 171t187.5 68q118 0 136 -150h4l34 123l238 12l-201 -690q0 -2 -8 -35.5t-8 -40.5q0 -11 8.5 -20.5t18.5 -9.5q16 0 34.5 12.5t39.5 38.5t29.5 37t25.5 37l34 -19q-134 -250 -325 -250q-51 0 -84 28t-33 79q0 39 57 221l-4 4 q-27 -46 -41 -69t-45.5 -70.5t-57.5 -74.5t-60.5 -58t-72 -45.5t-75.5 -14.5q-47 0 -82 22.5t-53.5 60t-27.5 78.5t-9 85zM301 252q0 -34 13.5 -64t43.5 -30q56 0 129 99t124 234t51 232q0 141 -76 141q-49 0 -102.5 -71.5t-92.5 -170.5t-64.5 -202.5t-25.5 -167.5z M403 1077q0 65 20.5 127t68 107t112.5 45q49 0 110 -22.5t111.5 -45t73.5 -22.5q34 0 53 26.5t21 63.5h65q0 -66 -20.5 -127.5t-67.5 -106.5t-112 -45q-49 0 -110 22.5t-111.5 45t-73.5 22.5q-34 0 -53 -26.5t-21 -63.5h-66z" />
<glyph unicode="&#xe4;" d="M41 217q0 113 48 240t122 230t170.5 171t187.5 68q118 0 136 -150h4l34 123l238 12l-201 -690q0 -2 -8 -35.5t-8 -40.5q0 -11 8.5 -20.5t18.5 -9.5q16 0 34.5 12.5t39.5 38.5t29.5 37t25.5 37l34 -19q-134 -250 -325 -250q-51 0 -84 28t-33 79q0 39 57 221l-4 4 q-27 -46 -41 -69t-45.5 -70.5t-57.5 -74.5t-60.5 -58t-72 -45.5t-75.5 -14.5q-47 0 -82 22.5t-53.5 60t-27.5 78.5t-9 85zM301 252q0 -34 13.5 -64t43.5 -30q56 0 129 99t124 234t51 232q0 141 -76 141q-49 0 -102.5 -71.5t-92.5 -170.5t-64.5 -202.5t-25.5 -167.5z M403 1217q0 55 39 94t95 39q55 0 94 -39t39 -94q0 -56 -39 -95t-94 -39t-94.5 39.5t-39.5 94.5zM774 1217q0 55 39 94t94 39t94 -39t39 -94q0 -56 -39 -95t-94 -39t-94 39t-39 95z" />
<glyph unicode="&#xe5;" d="M41 217q0 113 48 240t122 230t170.5 171t187.5 68q118 0 136 -150h4l34 123l238 12l-201 -690q0 -2 -8 -35.5t-8 -40.5q0 -11 8.5 -20.5t18.5 -9.5q16 0 34.5 12.5t39.5 38.5t29.5 37t25.5 37l34 -19q-134 -250 -325 -250q-51 0 -84 28t-33 79q0 39 57 221l-4 4 q-27 -46 -41 -69t-45.5 -70.5t-57.5 -74.5t-60.5 -58t-72 -45.5t-75.5 -14.5q-47 0 -82 22.5t-53.5 60t-27.5 78.5t-9 85zM301 252q0 -34 13.5 -64t43.5 -30q56 0 129 99t124 234t51 232q0 141 -76 141q-49 0 -102.5 -71.5t-92.5 -170.5t-64.5 -202.5t-25.5 -167.5z M514 1217q0 88 61.5 149t149.5 61t149.5 -61t61.5 -149t-61.5 -149.5t-149.5 -61.5t-149.5 61.5t-61.5 149.5zM592 1217q0 -56 39 -95t94 -39t94 39t39 95q0 55 -39 94t-94 39t-94 -39t-39 -94z" />
<glyph unicode="&#xe6;" horiz-adv-x="1478" d="M41 217q0 113 48 240t122 230t170.5 171t187.5 68q84 0 120.5 -36.5t51.5 -109.5h4l43 119l213 12l-34 -102l4 -4q79 61 155.5 91t176.5 30q72 0 121 -35.5t49 -104.5q0 -42 -18 -90.5t-63 -103t-111 -99t-173 -77.5t-238 -41q-8 -66 -8 -103q0 -76 53 -127.5t127 -42.5 q83 0 156 41.5t148 112.5l30 -27q-99 -124 -210 -191t-253 -67q-154 0 -235.5 78t-81.5 234h-4q-32 -50 -54 -82t-62.5 -80.5t-76.5 -77t-86 -50.5t-100 -22q-47 0 -82 22.5t-53.5 60t-27.5 78.5t-9 85zM301 252q0 -34 13.5 -64t43.5 -30q55 0 117 63.5t109 152t78.5 185 t31.5 162.5q0 23 -4.5 44.5t-15 45.5t-33.5 38.5t-55 14.5q-49 0 -102.5 -71.5t-92.5 -170.5t-64.5 -202.5t-25.5 -167.5zM881 426q158 15 260 124t102 247q0 63 -53 63q-57 0 -112.5 -51t-95 -125.5t-65.5 -142t-36 -115.5z" />
<glyph unicode="&#xe7;" horiz-adv-x="909" d="M57 260q0 117 50 237.5t131.5 215.5t196.5 155t235 60q59 0 108 -15.5t84 -56.5t35 -102q0 -62 -40 -112t-99 -50q-44 0 -76.5 29t-32.5 71q0 28 14.5 51.5t31.5 36t31.5 27.5t14.5 29q0 22 -21 33.5t-46 11.5q-81 0 -152 -60t-115 -148.5t-69 -181.5t-25 -167 q0 -86 48.5 -150.5t132.5 -64.5q74 0 147 37t131 96l31 -29q-91 -109 -186.5 -167t-221.5 -75l-26 -22q70 -10 114.5 -48t44.5 -106q0 -49 -24.5 -84.5t-65.5 -53.5t-83.5 -26t-88.5 -8q-110 0 -192 31l12 31q92 -15 113 -15q54 0 96.5 26.5t42.5 78.5q0 32 -22.5 57 t-55.5 25q-17 0 -53 -9l-14 29l133 96q-114 3 -191.5 84t-77.5 203z" />
<glyph unicode="&#xe8;" horiz-adv-x="909" d="M49 236q0 173 97 333t256.5 258.5t332.5 98.5q72 0 121 -35.5t49 -104.5q0 -42 -17.5 -90.5t-61.5 -103t-107.5 -99t-166.5 -77.5t-228 -41q-9 -74 -9 -103q0 -77 42.5 -123.5t117.5 -46.5q83 0 155.5 41.5t147.5 112.5l31 -27q-99 -124 -210 -191t-253 -67 q-76 0 -133.5 22t-87.5 52.5t-48.5 70.5t-23 67.5t-4.5 52.5zM334 426q84 0 164.5 55.5t129 141.5t48.5 174q0 63 -53 63q-43 0 -93 -51.5t-89.5 -124t-68.5 -143t-38 -115.5zM387 1386h293l106 -344h-77z" />
<glyph unicode="&#xe9;" horiz-adv-x="909" d="M49 236q0 173 97 333t256.5 258.5t332.5 98.5q72 0 121 -35.5t49 -104.5q0 -42 -17.5 -90.5t-61.5 -103t-107.5 -99t-166.5 -77.5t-228 -41q-9 -74 -9 -103q0 -77 42.5 -123.5t117.5 -46.5q83 0 155.5 41.5t147.5 112.5l31 -27q-99 -124 -210 -191t-253 -67 q-76 0 -133.5 22t-87.5 52.5t-48.5 70.5t-23 67.5t-4.5 52.5zM334 426q84 0 164.5 55.5t129 141.5t48.5 174q0 63 -53 63q-43 0 -93 -51.5t-89.5 -124t-68.5 -143t-38 -115.5zM575 1040l117 346h305l-331 -346h-91z" />
<glyph unicode="&#xea;" horiz-adv-x="909" d="M49 236q0 173 97 333t256.5 258.5t332.5 98.5q72 0 121 -35.5t49 -104.5q0 -42 -17.5 -90.5t-61.5 -103t-107.5 -99t-166.5 -77.5t-228 -41q-9 -74 -9 -103q0 -77 42.5 -123.5t117.5 -46.5q83 0 155.5 41.5t147.5 112.5l31 -27q-99 -124 -210 -191t-253 -67 q-76 0 -133.5 22t-87.5 52.5t-48.5 70.5t-23 67.5t-4.5 52.5zM334 426q84 0 164.5 55.5t129 141.5t48.5 174q0 63 -53 63q-43 0 -93 -51.5t-89.5 -124t-68.5 -143t-38 -115.5zM365 1040l307 346h225l102 -346h-102l-133 209l-293 -209h-106z" />
<glyph unicode="&#xeb;" horiz-adv-x="909" d="M49 236q0 173 97 333t256.5 258.5t332.5 98.5q72 0 121 -35.5t49 -104.5q0 -42 -17.5 -90.5t-61.5 -103t-107.5 -99t-166.5 -77.5t-228 -41q-9 -74 -9 -103q0 -77 42.5 -123.5t117.5 -46.5q83 0 155.5 41.5t147.5 112.5l31 -27q-99 -124 -210 -191t-253 -67 q-76 0 -133.5 22t-87.5 52.5t-48.5 70.5t-23 67.5t-4.5 52.5zM334 426q84 0 164.5 55.5t129 141.5t48.5 174q0 63 -53 63q-43 0 -93 -51.5t-89.5 -124t-68.5 -143t-38 -115.5zM371 1217q0 55 38.5 94t94.5 39t94.5 -39t38.5 -94q0 -56 -39 -95t-94 -39t-94 39t-39 95z M741 1217q0 55 38.5 94t94.5 39t95 -39t39 -94t-39 -94.5t-95 -39.5q-55 0 -94 39t-39 95z" />
<glyph unicode="&#xec;" horiz-adv-x="569" d="M43 98q0 46 23 121l129 426q28 101 28 123q0 32 -25.5 46.5t-60.5 14.5h-20l10 37l358 60h37l-196 -686q-23 -66 -23 -103q0 -11 7.5 -21t17.5 -10q46 0 138 140q3 6 5 8l35 -18q-149 -265 -322 -265q-58 0 -99.5 34.5t-41.5 92.5zM156 1386h293l106 -344h-78z" />
<glyph unicode="&#xed;" horiz-adv-x="569" d="M43 98q0 46 23 121l129 426q28 101 28 123q0 32 -25.5 46.5t-60.5 14.5h-20l10 37l358 60h37l-196 -686q-23 -66 -23 -103q0 -11 7.5 -21t17.5 -10q46 0 138 140q3 6 5 8l35 -18q-149 -265 -322 -265q-58 0 -99.5 34.5t-41.5 92.5zM365 1040l116 346h305l-331 -346h-90z " />
<glyph unicode="&#xee;" horiz-adv-x="569" d="M43 98q0 46 23 121l129 426q28 101 28 123q0 32 -25.5 46.5t-60.5 14.5h-20l10 37l358 60h37l-196 -686q-23 -66 -23 -103q0 -11 7.5 -21t17.5 -10q46 0 138 140q3 6 5 8l35 -18q-149 -265 -322 -265q-58 0 -99.5 34.5t-41.5 92.5zM106 1040l308 346h225l102 -346h-102 l-133 209l-293 -209h-107z" />
<glyph unicode="&#xef;" horiz-adv-x="569" d="M43 98q0 46 23 121l129 426q28 101 28 123q0 32 -25.5 46.5t-60.5 14.5h-20l10 37l358 60h37l-196 -686q-23 -66 -23 -103q0 -11 7.5 -21t17.5 -10q46 0 138 140q3 6 5 8l35 -18q-149 -265 -322 -265q-58 0 -99.5 34.5t-41.5 92.5zM131 1217q0 55 38.5 94t94.5 39 t94.5 -39t38.5 -94q0 -56 -39 -95t-94 -39t-94 39t-39 95zM502 1217q0 55 39 94t94 39t94 -39t39 -94q0 -56 -39 -95t-94 -39t-94 39t-39 95z" />
<glyph unicode="&#xf0;" d="M49 254q0 112 37 216t97 180t132 133.5t144.5 86.5t132.5 29q76 0 137 -45q3 159 -37 287l-211 -115l-30 57l221 121q-47 103 -97 160l35 22q74 -48 146 -137l209 113l30 -57l-200 -107q81 -114 126.5 -251t45.5 -273q0 -177 -90.5 -340.5t-237.5 -263t-303 -99.5 q-128 0 -207.5 77.5t-79.5 205.5zM295 141q0 -40 26.5 -77t65.5 -37q66 0 131.5 87.5t107.5 206t68.5 231.5t26.5 173q0 47 -26.5 83t-73.5 36q-60 0 -115.5 -66.5t-92.5 -161.5t-64.5 -198.5t-40.5 -177.5t-13 -99z" />
<glyph unicode="&#xf1;" horiz-adv-x="1138" d="M25 0l194 645q29 105 29 123q0 32 -25.5 46.5t-60.5 14.5h-21l11 37l358 60h37l-133 -437l4 -4q25 40 34 53.5t39 58t46.5 66.5t49 63t55.5 63.5t56.5 52.5t61.5 45.5t61 27t64 11.5q61 0 96 -41t35 -103q0 -49 -33 -155l-113 -379q-22 -66 -22 -96q0 -10 5.5 -17.5 t14.5 -7.5q19 0 42 23t50 63t31 45l39 -22q-147 -248 -311 -248q-54 0 -92.5 29.5t-38.5 82.5q0 42 30 150l111 379q21 63 21 84q0 12 -8.5 19t-22.5 7q-50 0 -134 -96t-149 -205.5t-82 -165.5l-82 -272h-247zM410 1077q0 66 20.5 127.5t67.5 106.5t112 45q49 0 110 -22.5 t111.5 -45t73.5 -22.5q34 0 53 26.5t21 63.5h65q0 -66 -20.5 -127.5t-67.5 -106.5t-112 -45q-49 0 -110 22.5t-111.5 45t-73.5 22.5q-34 0 -53 -26.5t-21 -63.5h-65z" />
<glyph unicode="&#xf2;" d="M49 254q0 96 32 194t91 183t135 151.5t171.5 105t193.5 38.5q127 0 208 -78t81 -205q0 -119 -51.5 -240.5t-135.5 -216.5t-200.5 -155t-237.5 -60q-128 0 -207.5 77.5t-79.5 205.5zM295 160q0 -61 26.5 -97t69.5 -36q63 0 125 88.5t104 210.5t68.5 242.5t26.5 191.5 q0 43 -21.5 76.5t-66.5 33.5q-55 0 -108.5 -62t-92.5 -153t-69.5 -192t-46 -182.5t-15.5 -120.5zM416 1386h293l106 -344h-78z" />
<glyph unicode="&#xf3;" d="M49 254q0 96 32 194t91 183t135 151.5t171.5 105t193.5 38.5q127 0 208 -78t81 -205q0 -119 -51.5 -240.5t-135.5 -216.5t-200.5 -155t-237.5 -60q-128 0 -207.5 77.5t-79.5 205.5zM295 160q0 -61 26.5 -97t69.5 -36q63 0 125 88.5t104 210.5t68.5 242.5t26.5 191.5 q0 43 -21.5 76.5t-66.5 33.5q-55 0 -108.5 -62t-92.5 -153t-69.5 -192t-46 -182.5t-15.5 -120.5zM602 1040l117 346h305l-332 -346h-90z" />
<glyph unicode="&#xf4;" d="M49 254q0 96 32 194t91 183t135 151.5t171.5 105t193.5 38.5q127 0 208 -78t81 -205q0 -119 -51.5 -240.5t-135.5 -216.5t-200.5 -155t-237.5 -60q-128 0 -207.5 77.5t-79.5 205.5zM295 160q0 -61 26.5 -97t69.5 -36q63 0 125 88.5t104 210.5t68.5 242.5t26.5 191.5 q0 43 -21.5 76.5t-66.5 33.5q-55 0 -108.5 -62t-92.5 -153t-69.5 -192t-46 -182.5t-15.5 -120.5zM334 1040l307 346h225l103 -346h-103l-133 209l-293 -209h-106z" />
<glyph unicode="&#xf5;" d="M49 254q0 96 32 194t91 183t135 151.5t171.5 105t193.5 38.5q127 0 208 -78t81 -205q0 -119 -51.5 -240.5t-135.5 -216.5t-200.5 -155t-237.5 -60q-128 0 -207.5 77.5t-79.5 205.5zM295 160q0 -61 26.5 -97t69.5 -36q63 0 125 88.5t104 210.5t68.5 242.5t26.5 191.5 q0 43 -21.5 76.5t-66.5 33.5q-55 0 -108.5 -62t-92.5 -153t-69.5 -192t-46 -182.5t-15.5 -120.5zM354 1077q0 65 20.5 127t68 107t112.5 45q49 0 110 -22.5t111.5 -45t73.5 -22.5q34 0 53 26.5t21 63.5h65q0 -65 -20.5 -127t-68 -107t-112.5 -45q-49 0 -109.5 22.5t-111 45 t-73.5 22.5q-34 0 -53 -26.5t-21 -63.5h-66z" />
<glyph unicode="&#xf6;" d="M49 254q0 96 32 194t91 183t135 151.5t171.5 105t193.5 38.5q127 0 208 -78t81 -205q0 -119 -51.5 -240.5t-135.5 -216.5t-200.5 -155t-237.5 -60q-128 0 -207.5 77.5t-79.5 205.5zM295 160q0 -61 26.5 -97t69.5 -36q63 0 125 88.5t104 210.5t68.5 242.5t26.5 191.5 q0 43 -21.5 76.5t-66.5 33.5q-55 0 -108.5 -62t-92.5 -153t-69.5 -192t-46 -182.5t-15.5 -120.5zM371 1217q0 55 38.5 94t94.5 39t94.5 -39t38.5 -94q0 -56 -39 -95t-94 -39t-94 39t-39 95zM741 1217q0 55 38.5 94t94.5 39t95 -39t39 -94t-39 -94.5t-95 -39.5q-55 0 -94 39 t-39 95z" />
<glyph unicode="&#xf7;" horiz-adv-x="1167" d="M92 612v131h1094v-131h-1094zM537 348q0 43 29.5 73t72.5 30t72.5 -30t29.5 -73t-29.5 -72.5t-72.5 -29.5t-72.5 29.5t-29.5 72.5zM537 1008q0 43 29.5 72.5t72.5 29.5t72.5 -29.5t29.5 -72.5t-29.5 -73t-72.5 -30t-72.5 30t-29.5 73z" />
<glyph unicode="&#xf8;" d="M35 18l65 64q-51 70 -51 172q0 96 32 194t91 183t135 151.5t171.5 105t193.5 38.5q126 0 205 -76l75 76l47 -47l-81 -80q43 -68 43 -156q0 -119 -51.5 -240.5t-135.5 -216.5t-200.5 -155t-237.5 -60q-115 0 -191 64l-63 -64zM295 158q0 -60 27.5 -95.5t74.5 -35.5 q43 0 89.5 51.5t84.5 133.5t69 174.5t50 182.5l-6 4l-389 -391v-24zM315 299l4 -4l392 391q4 50 4 74q0 43 -21.5 76.5t-66.5 33.5q-53 0 -104.5 -56.5t-91 -147t-68 -182.5t-48.5 -185z" />
<glyph unicode="&#xf9;" horiz-adv-x="1138" d="M70 111q0 39 30 161l115 373q29 105 29 123q0 32 -25.5 46.5t-60.5 14.5h-21l10 37l359 60h37l-187 -656q-20 -60 -20 -86q0 -12 8.5 -19t20.5 -7q36 0 90.5 52.5t106.5 126t93 140t60 107.5l94 315l254 12l-189 -649q-30 -100 -30 -119q0 -8 7 -18t15 -10q13 0 55 47 t68 86l33 -25q-136 -252 -311 -252q-54 0 -90.5 31.5t-36.5 85.5q0 36 15 96.5t58 202.5l-4 4q-6 -8 -18 -27q-28 -42 -45 -66.5t-51 -71.5t-59.5 -76.5t-63 -67t-69.5 -59t-69.5 -37t-72.5 -15.5q-58 0 -96.5 40.5t-38.5 99.5zM438 1386h293l107 -344h-78z" />
<glyph unicode="&#xfa;" horiz-adv-x="1138" d="M70 111q0 39 30 161l115 373q29 105 29 123q0 32 -25.5 46.5t-60.5 14.5h-21l10 37l359 60h37l-187 -656q-20 -60 -20 -86q0 -12 8.5 -19t20.5 -7q36 0 90.5 52.5t106.5 126t93 140t60 107.5l94 315l254 12l-189 -649q-30 -100 -30 -119q0 -8 7 -18t15 -10q13 0 55 47 t68 86l33 -25q-136 -252 -311 -252q-54 0 -90.5 31.5t-36.5 85.5q0 36 15 96.5t58 202.5l-4 4q-6 -8 -18 -27q-28 -42 -45 -66.5t-51 -71.5t-59.5 -76.5t-63 -67t-69.5 -59t-69.5 -37t-72.5 -15.5q-58 0 -96.5 40.5t-38.5 99.5zM578 1040l116 346h305l-331 -346h-90z" />
<glyph unicode="&#xfb;" horiz-adv-x="1138" d="M70 111q0 39 30 161l115 373q29 105 29 123q0 32 -25.5 46.5t-60.5 14.5h-21l10 37l359 60h37l-187 -656q-20 -60 -20 -86q0 -12 8.5 -19t20.5 -7q36 0 90.5 52.5t106.5 126t93 140t60 107.5l94 315l254 12l-189 -649q-30 -100 -30 -119q0 -8 7 -18t15 -10q13 0 55 47 t68 86l33 -25q-136 -252 -311 -252q-54 0 -90.5 31.5t-36.5 85.5q0 36 15 96.5t58 202.5l-4 4q-6 -8 -18 -27q-28 -42 -45 -66.5t-51 -71.5t-59.5 -76.5t-63 -67t-69.5 -59t-69.5 -37t-72.5 -15.5q-58 0 -96.5 40.5t-38.5 99.5zM342 1040l307 346h225l103 -346h-103 l-133 209l-292 -209h-107z" />
<glyph unicode="&#xfc;" horiz-adv-x="1138" d="M70 111q0 39 30 161l115 373q29 105 29 123q0 32 -25.5 46.5t-60.5 14.5h-21l10 37l359 60h37l-187 -656q-20 -60 -20 -86q0 -12 8.5 -19t20.5 -7q36 0 90.5 52.5t106.5 126t93 140t60 107.5l94 315l254 12l-189 -649q-30 -100 -30 -119q0 -8 7 -18t15 -10q13 0 55 47 t68 86l33 -25q-136 -252 -311 -252q-54 0 -90.5 31.5t-36.5 85.5q0 36 15 96.5t58 202.5l-4 4q-6 -8 -18 -27q-28 -42 -45 -66.5t-51 -71.5t-59.5 -76.5t-63 -67t-69.5 -59t-69.5 -37t-72.5 -15.5q-58 0 -96.5 40.5t-38.5 99.5zM403 1217q0 55 39 94t95 39q55 0 94 -39 t39 -94q0 -56 -39 -95t-94 -39t-94.5 39.5t-39.5 94.5zM774 1217q0 55 39 94t94 39t94 -39t39 -94q0 -56 -39 -95t-94 -39t-94 39t-39 95z" />
<glyph unicode="&#xfd;" horiz-adv-x="909" d="M-193 -305q0 53 36.5 91t88.5 38q31 0 57.5 -16.5t42 -37t33.5 -37t35 -16.5q14 0 28 5.5t29 17t25 20t26 24.5l21 21q0 178 -1.5 310.5t-5.5 238t-9 177t-14.5 123t-19 80t-26 44.5t-32 20.5t-39.5 4.5h-31v37l309 86q58 -62 80 -234.5t37 -572.5h4q36 55 82.5 125.5 t68.5 103.5t50.5 77.5t40 65.5t24 47.5t16 44t3.5 35.5q0 31 -19 54t-41.5 35.5t-41.5 37.5t-19 58q0 52 37 87.5t90 35.5q57 0 95 -44t38 -102q0 -98 -123.5 -310.5t-332.5 -485.5q-184 -240 -297.5 -333t-204.5 -93q-58 0 -99 40t-41 97zM582 1040l116 346h306l-332 -346 h-90z" />
<glyph unicode="&#xfe;" d="M-248 -436l10 37q42 0 73 16.5t53.5 53t36 72t30.5 95.5l364 1268q29 105 29 123q0 32 -25.5 46.5t-60.5 14.5h-20l10 37l358 59h37l-178 -618l4 -4q76 75 147 118.5t154 43.5q96 0 145.5 -71.5t49.5 -166.5q0 -107 -29 -212.5t-83.5 -195.5t-125.5 -160t-160.5 -109.5 t-183.5 -39.5q-40 0 -66.5 8.5t-68.5 30.5l-43 -149q-35 -123 -35 -172q0 -26 13.5 -44.5t35.5 -27t39.5 -12t36.5 -4.5l-10 -37h-537zM281 102q20 -30 28.5 -41.5t30 -26t47.5 -14.5q49 0 106 53t105 136.5t79.5 197t31.5 224.5q0 58 -23 104.5t-74 46.5q-26 0 -50.5 -9.5 t-49 -30.5t-36.5 -34t-36 -40z" />
<glyph unicode="&#xff;" horiz-adv-x="909" d="M-193 -305q0 53 36.5 91t88.5 38q31 0 57.5 -16.5t42 -37t33.5 -37t35 -16.5q14 0 28 5.5t29 17t25 20t26 24.5l21 21q0 178 -1.5 310.5t-5.5 238t-9 177t-14.5 123t-19 80t-26 44.5t-32 20.5t-39.5 4.5h-31v37l309 86q58 -62 80 -234.5t37 -572.5h4q36 55 82.5 125.5 t68.5 103.5t50.5 77.5t40 65.5t24 47.5t16 44t3.5 35.5q0 31 -19 54t-41.5 35.5t-41.5 37.5t-19 58q0 52 37 87.5t90 35.5q57 0 95 -44t38 -102q0 -98 -123.5 -310.5t-332.5 -485.5q-184 -240 -297.5 -333t-204.5 -93q-58 0 -99 40t-41 97zM276 1217q0 55 39 94t95 39 t94.5 -39t38.5 -94q0 -56 -39 -95t-94 -39q-56 0 -95 39.5t-39 94.5zM647 1217q0 55 38.5 94t94.5 39t94.5 -39t38.5 -94q0 -56 -39 -95t-94 -39t-94 39t-39 95z" />
<glyph unicode="&#x152;" horiz-adv-x="1933" d="M123 463q0 174 72 340t192 289.5t284 198.5t339 75q44 0 184 -4q105 -6 250 -6h514l-88 -340h-37q0 76 -23.5 128t-53.5 78t-90.5 39t-99.5 15t-116 2h2l-149 -522q53 0 86.5 2.5t79.5 14.5t79 34t68 64t63 102h37l-151 -529h-37q10 48 10 82q0 28 -4.5 50t-16.5 38 t-23 27t-33 18t-37.5 11t-45.5 5.5t-47.5 2t-52.5 0.5l-123 -428q-25 -91 -25 -111q0 -17 6.5 -29.5t14.5 -18.5t22.5 -9t23.5 -3.5t24 -0.5q114 0 273 82.5t259 212.5h41l-141 -373h-832q-36 0 -102 -4q-53 -6 -105 -6q-223 0 -357 126.5t-134 346.5zM426 309 q0 -122 55 -181.5t146 -59.5q102 0 167.5 83.5t112.5 249.5l142 488q25 88 34.5 123.5t17 74t7.5 68.5q0 64 -38.5 98.5t-106.5 34.5q-97 0 -197 -98.5t-173.5 -244.5t-120 -318.5t-46.5 -317.5z" />
<glyph unicode="&#x153;" horiz-adv-x="1478" d="M49 254q0 96 32 194t91 183t135 151.5t171.5 105t193.5 38.5q91 0 149 -35t94 -117q88 75 178.5 113.5t209.5 38.5q72 0 121 -35.5t49 -104.5q0 -42 -18 -90.5t-61.5 -103t-107.5 -99t-167 -77.5t-228 -41q-8 -66 -8 -103q0 -77 42 -123.5t117 -46.5q83 0 156 41.5 t148 112.5l30 -27q-99 -124 -210 -191t-253 -67q-88 0 -151 32.5t-107 109.5q-55 -69 -137.5 -105.5t-181.5 -36.5q-128 0 -207.5 77.5t-79.5 205.5zM295 160q0 -61 26.5 -97t69.5 -36q63 0 125 88.5t104 210.5t68.5 242.5t26.5 191.5q0 43 -21.5 76.5t-66.5 33.5 q-55 0 -108.5 -62t-92.5 -153t-69.5 -192t-46 -182.5t-15.5 -120.5zM901 426q84 0 164.5 55.5t129 141.5t48.5 174q0 63 -53 63q-43 0 -93 -51.5t-89.5 -124t-68.5 -143t-38 -115.5z" />
<glyph unicode="&#x178;" horiz-adv-x="1251" d="M186 0l11 37q52 0 87 8.5t58 21.5t41 45t29 62t28 90l99 334l-109 469q-26 112 -43 148q-44 95 -145 104l10 37h649l-10 -37q-76 0 -129 -32.5t-53 -104.5q0 -34 24 -133l82 -375l205 280q2 2 16.5 22.5t19.5 28t19.5 28.5t21.5 32.5t18.5 31t17.5 33t13 30t10 31t3 26.5 q0 47 -32.5 74.5t-79.5 27.5l10 37h413l-10 -37q-29 0 -49 -6.5t-56 -38t-79 -92.5l-447 -619l-84 -289q-2 -7 -9 -32t-12 -42t-9 -38t-4 -33q0 -31 14 -50.5t42.5 -28t55 -11t68.5 -2.5l-10 -37h-695zM623 1585q0 55 38.5 94t94.5 39t94.5 -39t38.5 -94t-38.5 -94 t-94.5 -39t-94.5 39t-38.5 94zM993 1585q0 55 38.5 94t94.5 39t95 -39t39 -94t-39 -94t-95 -39t-94.5 39t-38.5 94z" />
<glyph unicode="&#x2c6;" horiz-adv-x="681" d="M184 1040l308 346h225l102 -346h-102l-133 209l-293 -209h-107z" />
<glyph unicode="&#x2dc;" horiz-adv-x="681" d="M231 1077q0 65 20.5 127t68 107t112.5 45q49 0 110 -22.5t111.5 -45t73.5 -22.5q34 0 53 26.5t21 63.5h65q0 -66 -20.5 -127.5t-67.5 -106.5t-112 -45q-49 0 -110 22.5t-111.5 45t-73.5 22.5q-34 0 -53 -26.5t-21 -63.5h-66z" />
<glyph unicode="&#x2000;" horiz-adv-x="890" />
<glyph unicode="&#x2001;" horiz-adv-x="1780" />
<glyph unicode="&#x2002;" horiz-adv-x="890" />
<glyph unicode="&#x2003;" horiz-adv-x="1780" />
<glyph unicode="&#x2004;" horiz-adv-x="593" />
<glyph unicode="&#x2005;" horiz-adv-x="445" />
<glyph unicode="&#x2006;" horiz-adv-x="296" />
<glyph unicode="&#x2007;" horiz-adv-x="296" />
<glyph unicode="&#x2008;" horiz-adv-x="222" />
<glyph unicode="&#x2009;" horiz-adv-x="356" />
<glyph unicode="&#x200a;" horiz-adv-x="98" />
<glyph unicode="&#x2010;" horiz-adv-x="681" d="M10 346l64 207h583l-63 -207h-584z" />
<glyph unicode="&#x2011;" horiz-adv-x="681" d="M10 346l64 207h583l-63 -207h-584z" />
<glyph unicode="&#x2012;" horiz-adv-x="681" d="M10 346l64 207h583l-63 -207h-584z" />
<glyph unicode="&#x2013;" d="M-16 412v123h1056v-123h-1056z" />
<glyph unicode="&#x2014;" horiz-adv-x="2048" d="M-16 412v123h2080v-123h-2080z" />
<glyph unicode="&#x2018;" horiz-adv-x="681" d="M293 942q0 76 35.5 148.5t93.5 128.5t126 98t140 69l23 -43q-114 -64 -152 -95q-66 -56 -67 -107q0 -27 21 -53.5t45.5 -46t45.5 -54.5t21 -76q0 -65 -48.5 -112t-113.5 -47q-76 0 -123 56t-47 134z" />
<glyph unicode="&#x2019;" horiz-adv-x="681" d="M293 795q114 64 152 95q67 55 67 107q0 27 -21 53.5t-45.5 46t-45.5 54.5t-21 76q0 65 48.5 112t113.5 47q76 0 123 -56t47 -134q0 -76 -35.5 -148.5t-94 -128.5t-126.5 -98t-140 -69z" />
<glyph unicode="&#x201a;" horiz-adv-x="681" d="M-33 -289q116 65 157 100q62 53 62 103q0 27 -21 53.5t-45.5 45.5t-45.5 54t-21 76q0 65 48.5 112.5t113.5 47.5q76 0 123 -56t47 -134q0 -76 -35.5 -149t-93.5 -129t-126 -98t-140 -69z" />
<glyph unicode="&#x201c;" d="M242 942q0 76 35.5 148.5t93.5 128.5t126 98t140 69l22 -43q-114 -64 -152 -95q-66 -56 -67 -107q0 -27 21 -53.5t45.5 -46t45.5 -54.5t21 -76q0 -65 -48 -112t-113 -47q-76 0 -123 56t-47 134zM686 942q0 76 35.5 148.5t93.5 128.5t126 98t140 69l23 -43 q-114 -64 -152 -95q-66 -56 -67 -107q0 -27 21 -53.5t45.5 -46t45.5 -54.5t21 -76q0 -65 -48.5 -112t-113.5 -47q-76 0 -123 56t-47 134z" />
<glyph unicode="&#x201d;" d="M242 795q114 64 152 95q66 56 67 107q0 27 -21 53.5t-45.5 46t-45.5 54.5t-21 76q0 65 48 112t113 47q76 0 123 -56t47 -134q0 -76 -35.5 -148.5t-93.5 -128.5t-126 -98t-140 -69zM686 795q114 64 152 95q67 55 67 107q0 27 -21 53.5t-45.5 46t-45.5 54.5t-21 76 q0 65 48.5 112t113.5 47q76 0 123 -56t47 -134q0 -76 -35.5 -148.5t-93.5 -128.5t-126 -98t-140 -69z" />
<glyph unicode="&#x201e;" d="M-61 -289q116 65 157 100q62 53 62 103q0 27 -21 53.5t-45.5 45.5t-45.5 54t-21 76q0 66 48 113t113 47q76 0 123 -56t47 -134q0 -76 -35.5 -149t-93.5 -129t-126 -98t-140 -69zM383 -289q116 65 157 100q62 53 62 103q0 27 -21 53.5t-45.5 45.5t-45.5 54t-21 76 q0 65 48.5 112.5t113.5 47.5q76 0 123 -56t47 -134q0 -76 -35.5 -149t-93.5 -129t-126 -98t-140 -69z" />
<glyph unicode="&#x2022;" horiz-adv-x="716" d="M123 676q0 118 84.5 202.5t202.5 84.5t202 -84t84 -203t-84 -203t-202 -84t-202.5 84.5t-84.5 202.5z" />
<glyph unicode="&#x2026;" horiz-adv-x="2048" d="M115 137q0 69 48.5 117.5t117.5 48.5t117 -48.5t48 -117.5t-48 -117.5t-117 -48.5t-117.5 48.5t-48.5 117.5zM797 137q0 69 48.5 117.5t117.5 48.5t117 -48.5t48 -117.5t-48 -117.5t-117 -48.5t-117.5 48.5t-48.5 117.5zM1479 137q0 69 48.5 117.5t117.5 48.5t117 -48.5 t48 -117.5t-48 -117.5t-117 -48.5t-117.5 48.5t-48.5 117.5z" />
<glyph unicode="&#x202f;" horiz-adv-x="356" />
<glyph unicode="&#x2039;" horiz-adv-x="681" d="M119 451l442 460h64l-258 -460l61 -461h-63z" />
<glyph unicode="&#x203a;" horiz-adv-x="681" d="M57 -10l258 461l-61 460h63l246 -460l-442 -461h-64z" />
<glyph unicode="&#x205f;" horiz-adv-x="445" />
<glyph unicode="&#x20ac;" d="M33 575l22 78h97q12 43 26 84h-94l22 78h103q47 109 121 209.5t167.5 181.5t209.5 129.5t235 48.5q94 0 147 -17.5t138 -70.5l-84 -299h-39q10 58 10 105q0 201 -176 201q-58 0 -116 -36t-102 -87.5t-87 -123t-69 -127t-50 -114.5h442l-22 -78h-447q-14 -41 -26 -84h444 l-22 -78h-443q-43 -158 -43 -284q0 -225 152 -225q76 0 147 36.5t108 71.5t105 111q4 4 7 7.5t6 6.5l36 -35q-49 -57 -83.5 -93.5t-84 -78.5t-95 -65.5t-105.5 -39.5t-127 -16q-352 0 -352 400q0 97 22 204h-100z" />
<glyph unicode="&#x2122;" horiz-adv-x="2048" d="M102 1130v226h779v-226h-37q-3 104 -54 139.5t-176 35.5v-568q0 -29 0.5 -43.5t3.5 -35.5t9.5 -31.5t18 -21.5t29.5 -15t44 -4v-37h-455v37q26 0 44 4t29.5 15t18 21.5t9.5 31.5t3.5 35.5t0.5 43.5v568q-125 0 -176 -35.5t-54 -139.5h-37zM965 549v37q24 0 41 3.5t29 8 t20 16.5t12 20t5.5 29t2 33t0.5 41v424v41.5t-1.5 32.5t-4 28.5t-8 20.5t-13 17t-19.5 9.5t-27.5 7t-36.5 1.5v37h368l232 -496l229 496h346v-37q-25 0 -42 -2.5t-28.5 -12.5t-17 -18.5t-8.5 -32t-3.5 -40t-0.5 -54.5v-422q0 -39 1 -56t5.5 -40t15 -32t29.5 -16t49 -7v-37 h-461v37q34 0 56 7t34 16t17.5 32t6.5 40t1 56v473l-4 -4l-315 -657h-25l-313 657l-4 4v-473q0 -29 0.5 -41t2 -33t6 -29t12.5 -20t20 -16.5t30 -8t43 -3.5v-37h-282z" />
<glyph unicode="&#x25fc;" horiz-adv-x="921" d="M0 0v922h922v-922h-922z" />
<glyph unicode="&#xfb01;" horiz-adv-x="1138" d="M-342 -332q0 45 36.5 73t82.5 28q41 0 67.5 -21.5t26.5 -60.5q0 -28 -15.5 -47t-15.5 -21q0 -5 7.5 -8.5t13.5 -3.5q23 0 42 11t41.5 41t46 92t48.5 157l223 874h-137l31 117q76 0 113 23.5t69 85.5q64 122 106 176q155 202 424 202q39 0 77 -6.5t76.5 -21t62.5 -45 t24 -72.5q0 -53 -32.5 -86t-84.5 -33q-41 0 -74.5 25.5t-33.5 64.5q0 22 13 52.5t13 38.5q0 20 -18.5 29t-40.5 9q-37 0 -68 -11.5t-55 -29.5t-46.5 -51t-38.5 -64.5t-33.5 -83t-30 -94t-29.5 -108.5h231q169 0 260 27h52l-197 -686q-23 -66 -23 -103q0 -11 7.5 -21 t17.5 -10q46 0 138 140l3 4.5t2 3.5l35 -18q-149 -265 -321 -265q-58 0 -100 34.5t-42 92.5q0 46 23 121l172 563h-285l-110 -438q-64 -247 -104 -354q-122 -323 -329 -403q-74 -29 -159 -29q-63 0 -112.5 26t-49.5 84z" />
<glyph unicode="&#xfb02;" horiz-adv-x="1138" d="M-356 -332q0 45 36 73t82 28q41 0 68 -21.5t27 -60.5q0 -28 -15.5 -47t-15.5 -21q0 -5 7 -8.5t13 -3.5q31 0 56 19t58 88.5t65 193.5l223 874h-137l30 117q76 0 113.5 23.5t69.5 85.5q46 84 92 146.5t107.5 118t139 84.5t168.5 29q113 0 173 -26l176 26h37l-334 -1146 q-23 -66 -23 -103q0 -11 7.5 -21t17.5 -10q46 0 138 140l3 4.5t2 3.5l35 -18q-149 -265 -322 -265q-58 0 -99.5 34.5t-41.5 92.5q0 46 23 121l168 563h-283l-111 -438q-64 -247 -104 -354q-122 -323 -329 -403q-74 -29 -159 -29q-63 0 -112 26t-49 84zM539 899h288l74 254 q-31 18 -31 66q0 21 14.5 46t14.5 38q0 21 -20.5 29.5t-44.5 8.5q-41 0 -76.5 -16.5t-63.5 -49.5t-50.5 -70.5t-42 -92.5t-33 -102t-29.5 -111z" />
</font>
</defs>
</svg>
